<svg xmlns="http://www.w3.org/2000/svg" width="56" height="56" fill="currentColor" viewBox="0 0 56 56"><path d="M45 18v-2a7 7 0 0 0-7-7h-8a1 1 0 1 1 0-2h8a9 9 0 0 1 9 9v2a1 1 0 1 1-2 0ZM9 40v-2a1 1 0 1 1 2 0v2a7 7 0 0 0 7 7h4a1 1 0 1 1 0 2h-4a9 9 0 0 1-9-9ZM18 8.8a4 4 0 0 0-8 .2v.2a4 4 0 0 0 4 3.8h.2A4 4 0 0 0 18 9v-.2Zm2 .5a6 6 0 0 1-5.7 5.7H14a6 6 0 1 1 6-6v.3ZM23 30a9 9 0 1 0-18 0 1 1 0 1 1-2 0 11 11 0 0 1 22 0 1 1 0 1 1-2 0ZM46 31a4 4 0 1 0-8 0 4 4 0 0 0 8 0Zm2 0a6 6 0 1 1-12 0 6 6 0 0 1 12 0ZM51 52a9 9 0 0 0-18 0 1 1 0 1 1-2 0 11 11 0 0 1 22 0 1 1 0 1 1-2 0Z"/></svg>