<svg xmlns="http://www.w3.org/2000/svg" width="200" height="45" fill="currentColor" viewBox="0 0 200 45"><path fill="currentColor" fill-rule="evenodd" d="M31.28.16a10.58 10.58 0 0 0-8 7.6 13.97 13.97 0 0 0 0 5.32 10.77 10.77 0 0 0 7.22 7.42c.84.26 1.25.3 2.92.3 1.68 0 2.08-.04 2.92-.3a11.8 11.8 0 0 0 3.36-1.68c.67-.48.79-.53.65-.28-.27.51-.21 1.79.11 2.4 1.32 2.53 5.13 1.83 5.33-.97a2.72 2.72 0 0 0-.67-2.19 2.87 2.87 0 0 0-3.14-.75c-.25.1-.45.15-.45.11 0-.03.17-.28.37-.54a10.6 10.6 0 0 0 1.54-2.94c.34-.98.36-1.16.36-3.24 0-2.15-.01-2.24-.4-3.34a10.62 10.62 0 0 0-7-6.72 13.4 13.4 0 0 0-5.12-.2ZM0 10.42v9.92h19.86V14.5H9.99v-1.55H19.86V7.89H9.99V6.33H19.86V.49H0v9.93ZM54.38 5.1v3.17h4.02V7.11h-2.72V5.68H58V4.5h-2.33v-1.3h2.72V1.92h-4.02V5.1ZM97.4 2.16c-.65.3-1.4 1.12-1.63 1.78-.24.72-.22 1.83.06 2.55a3.36 3.36 0 0 0 1.87 1.76c.7.21 1.9.2 2.45-.04.57-.24.52-.24.6.05.1.4.67.71.99.54.62-.33.6-1.22-.02-1.37l-.31-.08.3-.6a3.38 3.38 0 0 0-1.45-4.58 4.37 4.37 0 0 0-2.86-.01Zm20.92.23c-.05.05-.08.37-.08.72 0 .58-.03.62-.33.62-.3 0-.32.05-.32.59 0 .53.02.58.3.58.3 0 .32.03.37 1.38.05 1.37.05 1.37.48 1.76.4.36.5.39 1.14.34.89-.08 1.02-.2.79-.76-.15-.37-.24-.44-.63-.44h-.44l-.04-1.14-.04-1.12.56-.04c.56-.04.56-.04.56-.56s0-.52-.56-.56l-.55-.04V2.3h-.56c-.3 0-.6.04-.65.1ZM97.73 3.42c-.56.48-.78.97-.78 1.77 0 1.55 1.43 2.5 2.77 1.85.64-.31.91-.8.97-1.7.1-1.44-.6-2.26-1.9-2.26-.51 0-.74.07-1.06.34Zm-27.84.25-.48.12c-.45.1-1.1.65-1.36 1.16a3.15 3.15 0 0 0 0 2.25c.38.72 1.04 1.12 1.98 1.18.71.05.9 0 1.4-.28 1.35-.8 1.5-3.06.26-3.94-.52-.37-1.42-.62-1.8-.5Zm5.58.02c-.14.04-.42.19-.62.33-.35.25-.35.25-.35-.02 0-.23-.08-.27-.59-.27h-.58v6.36h1.3V7.88l.38.28c.31.23.5.27 1.12.22.65-.06.8-.12 1.17-.53 1-1.08.86-3.16-.25-3.85a2.4 2.4 0 0 0-1.58-.3Zm4.75.04c-.55.13-1.03.49-1.42 1.05-.26.39-.3.57-.26 1.38.08 1.46.71 2.13 2.1 2.22.91.06 1.71-.24 2.09-.78.29-.41.27-.45-.36-.66-.53-.18-.58-.18-.78.05-.31.36-1.13.33-1.49-.05a1.24 1.24 0 0 1-.28-.4c0-.04.73-.08 1.62-.08h1.62v-.42c0-.24-.1-.66-.24-.95-.26-.58-1.07-1.36-1.42-1.36-.12 0-.34-.02-.48-.05-.14-.03-.46 0-.7.05Zm4.68 0c-.45.1-1.35.87-1.28 1.09.02.07.27.2.54.3.46.16.53.15.78-.09.36-.33.78-.33 1.1 0 .43.42.32.52-.54.52-1.35 0-2.04.52-2.05 1.54 0 .32.12.55.44.87.4.4.52.44 1.14.44.45 0 .81-.07 1.01-.21.23-.16.33-.18.37-.07.03.09.3.15.62.15h.58V6.68c0-1.79-.17-2.32-.85-2.7-.49-.28-1.3-.39-1.86-.25Zm5.64 0c-.2.07-.48.22-.61.34-.24.21-.25.2-.25-.06 0-.24-.07-.28-.58-.28h-.59v4.54h1.3V6.8c0-1.67.1-1.89.85-1.89.7 0 .84.33.84 1.98v1.4h1.33l-.06-1.75c-.04-1.34-.1-1.81-.28-2.07a1.77 1.77 0 0 0-1.95-.73Zm18.54.06c-.28.1-.68.38-.9.61l-.37.42.55.24c.54.22.56.22.89-.03.4-.32.83-.33 1.11-.02.38.42.27.54-.53.54-1.05 0-1.77.36-1.97.96-.2.6-.08 1.13.33 1.51.42.4 1.7.52 2.2.2.17-.11.32-.15.32-.08 0 .08.26.13.58.13h.58V6.61c0-1.53-.02-1.71-.3-2.11-.5-.75-1.55-1.05-2.48-.7Zm5.84-.1c-.14.04-.38.18-.53.33-.28.25-.28.25-.37-.02-.07-.22-.2-.27-.66-.27h-.58v4.54h1.3v-1.4c0-1.64.14-1.97.84-1.97.75 0 .85.22.85 1.9v1.47h1.3V6.72c0-2.22-.3-2.85-1.43-3.02a2.36 2.36 0 0 0-.72 0Zm13.78.05c-.2.06-.48.2-.61.33-.24.21-.25.2-.25-.06 0-.24-.07-.28-.59-.28h-.58v4.54h1.3V6.8c0-1.65.12-1.9.88-1.9.66 0 .8.35.8 1.98v1.4h1.3V6.8c0-1.64.12-1.9.87-1.9.7 0 .82.3.82 1.92v1.45h1.3V6.81c0-2.16-.26-2.8-1.25-3.07-.64-.17-1.16-.04-1.6.4l-.36.36-.3-.32c-.17-.18-.5-.38-.76-.45-.53-.14-.47-.14-.97 0ZM59.44 5.43c0 1.9.16 2.46.8 2.79.53.28 1.44.24 1.84-.08.29-.23.35-.24.35-.07 0 .16.14.2.65.2h.65l-.03-2.23-.04-2.24-.62-.04-.61-.04V5.1c0 1.71-.18 2.13-.91 2.13-.65 0-.71-.13-.78-1.84l-.07-1.6-.61-.03-.62-.04v1.7Zm5.2.57v2.27h1.29V6.92c0-1.65.06-1.74 1.23-1.92.22-.03.27-.15.3-.67l.04-.63-.43.08c-.23.05-.58.2-.77.34l-.35.26-.04-.3c-.04-.24-.14-.29-.66-.32l-.62-.04V6Zm38.15-.74c0 1.8.13 2.37.66 2.81.52.44 1.47.47 1.98.07.3-.24.36-.25.42-.07.06.14.25.2.65.2h.57V3.73h-1.29V5.2c0 1.7-.14 2.04-.84 2.04-.74 0-.85-.27-.85-2v-1.5h-1.3v1.52Zm18.69.1c0 1.8.13 2.3.71 2.76.49.38 1.46.39 1.93.02.29-.23.34-.24.34-.07 0 .16.15.2.66.2h.65l-.04-2.23-.03-2.24-.62-.04-.61-.04v1.5c0 1.32-.03 1.53-.27 1.76-.32.32-.92.33-1.2.02-.17-.18-.22-.56-.25-1.72l-.04-1.48-.61-.04-.62-.04v1.63Zm-51.8-.4c-.68.38-.8 1.47-.2 2.02.4.39 1.17.34 1.5-.09.79-.99-.24-2.51-1.3-1.93Zm5.53-.04c-.43.25-.57.53-.58 1.1 0 .96.77 1.5 1.55 1.1.55-.3.66-1.55.16-2-.31-.28-.83-.37-1.13-.2Zm4.84.14-.3.3.9.03c.49.02.92 0 .97-.04.15-.15-.53-.58-.9-.58-.22 0-.5.12-.67.3Zm4.98 1.53c-.21.1-.29.21-.26.42.06.42.9.48 1.27.1.42-.42.35-.65-.22-.64-.27 0-.62.06-.79.12Zm24.42 0c-.61.24-.45.78.24.78.41 0 1.09-.56.95-.78-.1-.16-.8-.16-1.19 0Zm-76.8 1.87a2.3 2.3 0 0 0-1.37 2c0 .64.53 1.47 1.16 1.8.96.5 1.82.33 2.57-.52.72-.82.71-1.83-.01-2.65-.67-.77-1.54-1-2.36-.63Zm65.28 4.04c-.28.28-.25.75.06 1.03.6.54 1.51-.38.98-.97-.29-.31-.76-.34-1.04-.06Zm15.7.05c-.9.22-1.63.8-2.1 1.7-.35.67-.33 2.35.04 3.04a3.2 3.2 0 0 0 3.83 1.6 3.64 3.64 0 0 0 1.73-1.4l.2-.37-.62-.2c-.56-.2-.61-.2-.73.01-.8 1.45-2.9 1.13-3.33-.5-.58-2.15 1.7-3.7 3.1-2.13l.39.45.53-.2c.29-.12.53-.3.53-.4 0-.1-.26-.43-.58-.74a3.14 3.14 0 0 0-3-.86Zm15.64.22c-.33.3-.43.51-.49 1-.06.57-.09.6-.45.6s-.38.03-.34.5c.04.41.1.48.4.52l.36.04v3.49h1.29V15.4h1.04v-1.04h-.52c-.46 0-.52-.03-.52-.3 0-.39.27-.62.66-.57.21.02.36-.07.5-.32.28-.48.08-.65-.8-.72-.64-.06-.75-.02-1.13.31Zm-74.89.37v.59h1.82V18.92h1.29l.03-2.57.04-2.56.94-.04.94-.04v-1.15h-5.06v.58Zm14.93 2.6v3.18h1.29v-1.44c0-1.35.02-1.45.32-1.75.39-.38.76-.4 1.11-.06.23.23.26.44.26 1.75v1.5h1.3v-1.63c0-1.8-.15-2.36-.7-2.72a1.82 1.82 0 0 0-1.8-.09l-.49.26v-2.18h-1.29v3.18Zm15.57 0v3.18h1.17v-6.36h-1.17v3.18Zm-24.4-1.2c-2.22 1.12-1.41 4.52 1.07 4.5.93 0 2.18-.74 2.01-1.19-.03-.1-.27-.24-.53-.33-.42-.16-.49-.15-.73.1-.37.37-1.04.34-1.48-.06-.19-.17-.34-.38-.34-.45 0-.1.58-.14 1.62-.14h1.62v-.46c0-.25-.1-.68-.24-.94-.64-1.25-1.8-1.64-3-1.03Zm5.2-.09a2.26 2.26 0 0 0-1.47 2.21 2.39 2.39 0 0 0 3.32 2.21c.4-.17 1.13-.89 1.13-1.11 0-.06-.24-.2-.53-.3-.5-.2-.53-.2-.86.1a1 1 0 0 1-1.38.06c-.43-.35-.54-.9-.3-1.48.32-.75 1.22-.93 1.73-.35.19.23.24.23.77.05.31-.1.57-.24.57-.3 0-.24-.61-.83-1.1-1.05a2.26 2.26 0 0 0-1.89-.04Zm10.46.12c-.45.3-.47.3-.47.06 0-.22-.1-.26-.59-.26h-.58v4.55h1.29v-1.5c0-1.31.03-1.52.26-1.75.15-.14.4-.26.56-.26.69.01.87.45.87 2.14v1.37h1.33l-.06-1.72c-.06-1.96-.22-2.4-.92-2.74-.63-.3-1.14-.27-1.7.1Zm4.78-.19c-.87.26-1.53 1.23-1.53 2.26 0 1.61 1.32 2.66 2.95 2.35.57-.1 1.35-.76 1.59-1.33.2-.5.22-1.44.03-1.95-.41-1.1-1.78-1.7-3.04-1.33Zm7.27.1c-.62.3-.9.58-1.16 1.23-.53 1.26-.05 2.53 1.16 3.1 1.88.86 3.79-.74 3.3-2.78a2.34 2.34 0 0 0-3.3-1.54Zm5.32-.15c-1.02.27-1.65 1.58-1.37 2.84a1.94 1.94 0 0 0 2 1.62c.44 0 .68-.09.98-.34l.4-.33v.34c0 .51-.35 1.1-.72 1.19-.34.08-1.34 0-1.81-.15-.21-.06-.31.01-.49.38l-.22.46.42.22c.23.12.83.24 1.33.27.76.04 1 0 1.48-.25.32-.16.69-.45.82-.63.34-.46.49-1.61.49-3.73v-1.85h-.65c-.56 0-.65.04-.65.27 0 .26 0 .26-.37-.01a2.32 2.32 0 0 0-1.64-.3Zm7.89.06a2.45 2.45 0 0 0-.62 4.21c.9.69 2.45.54 3.2-.31l.4-.46-.55-.24c-.53-.22-.55-.22-.88.03-.48.38-1.3.29-1.62-.18-.27-.42-.1-.47 1.54-.47h1.63l-.1-.55c-.26-1.62-1.51-2.46-3-2.03Zm4.55.04a1.3 1.3 0 0 0-.82 1.27c0 .67.5 1.2 1.42 1.5.46.14.73.3.76.45.06.34-.9.32-1.2-.03-.23-.25-.24-.25-.74 0-.28.15-.5.31-.5.37 0 .18.7.78 1.08.92.86.33 2.1.03 2.51-.6.4-.6-.05-1.85-.73-2.04-.1-.04-.45-.13-.75-.2-.42-.11-.56-.21-.56-.4 0-.2.1-.26.44-.26.24 0 .51.09.6.2.14.16.22.15.67-.07.45-.24.49-.3.36-.53-.18-.35-1.1-.76-1.68-.76-.25 0-.63.08-.86.18Zm13.13.05c-.62.3-.9.59-1.16 1.23-.37.88-.13 2.13.53 2.72.7.62 1.83.77 2.72.37 1.64-.75 1.78-3.21.24-4.17a2.72 2.72 0 0 0-2.33-.15Zm5.86 0c-.4.22-.5.23-.56.08-.05-.12-.27-.19-.64-.19h-.57v4.55h1.3v-1.44c0-1.35.01-1.45.31-1.75.39-.38.77-.4 1.11-.06.23.23.26.44.26 1.75v1.5h1.3v-1.6c-.01-.87-.08-1.78-.17-2.02-.32-.9-1.42-1.29-2.34-.81Zm8.12-.09c-1.36.4-1.99 2.4-1.14 3.66.81 1.2 2.76 1.34 3.71.25l.42-.47-.55-.24c-.53-.22-.56-.22-.88.03-.42.33-.95.33-1.38-.01-.69-.54-.49-.64 1.3-.64h1.64l-.09-.55c-.25-1.6-1.55-2.46-3.03-2.03Zm8.14.15c-2.18 1.1-1.39 4.5 1.05 4.5.83 0 1.77-.47 2.08-1.05.1-.17 0-.25-.46-.43-.55-.2-.58-.2-.84.05-.5.51-1.68.18-1.7-.48 0-.12.42-.16 1.64-.16h1.63l-.08-.42c-.18-.87-.34-1.23-.75-1.63-.77-.74-1.61-.87-2.57-.38Zm5.98-.2c-.11.04-.33.19-.49.33l-.3.27v-.28c0-.25-.06-.29-.58-.29h-.58v4.55h1.15l.04-1.5c.04-1.4.07-1.53.35-1.76.38-.31.69-.31 1.06 0 .28.21.3.36.36 1.75l.06 1.5h1.13V17.3c0-1.87-.14-2.38-.8-2.78-.41-.25-1-.32-1.4-.17Zm4.51.03a2.4 2.4 0 0 0-1.41 3.31c.28.62.57.9 1.21 1.17a2.5 2.5 0 0 0 2.04-.06c.47-.24 1.04-.82 1.04-1.05 0-.05-.25-.18-.55-.29-.54-.18-.58-.17-.92.12-1.13.97-2.45-.72-1.39-1.78.46-.46.9-.48 1.4-.08.35.3.38.3.91.1l.55-.21-.26-.43c-.45-.73-1.63-1.1-2.62-.8Zm4.64.12c-.62.28-.9.57-1.17 1.22-.5 1.21.1 2.76 1.27 3.2 1.01.38 2.51-.08 2.95-.92.1-.17 0-.25-.45-.43-.56-.2-.58-.2-.84.05-.39.39-1.06.35-1.49-.07-.18-.2-.34-.4-.34-.46s.77-.11 1.7-.11c1.55 0 1.69-.02 1.63-.23a9.8 9.8 0 0 1-.14-.71c-.05-.28-.27-.7-.5-.96-.72-.83-1.64-1.03-2.62-.58Zm-58.6 2.16v2.27h1.3v-4.55h-1.3v2.28Zm39.06 0v2.27h1.17v-1.3c0-1.2.03-1.34.3-1.61.17-.17.55-.35.85-.4l.54-.09v-1.18l-.47.08c-.26.04-.6.2-.76.34-.37.34-.46.33-.46-.06 0-.3-.05-.33-.58-.33h-.59v2.28Zm-75.97-1c-.11.13-.21.28-.21.32 0 .05.38.1.84.1.66 0 .85-.05.85-.2 0-.46-1.11-.62-1.48-.22Zm20.34-.04c-.35.24-.6.97-.49 1.41.05.2.23.46.41.6.77.6 1.73.08 1.72-.94 0-.6-.16-.88-.6-1.12-.39-.2-.71-.19-1.05.05Zm7.55-.04c-.43.24-.58.53-.58 1.09-.01 1.09 1.12 1.63 1.82.88.47-.5.45-1.39-.05-1.81-.4-.34-.78-.4-1.2-.16Zm5 .19c-.16.2-.26.53-.26.84 0 .99 1.04 1.51 1.66.85.38-.4.4-1.35.02-1.75a.94.94 0 0 0-1.42.06Zm7.74-.12c-.12.14-.22.29-.22.33 0 .05.42.1.93.1h.92l-.2-.3c-.25-.4-1.11-.47-1.43-.13Zm18.13-.08c-.15.08-.34.28-.42.46-.6 1.33.83 2.52 1.74 1.44.83-.99-.18-2.45-1.32-1.9Zm13.54.09c-.12.13-.22.28-.22.32 0 .05.41.1.9.1.96 0 1.08-.08.68-.44-.32-.3-1.1-.28-1.36.02Zm8.41.02c-.13.15-.2.3-.16.33.03.04.47.06.96.04l.89-.04-.3-.3c-.37-.37-1.06-.39-1.39-.03Zm15.08-.02c-.12.13-.22.28-.22.32 0 .05.38.1.85.1.65 0 .84-.05.84-.2 0-.46-1.1-.62-1.47-.22Zm-125.14 7.6a10.06 10.06 0 0 0-5.4 2.92 9.84 9.84 0 0 0-2.6 4.17c-.4 1.16-.42 1.34-.43 3.11 0 2.13.16 2.93.91 4.53a10.4 10.4 0 0 0 7.94 5.94c3.06.52 6.37-.52 8.7-2.73 1.33-1.26 2.89-3.66 2.55-3.96-.14-.13-7.48-2.87-7.68-2.87-.08 0-.18.12-.22.26-.12.38-.88.91-1.41 1a2.15 2.15 0 0 1-2.5-2.5c.2-1.07 1.55-1.9 2.6-1.6.5.14 1.27.77 1.39 1.14.04.13 1.03-.19 3.95-1.29 2.13-.8 3.91-1.49 3.95-1.51a10.48 10.48 0 0 0-11.74-6.6ZM0 28.6v5h4.54v9.99h10.64v-10h4.68V23.6H0v5ZM89.06 24c-.21.22-.2.7.03.88.25.21.59.13.8-.2.34-.5-.4-1.1-.83-.68Zm-33.34.12c-.87.25-1.4 1.38-1.03 2.24.24.57.65.84 1.74 1.14 1.03.29 1.4.6 1.28 1.07-.18.71-1.4.88-2.03.28-.3-.29-.44-.34-.77-.27-.51.12-.59.25-.34.63.36.54 1.2.92 2.08.92 1.32 0 2.14-.65 2.14-1.68 0-.93-.65-1.54-2-1.87-.8-.19-1.11-.45-1.11-.93 0-.8 1.3-1.02 1.9-.32.25.29.33.3.75.2.25-.08.46-.19.46-.25a2 2 0 0 0-.4-.58c-.58-.66-1.61-.88-2.67-.58Zm3.98 2.92v3.05l.49-.04.48-.04.07-1.48c.06-1.42.08-1.48.42-1.74.29-.21.43-.24.71-.14.55.19.68.61.68 2.1v1.34l.5-.04.48-.04.03-1.23c.05-1.65-.15-2.43-.73-2.82-.55-.37-1.29-.39-1.74-.03-.18.14-.36.26-.4.26-.05 0-.08-.5-.08-1.1v-1.11h-.91v3.06Zm79.56-2.95a2.92 2.92 0 0 0-2.08 2.3c-.47 2.25 1.4 4.18 3.57 3.69.35-.08.72-.2.83-.25.14-.08.24-.04.33.15.3.6.81.62 1.17.06.17-.27-.01-.62-.4-.8-.26-.11-.26-.12.03-.64.39-.73.49-1.4.31-2.22a2.98 2.98 0 0 0-1.45-2.02 4 4 0 0 0-2.31-.27Zm-36.31 2.97.03 2.95 1.85.04 1.85.04v-1.05h-2.72v-1.56h2.34v-.91h-2.34v-1.55h2.72v-.91h-3.76l.03 2.95Zm72.78.03v2.99h1.04V27.6h2.33v-1.04h-2.33v-1.55h2.72v-.91h-3.76v2.98Zm-17.52-1.94c0 .63 0 .65-.4.65-.37 0-.4.02-.35.42.03.35.1.43.4.46l.35.04v1.33c0 1.5.12 1.79.84 2.03.35.11.57.11.91 0 .5-.16.53-.23.31-.69-.1-.23-.21-.3-.45-.25-.56.1-.7-.16-.7-1.35V26.7h.58c.58 0 .59 0 .59-.45s0-.45-.59-.45h-.58v-1.3h-.91v.65Zm27 0c0 .6-.03.65-.33.65-.28 0-.32.05-.32.45s.04.45.32.45c.32 0 .32 0 .32 1.24 0 1.54.18 1.94.9 2.14.41.1.62.1.99-.06.45-.19.46-.2.28-.55-.15-.27-.28-.35-.63-.36h-.43l-.04-1.2-.04-1.19.56-.04c.52-.04.56-.07.6-.46.04-.42.04-.42-.55-.42h-.6v-1.3h-1.04v.65Zm-45.72-.08c-.27.1-.57.24-.67.33-.61.5-.8 2.08-.34 2.83.75 1.23 2.54 1.25 3.23.04.35-.64.37-1.71.03-2.35a1.87 1.87 0 0 0-2.25-.85Zm-10.12.27c-.12.27-.1.37.1.59.12.14.32.26.45.26.12 0 .32-.12.45-.26.35-.4.09-.91-.45-.91-.3 0-.44.08-.55.32Zm-63.9.5c-.47.22-1.06.89-1.18 1.33-.14.57.03 1.73.3 2.1a2.3 2.3 0 0 0 3.6 0c.19-.27.28-.61.31-1.24.04-.75 0-.93-.25-1.31a3.52 3.52 0 0 0-.66-.7c-.44-.34-1.57-.43-2.12-.18Zm11.56 0c-1.46.64-1.78 2.76-.57 3.78 1.02.86 2.65.62 3.25-.49.1-.19.05-.26-.3-.4-.4-.17-.45-.16-.72.13-.2.23-.42.31-.8.31-.94 0-1.47-1.03-1-1.93.35-.68 1.33-.83 1.83-.27.18.2.28.21.62.1.55-.2.55-.18.3-.57-.46-.69-1.77-1.02-2.61-.65Zm4.27.01c-.22.1-.53.34-.69.54l-.29.37.47.16c.42.15.5.14.72-.1.48-.47 1.42-.18 1.42.45 0 .17-.13.21-.78.21-.85 0-1.46.24-1.68.64-.23.43-.16 1.28.12 1.56.53.54 1.72.62 2.25.17.2-.18.22-.18.22.01 0 .16.12.22.44.22h.43l.08-1.2c.13-1.89-.1-2.58-.97-3.03a2.3 2.3 0 0 0-1.74 0Zm4.26.08c-.76.46-.86 1.42-.2 1.93.17.14.6.35.95.47.34.11.69.28.76.37.4.47-.77.74-1.27.29-.2-.18-.33-.21-.61-.12-.5.17-.52.37-.1.75 1.06.99 3.03.53 3.03-.71 0-.7-.47-1.23-1.3-1.44-.77-.2-1-.42-.77-.7.21-.26.83-.25 1.1.01.17.18.27.19.59.05.44-.18.44-.18.24-.53-.32-.61-1.69-.82-2.42-.37Zm7.02-.14a.95.95 0 0 0-.36.26c-.13.2-.33.17-.33-.06 0-.14-.14-.2-.46-.2h-.45V30.1l.49-.04.48-.04.07-1.47c.06-1.35.09-1.5.37-1.72.41-.33.74-.3 1.13.07.3.3.32.4.32 1.76v1.43h1.03v-1.4c0-1.6-.13-2.2-.57-2.62-.35-.33-1.25-.47-1.72-.27Zm4.03.05c-.22.1-.54.38-.7.62-.42.58-.5 1.8-.17 2.45.5.97 1.71 1.33 2.62.77l.44-.27-.07.48c-.16.95-.9 1.29-2 .92l-.63-.21c-.02 0-.1.18-.2.4-.2.49-.1.56.9.77 1.2.26 2.25-.1 2.7-.94.2-.35.25-.81.28-2.73l.05-2.3h-.53c-.46 0-.53.03-.53.28v.28l-.32-.3c-.4-.36-1.28-.47-1.84-.22Zm20 0c-.8.37-1.23 1.1-1.23 2.11 0 1.26.88 2.16 2.13 2.17 2.22.04 3.04-2.74 1.2-4.11-.43-.33-1.56-.42-2.1-.17Zm5.65-.09c-.1.04-.33.2-.49.34l-.29.27v-.28c0-.24-.08-.28-.45-.28h-.46V31.77h.91v-2.21l.38.28c.48.35 1.32.37 1.92.06 1.2-.62 1.29-3.05.15-3.88-.35-.26-1.32-.41-1.67-.27Zm4.41.05a2.36 2.36 0 0 0-1.3 2.73c.46 1.68 2.7 2.19 3.8.85.3-.38.29-.42-.19-.59-.35-.12-.45-.1-.69.12-.4.37-1.23.35-1.6-.04-.15-.17-.28-.4-.28-.52 0-.2.19-.22 1.58-.22h1.57l-.07-.45a2.63 2.63 0 0 0-.9-1.65 2.47 2.47 0 0 0-1.92-.23Zm4.72.05c-.5.22-.7.55-.7 1.16 0 .63.34.96 1.3 1.3.95.32 1.15.63.58.89-.3.13-.42.11-.9-.14-.5-.27-.6-.28-.9-.12l-.36.18.34.4c.77.92 2.64.8 3.06-.21.34-.83-.17-1.54-1.35-1.88-.64-.19-.74-.26-.7-.5.05-.37.64-.46 1.08-.17.38.25 1.01.07.95-.27-.13-.63-1.58-1.01-2.4-.64Zm18.12-.04c-.4.16-.9.63-.9.84 0 .09.17.22.4.3.33.12.43.1.67-.12.5-.47 1.19-.26 1.43.43.07.2-.01.22-.76.22-1.35 0-1.88.4-1.88 1.4 0 .36.1.59.3.79.6.56 1.67.65 2.2.18.2-.18.23-.18.23.02 0 .18.1.22.49.18l.48-.04v-1.55c0-1.32-.03-1.63-.25-1.98-.43-.71-1.53-1.02-2.4-.67Zm4.97.11c-.35.21-.42.23-.42.07 0-.14-.14-.2-.46-.2h-.45v4.29h.91v-1.21c0-.67.06-1.4.13-1.61a.89.89 0 0 1 1.25-.53c.45.22.53.52.55 2.08l.01 1.27h.91v-1.63c0-1.82-.13-2.25-.77-2.59a1.7 1.7 0 0 0-1.66.06Zm12.85 0c-.35.21-.43.23-.43.07 0-.14-.14-.2-.52-.2h-.52l.04 2.11.03 2.11.49.04.49.04v-1.3c0-.71.06-1.44.14-1.62.31-.68 1.45-.71 1.6-.05.04.16.09.88.1 1.6l.04 1.3.48.03.49.04v-1.22c0-.67.06-1.4.14-1.61.17-.5.7-.75 1.2-.57.44.17.6.79.6 2.25v1.14h.92v-1.63c0-1.82-.13-2.25-.78-2.59-.7-.36-1.73-.15-2.07.42-.13.22-.15.22-.28 0-.36-.6-1.46-.79-2.16-.36Zm29.74-.08c-.47.22-1.06.89-1.17 1.33-.15.57.02 1.73.3 2.1.78 1.05 2.37 1.17 3.38.25.4-.36.36-.56-.12-.73-.36-.12-.45-.1-.7.12-.4.38-1.15.35-1.56-.06-.63-.63-.48-.72 1.24-.72H200v-.36c0-.5-.5-1.45-.93-1.76a2.48 2.48 0 0 0-2-.17Zm-128.28.12c0 .09.32 1.04.7 2.1l.69 1.95h1l.44-1.4c.24-.78.48-1.36.53-1.3.05.06.28.7.51 1.44l.43 1.33h.95l.74-2.15.74-2.15-.53.04-.54.04-.45 1.36-.46 1.37-.46-1.4-.46-1.4-.52.03-.51.04-.46 1.43-.46 1.43-.45-1.46-.46-1.46h-.49c-.3 0-.48.06-.48.16Zm20.11 1.98v2.14h1.04V25.8H88.9v2.14Zm18.82-.55c0 1 .06 1.7.17 1.9.43.84 1.55 1.1 2.3.55.38-.28.39-.28.39-.02 0 .21.08.26.45.26h.46V25.8h-.89l-.04 1.41c-.04 1.17-.09 1.46-.3 1.69-.25.28-.9.36-1.21.16-.27-.17-.42-.92-.42-2.13V25.8h-.91v1.59Zm4.8.55v2.14h1.04v-1.36c0-1.55.13-1.8.97-1.96.42-.08.46-.12.46-.52 0-.37-.05-.44-.3-.44-.15 0-.47.11-.7.25-.43.26-.43.26-.43 0 0-.21-.09-.25-.52-.25h-.52v2.14Zm31.28-.75c0 1.62.15 2.26.59 2.6.62.5 1.23.48 2.3-.07.05-.03.1.04.1.15 0 .15.12.2.45.2h.46V25.8h-1.04v1.42c0 1.64-.15 1.95-.97 1.95-.7 0-.85-.32-.85-1.98v-1.4h-1.04v1.4Zm17.26.1c0 1.67.16 2.24.72 2.6.43.3 1.37.3 1.8.02.27-.18.33-.18.39-.02.04.12.25.19.53.19h.46V25.8h-1.04v1.42c0 1.64-.15 1.95-.97 1.95-.7 0-.85-.32-.85-1.98v-1.4h-1.04v1.5Zm18.96-.03c0 2.18.38 2.84 1.63 2.87.38.01.67-.08.95-.28.39-.3.4-.3.4-.03 0 .21.08.26.45.26h.46V25.8h-1.04v1.4c0 1.73-.14 2-.95 1.94-.74-.05-.86-.34-.87-2.01V25.8h-1.04v1.46Zm8.06.13c.07 1.74.23 2.24.83 2.56.52.28 1.28.24 1.74-.1.39-.3.4-.3.4-.03 0 .21.08.26.45.26h.45V25.8h-.87l-.06 1.42c-.05 1.14-.1 1.48-.3 1.69-.24.26-.89.35-1.2.16-.29-.19-.42-.83-.42-2.05V25.8h-1.07l.06 1.59Zm4.91.56v2.14l.49-.04.49-.04.03-1.36c.04-1.52.15-1.73 1.01-1.9.4-.07.45-.12.45-.51 0-.37-.05-.44-.3-.44-.16 0-.48.11-.7.25-.43.26-.43.26-.43 0 0-.21-.09-.25-.52-.25H193v2.15ZM65.87 26.73c-.44.25-.58.53-.58 1.18 0 .86.4 1.3 1.18 1.24.69-.06 1.05-.5 1.05-1.3 0-.91-.92-1.54-1.65-1.12Zm31.07.22c-.43.43-.5.97-.19 1.56.2.4.43.53.93.53s.8-.22.96-.72c.43-1.3-.79-2.28-1.7-1.37Zm19.86 0c-.52.52-.54 1.42-.06 1.9.42.43 1.2.44 1.6.03.8-.86.24-2.3-.89-2.3-.15 0-.44.17-.65.37Zm5.3-.17c-.4.21-.65.91-.53 1.49.11.58.5.9 1.07.9.68 0 1.05-.45 1.04-1.28 0-.64-.15-.92-.6-1.16-.37-.2-.55-.19-.98.05Zm4.65.06c-.19.15-.34.33-.34.4 0 .06.44.11.98.11 1.02 0 1.14-.08.7-.52-.33-.33-.9-.33-1.34.01Zm70.62-.13c-.12.08-.28.25-.36.39-.13.24-.09.25.84.25 1.04 0 1.16-.08.72-.52-.28-.27-.83-.33-1.2-.12ZM81.45 28.47c-.11.1-.2.25-.2.31 0 .38.7.64 1.22.44.19-.07.6-.68.6-.89 0-.17-1.43-.06-1.62.14Zm68.22-.05c-.22.22-.2.7.05.8.42.16.85.07 1.16-.24.53-.52.43-.72-.37-.72-.38 0-.75.07-.84.16Zm-93.15 6.73c-1.3.32-2.14 1.46-2.14 2.94 0 1.87 1.12 3.02 2.92 3.02 1.17 0 2.03-.46 2.48-1.33.18-.34.17-.36-.29-.55l-.5-.2c-.02 0-.27.24-.56.52-.44.44-.6.52-1.06.52-.74 0-1.25-.3-1.56-.9-.5-.98-.23-2.26.57-2.75a1.82 1.82 0 0 1 2.33.48c.17.22.23.22.72.06.3-.1.53-.21.53-.25 0-.22-.86-1.09-1.28-1.3a3.4 3.4 0 0 0-2.16-.26Zm23.56 2.98v2.98h1.17v-1.4c0-1.24.03-1.44.25-1.65.32-.28.87-.3 1.15-.01.17.16.23.53.26 1.64l.05 1.42h1.01v-1.65c0-1.99-.16-2.4-1.04-2.63-.55-.15-.9-.1-1.4.2l-.28.2v-2.09h-1.17v2.99Zm28.01-2.73c-.58.31-1 .88-1.1 1.5l-.08.45h.6c.46 0 .63-.06.69-.23.16-.44.47-.68.88-.68.55 0 .88.37.83.93-.04.37-.21.55-1.38 1.44l-1.33 1.02v1.28h4.02v-1.29l-.91-.03-.92-.04.68-.52c1.12-.85 1.41-1.84.86-2.93a2.1 2.1 0 0 0-2.84-.9Zm5.7-.08c-.76.28-1.12.57-1.52 1.2-1.26 1.99.1 4.46 2.46 4.46a2.87 2.87 0 0 0 2.46-4.46 3.04 3.04 0 0 0-3.4-1.2Zm5.65.08c-.59.3-1.02.88-1.16 1.54l-.08.4h.65c.59 0 .66-.03.73-.31.17-.68 1.1-.78 1.56-.16.25.33.25.39.07.71-.1.2-.76.78-1.45 1.31l-1.27.96v1.26h4.02v-1.3h-1.83l.66-.53c.88-.69 1.18-1.19 1.18-1.97 0-.77-.25-1.27-.85-1.73a2.1 2.1 0 0 0-2.23-.18Zm3.99 1.17V38h1.04c.94 0 1.08.03 1.36.31.18.18.32.46.32.63 0 .38-.5.87-.89.87-.3 0-.93-.52-.93-.77 0-.07-.26-.14-.58-.14-.54 0-.58.03-.58.34 0 .75.67 1.5 1.57 1.75 1.5.4 2.99-1.1 2.58-2.59-.27-1-.99-1.57-2-1.57-.44 0-.6-.05-.6-.2 0-.15.2-.2 1.04-.2h1.04v-1.29h-3.37v1.43Zm-9.57.12c-.48.3-.82.87-.82 1.4 0 .85.86 1.72 1.7 1.72s1.68-.87 1.68-1.75c0-1.23-1.48-2.02-2.56-1.37Zm-52 .19c-.97.36-1.38.98-1.38 2.12 0 1.37.75 2.11 2.14 2.11 1.4 0 2.14-.74 2.14-2.15 0-.61-.07-.9-.29-1.23a2.26 2.26 0 0 0-2.6-.85Zm5.4.03c-.23.11-.42.28-.43.36 0 .08-.06.01-.12-.15-.1-.24-.22-.3-.64-.3h-.53v5.98h1.17V40.57l.34.27c.48.38 1.57.38 2.05 0 .53-.42.72-.92.72-1.9 0-1.33-.5-2.01-1.62-2.17-.35-.05-.65-.01-.94.14Zm4.66-.08A2.23 2.23 0 0 0 71 40.5c.46.49.54.52 1.35.58.98.06 1.52-.11 1.9-.6.35-.44.33-.5-.2-.68-.37-.12-.5-.11-.74.06-.55.38-1.66.12-1.66-.39 0-.15.28-.19 1.51-.19h1.51l-.06-.57a2.2 2.2 0 0 0-1.2-1.77c-.56-.26-.8-.28-1.48-.12Zm4.98.13c-.61.3-.59.3-.59.06 0-.14-.14-.2-.52-.2h-.51v4.29h1.16v-1.4c0-1.24.04-1.44.26-1.65.14-.12.4-.23.6-.23.62 0 .74.28.8 1.85l.06 1.43h1v-1.65c0-1.96-.16-2.4-.99-2.62-.65-.19-.68-.18-1.27.12Zm8.95-.13c-.41.13-.92.58-1 .89-.02.1.15.24.42.34.4.14.5.12.8-.1.43-.32.98-.22 1.13.2.1.28.08.3-.86.36-.9.07-1 .1-1.36.5-.34.38-.38.51-.32.97.1.78.55 1.12 1.48 1.12.5 0 .8-.07.97-.21.22-.2.24-.2.24 0 0 .16.12.21.58.21h.58V39.7c0-2.2-.34-2.78-1.71-2.92-.3-.04-.74 0-.95.06Zm4.52 0a1.9 1.9 0 0 0-.78.6c-.48.64-.58 1.97-.18 2.6.55.88 1.6 1.19 2.42.7.6-.35.61-.35.5.15-.18.88-.9 1.19-1.93.84l-.59-.2-.2.37c-.1.2-.19.43-.19.5 0 .25 1 .44 1.99.39.83-.04 1.04-.1 1.33-.37.66-.62.7-.86.7-3.3v-2.28h-.51c-.44 0-.52.04-.52.26v.26l-.36-.26a1.98 1.98 0 0 0-1.68-.25Zm5.24.06a1.8 1.8 0 0 0-1.18 1.04c-.46.97-.1 2.4.74 2.93.34.22.6.26 1.35.22.87-.04.97-.07 1.4-.48.25-.25.46-.49.46-.53 0-.05-.24-.16-.52-.26-.46-.15-.55-.14-.76.05-.38.35-1.12.28-1.45-.14l-.28-.36 1.58-.04 1.58-.03-.1-.55c-.16-1-.69-1.69-1.5-1.92-.55-.16-.71-.15-1.32.07Zm5.36-.1c-.1.04-.32.19-.48.34l-.3.26v-.28c0-.24-.07-.28-.51-.28h-.52v4.28h1.01l.05-1.42c.04-1.57.17-1.86.83-1.86.66 0 .83.4.83 1.93v1.35h1.17v-1.4c0-1.58-.13-2.2-.55-2.6-.3-.27-1.17-.47-1.53-.33ZM62.2 37.86c-.45.18-.72.95-.54 1.5.16.5.46.7.97.7.5 0 .8-.2.96-.67.2-.57-.02-1.22-.5-1.47-.43-.22-.48-.22-.89-.06Zm4.91.23c-.85.86-.16 2.32.92 1.95.98-.34.85-2.01-.17-2.26-.28-.06-.43 0-.75.31Zm4.83-.16c-.48.33-.33.45.56.45.46 0 .84-.06.84-.13 0-.18-.54-.52-.84-.52-.15 0-.4.09-.56.2Zm18.83.1c-.44.39-.5 1.2-.11 1.63.32.36 1.02.36 1.37.01.38-.38.35-1.21-.06-1.63-.4-.4-.74-.4-1.2 0Zm5-.06c-.16.14-.27.29-.22.34.05.04.45.06.9.04l.83-.04-.29-.3c-.36-.35-.8-.37-1.22-.04Zm-9.41 1.4c-.43.09-.63.39-.43.63.24.29.82.23 1.14-.1.51-.55.28-.72-.71-.53Z" clip-rule="evenodd"/></svg>