<svg xmlns="http://www.w3.org/2000/svg" width="110" height="36" fill="currentColor" viewBox="0 0 110 36"><defs><clipPath id="a"><path d="M0 0h110v36H0z"/></clipPath></defs><g clip-path="url(#a)"><path d="M101.85 0h7.72v36h-7.72V0Zm-26.9 0h8.9l14.6 36h-8.7L79.33 9.26 69.24 36h-8.49l14.2-36ZM50.43 0h6.95v7.2h-6.95V0Zm0 28.8h6.95V36h-6.95v-7.2ZM47.97 36a18.1 18.1 0 0 1-15.84-8.95A17.72 17.72 0 0 1 29.7 18c0-3.26.8-6.26 2.42-9a18.1 18.1 0 0 1 15.84-9h2.98v7.2h-2.98c-1.9 0-3.6.48-5.15 1.44a10.18 10.18 0 0 0-3.65 3.96A11.51 11.51 0 0 0 37.9 18c0 1.95.42 3.77 1.28 5.45.9 1.65 2.1 2.95 3.65 3.91a9.54 9.54 0 0 0 5.15 1.44h2.98V36h-2.98ZM0 7.2V0h6.94v7.2H0ZM0 36v-7.2h6.94V36H0Zm6.43 0v-7.2H9.4c1.89 0 3.6-.48 5.14-1.44a9.9 9.9 0 0 0 3.6-3.9A11.4 11.4 0 0 0 19.48 18c0-1.95-.44-3.75-1.34-5.4a9.81 9.81 0 0 0-3.6-3.96A9.54 9.54 0 0 0 9.41 7.2H6.43V0H9.4a18.1 18.1 0 0 1 15.84 9 17.45 17.45 0 0 1 2.42 9c0 3.26-.8 6.27-2.42 9.05A18.1 18.1 0 0 1 9.41 36H6.43Z"/></g></svg>