<svg xmlns="http://www.w3.org/2000/svg" width="324" height="78" fill="currentColor" viewBox="0 0 324 78"><path d="M110.3 32.1h-2.48l-.25-6.56c0-.1-.05-.16-.14-.16-.07 0-.12.06-.15.16l-1.63 6.56h-3.14l-1.63-6.56c-.03-.1-.08-.16-.15-.16-.1 0-.14.06-.14.17l-.25 6.56h-2.48l.57-10.38c1.31-.1 2.63-.1 3.95 0l1.57 6.99c.03.1.07.14.13.14s.1-.04.13-.14l1.56-7c1.32-.09 2.64-.09 3.96 0l.57 10.39Zm2.1-10.37h2.67V32.1h-2.67V21.73Zm5.02 0h2.16l3.6 5.8v-5.8h2.67V32.1h-2.1l-3.66-5.62v5.62h-2.67V21.73Zm10.78 0h2.67V32.1h-2.67V21.73Zm6.3 10.37c-.6-.12-1.2-.29-1.77-.5l.65-2.25c.48.2.98.38 1.49.5.44.12.9.17 1.35.17.5 0 .86-.07 1.06-.2.2-.14.31-.36.31-.67 0-.2-.03-.36-.1-.48a.8.8 0 0 0-.34-.31 7.42 7.42 0 0 0-.8-.34l-1.53-.57a2.9 2.9 0 0 1-1.54-1.15c-.3-.5-.44-1.1-.44-1.82 0-1 .3-1.73.93-2.2.62-.47 1.66-.7 3.13-.7.62 0 1.17.03 1.66.1.49.05 1.02.14 1.6.26l-.51 2.25c-.92-.27-1.87-.4-2.82-.41-.5 0-.84.05-1.03.15-.19.1-.28.28-.28.55 0 .28.07.48.2.61s.39.27.77.42l1.72.66c.73.28 1.27.66 1.6 1.12.34.47.51 1.05.51 1.74 0 1.12-.35 1.93-1.05 2.45-.7.51-1.7.77-3.02.77-.59 0-1.18-.05-1.76-.15ZM149 23.99h-2.32v8.11h-2.67V24h-2.67v-2.26h8.48l-.82 2.26Zm10.91 7.43-2.66.83-2-2.92a4.42 4.42 0 0 0-.51-.65.63.63 0 0 0-.44-.19c-.18 0-.3.06-.37.18-.08.12-.11.3-.11.56v2.87h-2.67V21.73h4.15c1.4 0 2.42.25 3.05.75.64.5.96 1.3.96 2.4 0 .75-.21 1.37-.63 1.88-.42.5-.92.88-1.49 1.13l2.72 3.53Zm-3.74-5.33c.27-.18.4-.52.4-1.03 0-.5-.12-.83-.38-1a2.27 2.27 0 0 0-1.18-.24h-1.2v2.54H155c.53 0 .92-.09 1.2-.27Zm9.67 2.77v3.24h-2.7v-3.24l-3.3-7.13h2.9l1.5 4.06c.06.16.14.24.25.24.1 0 .19-.08.25-.24l1.5-4.06h2.9l-3.3 7.13Zm14.94-6.06c.79.81 1.18 2.19 1.18 4.14 0 1.33-.18 2.38-.53 3.16a3.25 3.25 0 0 1-1.54 1.66 5.9 5.9 0 0 1-2.57.5c-1.04 0-1.9-.17-2.57-.5a3.24 3.24 0 0 1-1.54-1.66 7.78 7.78 0 0 1-.53-3.16c0-1.95.4-3.33 1.18-4.14.8-.81 1.94-1.22 3.46-1.22s2.67.4 3.46 1.22Zm-2.4 6.83c.26-.18.45-.48.58-.92.12-.43.18-1.03.18-1.8a6.9 6.9 0 0 0-.18-1.8 1.58 1.58 0 0 0-.58-.92 1.87 1.87 0 0 0-1.06-.26c-.45 0-.8.09-1.06.26-.26.18-.45.48-.58.91a6.9 6.9 0 0 0-.18 1.8c0 .78.06 1.38.19 1.81.12.43.3.74.57.92.26.19.61.27 1.06.27.45 0 .8-.09 1.07-.27Zm8.13-5.64v2.07h3.68v2.26h-3.68v3.78h-2.67V21.73h7.2l-.5 2.26h-4.03Zm12.17 0v2.07h3.68v2.26h-3.68v3.78h-2.67V21.73h7.2l-.5 2.26h-4.03Zm13.63-1.2c.79.82 1.18 2.2 1.18 4.15 0 1.33-.18 2.38-.53 3.16a3.25 3.25 0 0 1-1.54 1.66 5.9 5.9 0 0 1-2.57.5 5.9 5.9 0 0 1-2.57-.5 3.23 3.23 0 0 1-1.53-1.66 7.74 7.74 0 0 1-.53-3.16c0-1.95.39-3.33 1.18-4.14.78-.81 1.94-1.22 3.46-1.22 1.5 0 2.66.4 3.45 1.22Zm-2.4 6.84c.27-.18.46-.48.58-.92.12-.43.18-1.03.18-1.8s-.06-1.38-.18-1.8a1.57 1.57 0 0 0-.57-.92 1.88 1.88 0 0 0-1.07-.26c-.45 0-.8.09-1.06.26-.26.18-.45.48-.58.91a6.94 6.94 0 0 0-.18 1.8c0 .78.06 1.38.18 1.81.13.43.32.74.58.92.25.18.61.27 1.06.27.45 0 .8-.09 1.06-.27Zm14.22 1.79-2.65.83-2-2.92a4.42 4.42 0 0 0-.52-.65.62.62 0 0 0-.43-.19c-.18 0-.3.06-.38.18-.07.12-.1.3-.1.56v2.87h-2.68V21.73h4.16c1.4 0 2.41.25 3.05.75.64.5.95 1.3.95 2.4 0 .75-.2 1.37-.63 1.88-.4.48-.9.87-1.48 1.13l2.72 3.53Zm-3.73-5.33c.27-.18.4-.52.4-1.03 0-.5-.13-.83-.39-1a2.27 2.27 0 0 0-1.18-.24h-1.19v2.54h1.16c.53 0 .93-.09 1.2-.27Zm7.73 3.75h4.5v2.26h-7.17V21.72h7.17l-.5 2.27h-4v1.79h2.93v2.17h-2.93v1.9Zm6.22-8.11h2.67V32.1h-2.67V21.73Zm5.56 9.33c-.67-.8-1-2.17-1-4.1 0-1.28.16-2.3.5-3.1.3-.75.88-1.37 1.62-1.72a6.9 6.9 0 0 1 3.02-.56c1.22 0 2.3.1 3.23.33l-.66 2.37c-.49-.12-.91-.21-1.27-.27-.43-.06-.86-.1-1.3-.09-.56 0-1 .07-1.32.2-.32.15-.57.43-.74.87a5.47 5.47 0 0 0-.27 1.96c0 .83.06 1.48.19 1.94.13.46.31.78.55.95.24.18.56.27.96.27.5 0 .86-.16 1.11-.47.25-.3.38-.76.38-1.37v-1.2h2.67v5.03h-2.13l-.07-.85c-.01-.12-.07-.17-.18-.17-.06 0-.13.03-.2.1-.15.11-.29.24-.42.38-.21.22-.47.4-.75.51-.27.12-.67.18-1.19.18a3.4 3.4 0 0 1-2.74-1.2Zm11.8-9.33 3.6 5.8v-5.8H258V32.1h-2.1l-3.66-5.62v5.62h-2.67V21.73h2.16ZM269 29.84h-3.23l-.45 2.26h-2.64l2.14-10.37a51.96 51.96 0 0 1 5.15 0l2.15 10.37h-2.66l-.46-2.26Zm-.43-2.2-.71-3.6c-.06-.26-.22-.4-.48-.4-.25 0-.4.14-.47.4l-.71 3.6h2.38ZM276.4 24v2.07h3.69v2.26h-3.7v3.78h-2.67V21.73h7.22l-.5 2.26h-4.04Zm8.82 0v2.07h3.69v2.26h-3.69v3.78h-2.67V21.73h7.2l-.5 2.26h-4.03Zm11.16 5.85h-3.23l-.46 2.26h-2.64l2.15-10.37a52 52 0 0 1 5.15 0l2.14 10.37h-2.66l-.45-2.26Zm-.43-2.2-.72-3.6c-.06-.26-.21-.4-.47-.4-.25 0-.4.14-.47.4l-.72 3.6h2.38Zm5.16-5.91h2.67V32.1h-2.67V21.73Zm13.78 9.69-2.66.83-2-2.92a4.48 4.48 0 0 0-.51-.65.63.63 0 0 0-.44-.19c-.17 0-.3.06-.37.18s-.11.3-.11.56v2.87h-2.67V21.73h4.15c1.4 0 2.42.25 3.05.75.64.5.96 1.3.96 2.4 0 .75-.21 1.37-.63 1.88-.4.48-.91.87-1.49 1.13l2.72 3.53Zm-3.74-5.33c.27-.18.4-.52.4-1.03 0-.5-.12-.83-.38-1a2.28 2.28 0 0 0-1.19-.24h-1.18v2.54h1.16c.53 0 .93-.09 1.2-.27Zm6.34 6a12.2 12.2 0 0 1-1.76-.48l.64-2.26c.55.23 1.05.4 1.5.5.44.12.89.17 1.35.17.5 0 .85-.07 1.06-.2.2-.14.3-.36.3-.67a1 1 0 0 0-.1-.48.8.8 0 0 0-.34-.31 7.03 7.03 0 0 0-.79-.34l-1.54-.57a2.92 2.92 0 0 1-1.54-1.15c-.3-.5-.44-1.1-.44-1.82 0-1 .3-1.73.93-2.2.62-.47 1.67-.7 3.14-.7.61 0 1.17.03 1.66.1.49.05 1.02.14 1.6.26l-.52 2.25c-.96-.27-1.9-.41-2.81-.41-.5 0-.85.05-1.03.15-.19.1-.28.28-.28.55 0 .28.06.48.2.61.13.13.39.27.77.42l1.71.66c.74.28 1.27.66 1.61 1.12.34.47.5 1.05.5 1.74 0 1.12-.34 1.93-1.04 2.45-.7.51-1.7.77-3.02.77-.59 0-1.18-.05-1.76-.15ZM105.73 39.43c.78.81 1.18 2.2 1.18 4.14 0 1.33-.18 2.39-.53 3.16a3.24 3.24 0 0 1-1.54 1.66c-.67.33-1.53.5-2.57.5-1.04 0-1.9-.17-2.57-.5a3.25 3.25 0 0 1-1.54-1.66 7.78 7.78 0 0 1-.53-3.16c0-1.95.4-3.33 1.18-4.14.8-.81 1.94-1.22 3.46-1.22s2.67.4 3.46 1.22Zm-2.4 6.83c.27-.18.45-.48.58-.91.12-.43.18-1.04.18-1.81s-.06-1.37-.18-1.8a1.56 1.56 0 0 0-.58-.92 1.87 1.87 0 0 0-1.06-.26c-.45 0-.8.09-1.06.26-.26.18-.45.48-.57.91a6.9 6.9 0 0 0-.19 1.81c0 .77.06 1.38.19 1.8.12.44.3.74.57.92.26.19.61.27 1.06.27.45 0 .8-.08 1.06-.27Zm8.13-5.64v2.07h3.69v2.26h-3.69v3.79h-2.67V38.36h7.2l-.5 2.26h-4.03Zm15.75-1.8a3.4 3.4 0 0 1 1.73 1.6c.4.76.6 1.8.6 3.13 0 1.32-.2 2.37-.6 3.12a3.4 3.4 0 0 1-1.73 1.6c-.75.31-1.68.47-2.8.47h-3.45V38.36h3.45a7.4 7.4 0 0 1 2.8.46Zm-1.04 6.99c.37-.45.56-1.2.56-2.25a5.1 5.1 0 0 0-.25-1.8 1.57 1.57 0 0 0-.75-.9 2.94 2.94 0 0 0-1.32-.24h-.78v5.86h.78c.8 0 1.39-.23 1.76-.67Zm7.93.67h4.5v2.26h-7.17V38.36h7.17l-.5 2.26h-4v1.79h2.94v2.17h-2.94v1.9Zm6.22-8.12h2.16l3.6 5.8v-5.8h2.67v10.38h-2.1l-3.66-5.63v5.63h-2.67V38.36Zm22.98 10.38h-2.48l-.25-6.56c0-.11-.05-.17-.15-.17-.07 0-.12.06-.15.17l-1.63 6.56h-3.14l-1.63-6.56c-.03-.11-.08-.17-.14-.17-.1 0-.15.06-.15.17l-.25 6.56h-2.48l.57-10.38c1.32-.1 2.64-.1 3.95 0l1.57 6.99c.03.1.07.14.13.14s.1-.05.13-.14l1.56-7c1.32-.1 2.64-.1 3.96 0l.58 10.39Zm7.69-2.26h-3.23l-.46 2.26h-2.64l2.15-10.38a52.12 52.12 0 0 1 5.15 0l2.14 10.38h-2.66l-.45-2.26Zm-.43-2.2-.72-3.6c-.06-.27-.21-.4-.47-.4-.25 0-.4.13-.47.4l-.72 3.6h2.38Zm13.92 3.77-2.66.83-2-2.92a4.29 4.29 0 0 0-.51-.65.63.63 0 0 0-.44-.18c-.17 0-.3.06-.37.17-.08.12-.11.3-.11.56v2.88h-2.68V38.36h4.16c1.4 0 2.42.25 3.06.76.63.5.95 1.3.95 2.4 0 .74-.21 1.36-.63 1.87-.42.5-.92.88-1.48 1.14l2.71 3.52Zm-3.74-5.32c.27-.18.4-.53.4-1.04 0-.5-.12-.83-.38-.99a2.26 2.26 0 0 0-1.18-.24h-1.2V43h1.17c.52 0 .92-.1 1.2-.27Zm14.12 5.29-2.78.86-2.23-3.37c-.1-.16-.21-.3-.36-.42a.67.67 0 0 0-.42-.14c-.2 0-.34.06-.44.17-.1.11-.16.3-.16.6v3.02h-2.67V38.36h2.67v4.5l3.09-4.5h3.14l-3.5 4.86 3.66 4.8ZM96.62 65.37l.12-.62h.19c.33 0 .63-.06.9-.18.26-.12.44-.42.54-.87l1.52-7.2c.04-.16.06-.3.06-.4 0-.26-.1-.42-.3-.5a2.4 2.4 0 0 0-.76-.1h-.19l.14-.61h4.27l-.14.61h-.19c-.33 0-.63.06-.89.19-.25.12-.43.41-.53.87l-1.53 7.2c-.04.15-.06.29-.06.4 0 .26.1.42.3.49.2.07.45.1.76.1h.2l-.14.62h-4.27Zm12.45.15c-.43 0-.76-.14-1-.41a1.6 1.6 0 0 1-.34-1.06c0-.45.1-1.11.28-1.98l.25-1.15.12-.5c.05-.22.1-.43.13-.65.04-.22.06-.42.06-.6 0-.2-.04-.39-.13-.58-.08-.19-.26-.28-.55-.28-.3 0-.62.1-.91.33-.32.25-.6.54-.84.87-.25.34-.47.7-.66 1.1-.16.31-.28.65-.36 1l-.8 3.76h-1.35l1.23-5.9c.04-.22.07-.44.08-.66 0-.3-.1-.48-.3-.57a1.9 1.9 0 0 0-.72-.12h-.12l.13-.62H106l-.4 1.85h.15a5.9 5.9 0 0 1 1.22-1.47c.41-.34.92-.52 1.45-.51.58 0 .98.16 1.22.49.23.33.35.7.35 1.14 0 .24-.03.5-.1.8l-.16.81-.38 1.73a9.6 9.6 0 0 0-.2 1.55c0 .47.17.7.52.7.28 0 .6-.11.94-.34l.26.43c-.25.2-.5.4-.78.56-.3.2-.66.29-1.01.28Zm4.48-.02-1.03-6.6c-.05-.3-.16-.51-.33-.62-.17-.1-.4-.16-.69-.16h-.14l.11-.62h2.2l.68 4.35.14 1 .12.93.08.67h.04a11.12 11.12 0 0 0 2.49-3.69c.14-.4.22-.75.22-1.04 0-.34-.09-.62-.25-.82a.8.8 0 0 0-.66-.3c0-.4.1-.7.32-.89a1 1 0 0 1 .67-.28c.3 0 .55.1.73.31.18.21.27.56.27 1.05 0 .58-.12 1.18-.37 1.8a11 11 0 0 1-.96 1.85 17.23 17.23 0 0 1-2.33 2.92l-1.32.14Zm8.95.02c-.53 0-1-.12-1.44-.34-.43-.23-.8-.58-1.03-1a3.33 3.33 0 0 1-.4-1.7 5.9 5.9 0 0 1 1.11-3.38c.38-.52.84-.94 1.39-1.26a3.62 3.62 0 0 1 1.88-.49c.62 0 1.1.15 1.44.45.34.3.52.71.52 1.24 0 .52-.19 1-.55 1.45-.37.44-.88.8-1.52 1.08-.64.27-1.37.4-2.2.4h-.5c-.03.21-.03.42-.04.62 0 .64.14 1.13.42 1.48.27.35.67.52 1.2.52.47 0 .9-.11 1.26-.34.36-.22.65-.46.86-.72.1.07.14.2.14.37 0 .22-.09.45-.27.7-.18.25-.46.46-.83.64-.37.19-.85.28-1.44.28Zm-1.17-4.22h.14c.57 0 1.08-.1 1.53-.28.45-.2.8-.46 1.06-.8.26-.33.4-.72.4-1.17 0-.66-.3-.99-.86-.99-.29 0-.56.1-.79.29a2.9 2.9 0 0 0-.65.76 7.45 7.45 0 0 0-.84 2.2Zm7.7 4.22c-.73 0-1.32-.15-1.76-.44-.44-.3-.66-.7-.66-1.22a1 1 0 0 1 .16-.6c.09-.14.22-.23.37-.3.15-.04.28-.07.4-.07 0 .34.05.66.16.95.1.3.28.53.52.7.25.18.58.27.99.27.49 0 .87-.11 1.16-.34.28-.22.42-.56.42-1.02 0-.35-.11-.64-.33-.88-.23-.25-.61-.5-1.15-.74a4.29 4.29 0 0 1-1.3-.89c-.31-.34-.47-.8-.47-1.38 0-.63.25-1.15.76-1.57.5-.41 1.2-.62 2.07-.62.54 0 .97.07 1.3.2.34.14.59.32.75.54.16.2.24.43.24.66 0 .3-.1.54-.3.69-.2.14-.47.22-.8.22 0-.26-.05-.52-.13-.77a1.35 1.35 0 0 0-.4-.62c-.2-.16-.46-.24-.8-.24-.43 0-.78.12-1.04.36a1.2 1.2 0 0 0-.38.9c0 .33.12.6.36.83.24.22.62.45 1.14.68.54.25.97.55 1.29.9.31.35.47.8.47 1.38 0 .71-.27 1.3-.81 1.74a3.4 3.4 0 0 1-2.22.68Zm6.71 0c-1.06 0-1.6-.57-1.6-1.72a5.12 5.12 0 0 1 .15-1.23l.9-4.23h-1.12l.13-.59c.42 0 .83-.15 1.22-.46.39-.3.73-.84 1.03-1.6h.67l-.38 1.82h1.78l-.18.83h-1.78l-.9 4.18-.12.7c-.03.22-.05.41-.05.57 0 .28.07.49.2.61.15.13.34.2.58.2a3.07 3.07 0 0 0 1.2-.33l.25.54c-.29.21-.6.38-.94.51-.33.13-.68.2-1.04.2Zm8.81 0c-.4 0-.7-.14-.9-.41a1.57 1.57 0 0 1-.32-.99c0-.2.02-.45.06-.73a28.73 28.73 0 0 1 .26-1.57l.58-2.7c.03-.15.04-.28.04-.38 0-.27-.08-.44-.24-.51a1.61 1.61 0 0 0-.66-.11h-.19l.14-.62h2.63l-1 4.71-.1.47a8.37 8.37 0 0 0-.12 1.16c0 .5.16.75.48.75.16 0 .32-.04.5-.1.19-.08.37-.17.56-.28l.26.43c-.27.23-.56.43-.88.58-.37.2-.74.3-1.1.3Zm1.01-9.49a.86.86 0 0 1-.6-.2c-.14-.13-.22-.33-.22-.6 0-.3.08-.55.24-.74a.8.8 0 0 1 .64-.3c.23 0 .43.07.59.2.15.14.23.34.23.62 0 .38-.1.64-.28.8a.94.94 0 0 1-.6.22Zm7.93 9.49c-.43 0-.76-.14-1-.41a1.6 1.6 0 0 1-.34-1.06c0-.45.1-1.11.28-1.98l.25-1.15.12-.5c.05-.22.1-.43.13-.65.04-.22.06-.42.06-.6 0-.2-.04-.39-.13-.58-.08-.19-.26-.28-.55-.28-.3 0-.62.1-.91.33-.32.25-.6.54-.84.87-.25.34-.47.7-.66 1.1-.18.37-.3.7-.36 1l-.8 3.76h-1.36l1.24-5.9a3.98 3.98 0 0 0 .09-.66c0-.3-.1-.48-.31-.57a1.9 1.9 0 0 0-.72-.12h-.12l.13-.62h2.72l-.4 1.85h.15c.4-.65.8-1.14 1.22-1.47.42-.34.9-.51 1.45-.51.58 0 .98.16 1.22.49.23.33.35.7.35 1.14 0 .24-.03.5-.1.8l-.17.81-.38 1.73a9.7 9.7 0 0 0-.19 1.55c0 .47.17.7.51.7.29 0 .6-.11.94-.34l.27.43c-.25.2-.51.4-.79.56-.3.2-.65.29-1 .28Zm5.55-.15.12-.62h.19c.33 0 .63-.06.9-.18.26-.12.44-.42.54-.87l1.52-7.2c.04-.13.06-.27.06-.4 0-.27-.1-.44-.33-.5-.24-.07-.48-.1-.73-.1h-.19l.13-.61h4.12c1.32 0 2.34.34 3.07 1.02.73.68 1.1 1.67 1.1 2.97a8 8 0 0 1-.39 2.48 6.23 6.23 0 0 1-1.13 2.08c-.5.6-1.13 1.09-1.84 1.42-.73.34-1.56.5-2.52.5h-4.62v.01Zm4.3-.75c.96 0 1.78-.25 2.47-.76.7-.5 1.22-1.2 1.58-2.08.36-.88.54-1.9.54-3.06 0-1.07-.25-1.85-.75-2.35s-1.18-.75-2.04-.75h-1.16l-1.92 9h1.28Zm10.14.9c-.5 0-.99-.11-1.43-.34-.44-.23-.8-.58-1.04-1a3.33 3.33 0 0 1-.39-1.7 5.83 5.83 0 0 1 1.12-3.38c.37-.52.83-.94 1.37-1.26a3.61 3.61 0 0 1 1.89-.49c.62 0 1.1.15 1.44.45.34.3.51.71.51 1.24 0 .52-.19 1-.55 1.45-.37.44-.87.8-1.51 1.08-.64.27-1.38.4-2.2.4h-.51l-.03.62c0 .64.13 1.13.41 1.48.27.35.68.52 1.2.52.47 0 .89-.11 1.26-.34.36-.22.65-.46.85-.72.1.07.15.2.15.37 0 .22-.09.45-.27.7-.18.25-.46.46-.83.64-.37.19-.85.28-1.44.28Zm-1.02-4.22c.56 0 1.07-.1 1.52-.28.42-.17.79-.44 1.07-.8.26-.33.39-.72.39-1.17 0-.66-.29-.99-.86-.99-.28 0-.54.1-.78.29-.26.21-.48.47-.66.76a7.45 7.45 0 0 0-.84 2.2h.16Zm11.52 4.22c-.43 0-.76-.14-1-.41a1.6 1.6 0 0 1-.34-1.06c0-.45.1-1.11.28-1.98l.25-1.15.12-.5c.05-.22.1-.43.13-.65.04-.22.06-.42.06-.6 0-.2-.04-.39-.13-.58-.08-.19-.26-.28-.54-.28-.32 0-.63.1-.92.33-.32.25-.6.54-.84.87-.25.34-.47.7-.66 1.1-.18.37-.3.7-.36 1l-.8 3.76h-1.36l1.24-5.9a3.98 3.98 0 0 0 .08-.66c0-.3-.1-.48-.3-.57a1.88 1.88 0 0 0-.73-.12h-.11l.13-.62h2.72l-.4 1.85h.15c.4-.65.8-1.14 1.22-1.47.41-.34.92-.52 1.45-.51.58 0 .98.16 1.22.49.23.33.35.7.35 1.14 0 .24-.03.5-.1.8l-.17.81-.38 1.73a9.2 9.2 0 0 0-.19 1.55c0 .47.17.7.51.7.3 0 .6-.11.94-.34l.27.43c-.25.2-.51.4-.79.56-.3.2-.65.29-1 .28Zm13.15 0c-.43 0-.76-.14-.99-.41a1.6 1.6 0 0 1-.34-1.06c0-.45.09-1.11.27-1.98l.25-1.15a45.32 45.32 0 0 1 .25-1.15c.05-.22.06-.42.06-.6 0-.2-.04-.39-.12-.58-.08-.19-.27-.28-.55-.28s-.57.1-.85.28c-.28.2-.54.44-.78.74a5.86 5.86 0 0 0-1.06 1.96l-.23 1.05a18.25 18.25 0 0 0-.26 1.55 78.36 78.36 0 0 0-.17 1.48h-1.4c0-.12.03-.31.06-.58l.12-.91c.1-.61.2-1.22.33-1.82l.25-1.14c.03-.13.06-.3.12-.5l.13-.65c.04-.22.06-.42.06-.6 0-.2-.04-.4-.13-.58-.08-.2-.27-.29-.55-.29-.31 0-.62.12-.92.34-.32.25-.6.54-.84.87-.25.35-.47.71-.66 1.09-.18.38-.3.71-.36 1l-.79 3.77h-1.36l1.23-5.9a3.53 3.53 0 0 0 .09-.67c0-.29-.1-.48-.31-.56a1.88 1.88 0 0 0-.72-.13h-.12l.13-.61h2.72l-.4 1.85h.15c.4-.65.81-1.14 1.23-1.48.4-.33.92-.51 1.44-.5.58 0 .99.16 1.22.49.27.38.4.85.35 1.31l-.02.18h.14c.4-.65.8-1.14 1.22-1.48.4-.33.92-.51 1.45-.5.58 0 .99.16 1.22.49.24.32.35.7.35 1.14 0 .24-.03.5-.1.8l-.16.8-.38 1.74a9.6 9.6 0 0 0-.2 1.54c0 .47.18.7.52.7.28 0 .6-.1.94-.33l.26.43c-.24.2-.5.4-.78.56-.29.18-.62.28-1 .28Zm4.57 0c-.43 0-.79-.12-1.07-.36-.29-.23-.5-.55-.63-.96-.13-.44-.2-.9-.2-1.37a6.16 6.16 0 0 1 .74-2.91c.24-.48.54-.91.9-1.3.34-.38.75-.7 1.21-.92a3.37 3.37 0 0 1 2.5-.2c.3.1.55.23.75.38l.64-.37h.47l-1 4.7-.09.47a8.91 8.91 0 0 0-.13 1.16c0 .5.16.75.49.75.15 0 .32-.04.5-.11s.37-.16.55-.27l.27.42a4.29 4.29 0 0 1-1.3.74c-.27.1-.53.15-.77.15-.35 0-.63-.11-.84-.33-.2-.21-.3-.51-.3-.9 0-.19 0-.37.03-.53l.11-.6h-.09a5.23 5.23 0 0 1-1.2 1.74c-.45.41-.96.62-1.54.62Zm.53-.93c.25 0 .51-.1.78-.3.27-.19.53-.45.77-.78a6.22 6.22 0 0 0 1.04-2.37l.55-2.6a1 1 0 0 0-.47-.4c-.2-.08-.43-.12-.65-.12-.4 0-.74.1-1.06.33-.32.23-.6.53-.82.87a7.39 7.39 0 0 0-1.07 3.67c0 .6.09 1.04.26 1.3.18.27.4.4.67.4Zm6.09.78 1.23-5.9c.05-.22.08-.44.09-.66 0-.3-.13-.48-.38-.57a2.5 2.5 0 0 0-.8-.12h-.11l.13-.62h2.6l-.3 2.12h.14c.18-.4.38-.78.6-1.12.2-.33.47-.6.78-.83.3-.21.67-.32 1.11-.32.41 0 .72.1.91.29.2.19.3.43.3.73 0 .34-.1.61-.29.81-.19.2-.5.3-.93.3 0-.35-.04-.63-.12-.84-.08-.21-.23-.32-.47-.32-.25 0-.5.14-.77.4-.26.26-.5.61-.73 1.05a11.24 11.24 0 0 0-1.06 2.93l-.56 2.67h-1.37Zm13.78.1a5.79 5.79 0 0 1-1.3-.14c-.31-.08-.59-.23-.81-.46-.2-.21-.39-.52-.55-.9l-.95-2.36-1.33.86-.6 2.9h-1.37l1.9-9.07.1-.5.04-.28c0-.3-.1-.48-.3-.56a1.9 1.9 0 0 0-.73-.13h-.12l.13-.62h2.7l-.56 2.7-.23 1.05a86.93 86.93 0 0 1-.92 3.79l2.33-2.03c.4-.34.67-.61.83-.8.16-.2.24-.37.24-.5s-.04-.21-.13-.25c-.1-.03-.27-.05-.51-.05l.13-.62h3.24l-.13.62c-.33 0-.69.12-1.07.36a9.8 9.8 0 0 0-1.3 1l-1.33 1.24 1.34 2.9c.16.37.36.66.59.9.22.22.53.34.9.34l-.13.61h-.1Z"/><path fill-rule="evenodd" d="M33.55 37.1v-.53h.68c.3 0 .48.06.48.34v.61l.02.58c0 .23-.13.34-.38.34h-.49c-.33 0-.66-.04-.84-.3a5.3 5.3 0 0 0-.06 1.94 6.36 6.36 0 0 0 3.42-1.4l1.43-1.24a5.15 5.15 0 0 1-1.65-1.83c-.15-.17-.3-.22-.32-.23l.6-1.12-.16-.1-.72.5c-.14.1-.22.05-.28-.06l-.4-.86h-.14l-.4.86c-.07.11-.15.16-.28.07l-.72-.52-.17.11.6 1.1-.73.05c-.13 0-.25.09-.25.27v.47c0 .76.76.96.76.96Zm1.19-1.6H34c-.04 0-.13.06-.12.2.02.13.04.25.34.16.2-.06.38-.2.52-.36Z" clip-rule="evenodd"/><path d="M26.75 38.16a.63.63 0 0 1 .63.63v.07H28l-.02-.07a.63.63 0 0 1 .88-.59.63.63 0 0 1 .4.59c0 .54-.52.99-.95 1.25-.32.2-.63.48-.63.48s-.3-.29-.62-.48c-.43-.26-.95-.71-.95-1.25 0-.35.29-.63.64-.63ZM27.18 36.2l.1.15s.27-.04.49-.05c.14 0 .2.03.3.13l.54.53c.78.76 2.11 2.04 3.24 3.3l.54-.08a7.15 7.15 0 0 1-.04-1.62 234.8 234.8 0 0 1-3.23-2.84c-.12-.14-.15-.24-.12-.36l.14-.48-.1-.11-.51.18a.65.65 0 0 1-.4 0c-.2-.07-.53-.23-.53-.23l-.17.13s.08.3.11.51a.62.62 0 0 1-.09.38c-.1.2-.27.45-.27.45Z"/><path d="M27.37 42.47c.1.05.2.15.28.28l.28.46.21-.03s.05-.2.16-.37c.08-.12.17-.18.47-.22l.68-.08c1.28-.14 3.96-.44 5.67-.7v.37c1.52-.2 2.73-1.01 3.89-1.78 1.17-.79 2.27-1.52 3.55-1.52.81 0 1.38.35 1.97 1.1l.1.11c.49.64.61.8 1.46.8h1.47l.93 1.06c.1.15.12.26.07.38-.03.1-.2.45-.2.45l.1.13s.3-.08.52-.12c.14-.03.27-.01.4.05.2.1.5.29.5.29l.18-.11-.04-.56c0-.12.03-.25.1-.35.12-.19.33-.47.33-.47l-.1-.15s-.22.03-.43.01c-.14 0-.26-.05-.44-.28l-1.16-1.44c-1.47 0-1.63-.22-1.97-.92 1.55-.04 1.95-.59 1.95-1.4 0-.82-.7-1.22-1.91-1.22h-1.66l-1.38.01c-.65 0-1.02-.06-1.02-.49s.3-.57 2.12-.57c1.09 0 2.5.04 2.5.04l.03.02c.37.3.4.33.7.34h1.3v-.38c.07.04.21.04.36.04h.06c1.39 0 2.13-.98 2.13-.98l-.12-.11s-.71.44-2.05.44h-.02c-.16 0-.3 0-.37.03v-.42H47.7c-.3 0-.38.06-.72.3l-.04.03s-1.84-.04-2.74-.04c-2.22 0-2.84.45-2.84 1.27 0 .81.66 1.2 1.88 1.2h3.04c.66 0 1.02.06 1.02.5 0 .42-.28.54-1.34.54-.29 0-.56-.06-.87-.12-.4-.07-.84-.16-1.44-.16-.97 0-1.52.07-2.06.14l-.32.04s-.74.1-1.3.1c-.55-.02-1.09-.12-1.6-.31l-.33.28-1.3 1.12a6.96 6.96 0 0 1-3.7 1.55c-.26.04-4.34.72-4.5.73-.15.02-.28 0-.37-.1l-.33-.38-.17.03s-.06.3-.12.5a.62.62 0 0 1-.23.32c-.18.13-.5.3-.5.3l.01.2.54.22ZM31.13 36.04s.75.83 1.64 1.12c.45.14.93.14 1.25.14h.04c.15 0 .25.04.25.33 0 .3-.04.35-.26.35-.68 0-1.14-.11-1.5-.26-1.11-.46-1.5-1.6-1.5-1.6l.07-.08Z"/><path d="M38.09 34.65c.34 0 .63.28.63.63l-.01.08h.62v-.08a.63.63 0 0 1 .63-.63c.35 0 .63.28.63.63 0 .54-.52 1-.95 1.25-.32.2-.62.49-.62.49s-.3-.3-.62-.49c-.43-.26-.95-.7-.95-1.25a.63.63 0 0 1 .63-.63ZM49.44 38.16c.35 0 .64.28.64.63l-.01.07h.62l-.01-.08a.63.63 0 0 1 .63-.63c.35 0 .64.29.64.63 0 .55-.52 1-.95 1.25-.32.2-.62.5-.62.5s-.3-.3-.63-.5c-.43-.26-.95-.7-.95-1.25 0-.34.29-.62.64-.62ZM40.18 41.49c-.19-.02-.28-.05-.36-.16l-.28-.41h-.17l-.18.49a.6.6 0 0 1-.27.28 6.3 6.3 0 0 1-.53.23l-.03.2s.33.17.52.29c.11.06.18.17.24.31l.23.5h.21s.07-.2.2-.35c.1-.1.17-.19.48-.19h1.68c.42 0 .57-.09.84-.31.64-.52 1.73-1.53 1.73-1.53l-.33-.41c-.17-.22-.32-.4-.48-.54-.24-.2-.36-.2-.63-.2h-.77v-.46s-.89.44-.89.97c0 .23.36.64.76 1.1l.1.12.07.07h-2.14ZM49.37 45.03c-.17 0-.32 0-.4.04v-.42H47.7c-.3 0-.38.06-.73.3l-.03.02s-1.83-.04-2.74-.04c-2.22 0-2.84.46-2.84 1.27 0 .82.67 1.2 1.88 1.2h3.04c.66 0 1.02.07 1.02.5s-.28.54-1.34.54c-.29 0-.56-.05-.87-.11a7.1 7.1 0 0 0-1.44-.16c-.96 0-1.5.07-2.04.13l-.33.05s-.74.09-1.31.09c-.53 0-1.11-.12-1.6-.3l-.64.55-.99.85a6.95 6.95 0 0 1-3.7 1.54l-4.49.74c-.16.02-.29-.02-.38-.1l-.33-.39-.16.03-.13.51a.63.63 0 0 1-.23.32c-.18.12-.5.3-.5.3l.02.2.53.21c.1.05.2.15.28.29.1.18.28.45.28.45l.21-.03s.05-.19.16-.37c.08-.11.17-.18.47-.22l.81-.1c1.32-.14 3.89-.42 5.54-.67v.36c1.52-.2 2.73-1.01 3.88-1.78 1.17-.78 2.28-1.52 3.56-1.52.8 0 1.38.35 1.97 1.1l.09.11c.5.64.62.8 1.47.8h1.47l.93 1.06c.1.15.11.26.07.38-.03.1-.2.46-.2.46l.1.12s.3-.08.52-.12c.14-.03.27 0 .4.05.2.1.5.29.5.29l.18-.11s-.04-.34-.04-.55c0-.13.03-.26.1-.36.12-.19.33-.47.33-.47l-.1-.15s-.22.03-.43.02c-.14-.02-.26-.06-.44-.29l-1.16-1.43c-1.47 0-1.63-.23-1.98-.92 1.55-.05 1.96-.6 1.96-1.41 0-.82-.7-1.22-1.91-1.22h-1.66l-1.38.01c-.65 0-1.02-.06-1.02-.49s.3-.57 2.12-.57c1.08 0 2.5.04 2.5.04l.04.03c.36.3.4.32.69.34h1.3v-.39c.07.05.22.05.37.05h.05c1.39 0 2.13-.99 2.13-.99l-.13-.1s-.7.43-2.04.43Z"/><path d="M49.44 48.59c.35 0 .64.28.64.63l-.01.07h.62l-.01-.07a.63.63 0 0 1 1.27 0c0 .54-.52.98-.95 1.25-.32.2-.62.48-.62.48s-.3-.29-.63-.48c-.43-.27-.95-.71-.95-1.25 0-.35.29-.63.64-.63ZM40.18 51.92c-.19-.01-.28-.05-.36-.16l-.28-.41h-.17l-.18.49a.6.6 0 0 1-.27.28c-.2.1-.53.23-.53.23l-.03.2s.33.17.52.29c.11.07.18.17.24.31l.23.5h.21s.07-.19.2-.35c.1-.1.17-.18.48-.18h1.68c.42 0 .57-.1.84-.32.64-.52 1.73-1.52 1.73-1.52l-.33-.42c-.17-.22-.32-.4-.48-.53-.24-.2-.36-.2-.63-.2h-.77v-.47s-.89.44-.89.97c0 .23.36.65.77 1.1v.01l.04.04.12.14h-2.14ZM38.09 45.08c.34 0 .63.28.63.63l-.01.08h.62v-.08c0-.35.27-.63.63-.63.35 0 .63.28.63.63 0 .54-.52.99-.95 1.25-.32.2-.62.49-.62.49s-.3-.3-.62-.49c-.43-.26-.95-.7-.95-1.25a.63.63 0 0 1 .63-.63Z"/><path fill-rule="evenodd" d="M34.35 48.88h-.49c-.33 0-.66-.05-.84-.32a5.32 5.32 0 0 0-.06 1.95 6.35 6.35 0 0 0 3.42-1.4l1.43-1.24a5.14 5.14 0 0 1-1.56-1.7.74.74 0 0 0-.41-.36l.6-1.12-.16-.1-.72.5c-.14.1-.22.05-.28-.06l-.4-.86h-.15l-.4.86c-.06.11-.14.16-.27.07l-.73-.52-.16.11.6 1.11-.73.04c-.13 0-.25.1-.25.28v.47c0 .75.76.95.76.95v-.53h.68c.3 0 .48.05.48.33v.62l.02.57c0 .23-.13.35-.38.35Zm-.46-2.76c.01.14.03.27.33.17.29-.1.49-.31.52-.36a15 15 0 0 0-.74 0c-.04 0-.13.06-.11.2Z" clip-rule="evenodd"/><path d="m27.18 46.62.1.16s.27-.04.49-.05c.14 0 .2.03.3.14.12.1.29.27.5.48.78.76 2.13 2.06 3.28 3.35l.54-.1a7.16 7.16 0 0 1-.04-1.61c-1.25-1.1-3.16-2.76-3.23-2.84-.12-.14-.15-.24-.12-.36l.14-.48-.1-.12-.51.2a.65.65 0 0 1-.4-.01l-.53-.23-.17.13s.08.3.11.51a.63.63 0 0 1-.09.38c-.1.2-.27.45-.27.45ZM31.13 46.47s.75.83 1.64 1.12c.45.14.93.14 1.25.14h.04c.15 0 .25.04.25.33 0 .29-.04.35-.26.35a3.8 3.8 0 0 1-1.5-.26c-1.11-.46-1.5-1.6-1.5-1.6l.07-.08ZM26.75 48.59a.63.63 0 0 1 .63.63v.07H28l-.02-.07a.63.63 0 0 1 .88-.59.63.63 0 0 1 .4.59c0 .54-.52.98-.95 1.25-.32.2-.63.48-.63.48s-.3-.29-.62-.48c-.43-.27-.95-.71-.95-1.25 0-.35.29-.63.64-.63ZM31.85 61.1l.54-.08a7.16 7.16 0 0 1-.04-1.62l-.1-.08c-1.25-1.1-3.06-2.68-3.13-2.76-.12-.15-.15-.24-.12-.37l.14-.47-.1-.12-.51.19a.65.65 0 0 1-.4 0l-.53-.24-.17.13s.08.3.11.52a.62.62 0 0 1-.09.38c-.1.2-.27.45-.27.45l.1.16s.27-.04.49-.05c.14 0 .2.03.3.13l.53.51c.78.76 2.12 2.05 3.25 3.32ZM26.75 59a.63.63 0 0 1 .63.62v.08H28l-.02-.08a.63.63 0 0 1 .88-.58.63.63 0 0 1 .4.58c0 .54-.52.99-.95 1.25-.32.2-.63.49-.63.49s-.3-.3-.62-.49c-.43-.26-.95-.7-.95-1.25 0-.35.29-.63.64-.63Z"/><path d="M48.98 55.47v-.42H47.7c-.3 0-.4.06-.74.3l-.03.03s-1.83-.05-2.74-.05c-2.22 0-2.84.46-2.84 1.28 0 .81.67 1.2 1.88 1.2h1.66l1.38-.01c.66 0 1.02.07 1.02.5s-.28.55-1.34.55c-.29 0-.56-.06-.87-.12-.4-.07-.84-.16-1.44-.16-.96 0-1.5.07-2.04.14l-.33.04s-.74.1-1.31.1c-.55-.02-1.09-.12-1.6-.31l-.64.55-.99.85a6.95 6.95 0 0 1-3.7 1.55c-.26.04-2.96.5-3.11.51-.16.02-.3 0-.38-.1l-.33-.38-.17.03-.12.5a.61.61 0 0 1-.23.32c-.18.13-.5.3-.5.3l.01.2.54.22c.1.04.2.15.27.28l.29.46.21-.03s.05-.2.16-.37c.08-.12.17-.18.47-.23l.56-.05c.92-.08 2.74-.25 4.41-.5v.37c1.52-.2 2.74-1.01 3.89-1.78 1.17-.79 2.27-1.52 3.55-1.52.81 0 1.38.35 1.97 1.1l.09.1c.5.65.62.8 1.47.8h1.37l.5 1.06c.05.17.03.28-.05.38l-.34.37.06.15.54.05c.13.01.26.07.36.17.15.15.38.43.38.43l.21-.05s.07-.34.13-.54c.04-.13.1-.24.21-.31.17-.14.46-.34.46-.34l-.06-.18s-.2-.04-.4-.12c-.14-.05-.24-.13-.34-.4l-.8-1.77c-1.46 0-1.63-.22-1.97-.92 1.55-.05 1.95-.6 1.95-1.4 0-.82-.7-1.22-1.9-1.22h-3.05c-.65 0-1.02-.05-1.02-.48s.3-.57 2.12-.57c1.09 0 2.51.04 2.51.04l.04.03c.35.29.39.31.68.33h1.3v-.38c.08.04.22.04.36.04h.06c1.4 0 2.13-.98 2.13-.98L51.4 55s-.7.44-2.04.44h-.03c-.16 0-.3 0-.37.03Z"/><path fill-rule="evenodd" d="M33.04 56.24c-.13 0-.25.1-.25.28v.47c0 .75.76.95.76.95v-.53h.68c.3 0 .48.05.48.34v.6l.02.59c0 .23-.13.34-.38.34h-.48c-.34 0-.67-.05-.85-.31a5.32 5.32 0 0 0-.06 1.95 6.34 6.34 0 0 0 3.42-1.42l1.43-1.23a5.15 5.15 0 0 1-1.56-1.7c-.15-.27-.37-.34-.4-.35h-.01l.6-1.13-.16-.1-.72.51c-.14.1-.22.04-.27-.07l-.4-.85h-.15l-.4.85c-.07.12-.14.17-.28.07l-.72-.52-.17.12.6 1.1-.73.04Zm1.7.1H34c-.04 0-.13.05-.12.19.02.13.04.26.34.17.29-.1.49-.32.52-.37Z" clip-rule="evenodd"/><path fill-rule="evenodd" d="M78 78H0V0h78v78ZM24.71 57.48c.06 5.49 2.08 10.34 14.32 10.34 12.25 0 14.27-4.85 14.32-10.34V31.92H24.72v25.56Zm23.72-42.82c.4-.13.91-.25 1.7-.25 2.36 0 3.77 1.09 3.77 2.91 0 1.1-.53 1.79-1.11 2.54-.53.68-1.08 1.4-1.33 2.5-.86.23-1.89 1.01-1.89 2.44v.47H28.49v-.47a2.47 2.47 0 0 0-1.89-2.44 6.12 6.12 0 0 0-1.32-2.5c-.59-.75-1.12-1.45-1.12-2.54 0-1.82 1.4-2.91 3.77-2.91.79 0 1.3.12 1.7.24.6-1.32 1.55-1.92 3.56-1.92.95 0 1.77.38 2.56.76.76.36 1.5.7 2.3.7v-.82s-1.37-.52-1.37-1.73c0-.92.58-1.67 1.8-1.85V7.82h-1.94V6.78h1.93v-2h1.17v2h1.93v1.04h-1.93V9.8c1.18.19 1.74.93 1.74 1.84 0 1.2-1.37 1.73-1.37 1.73v.83c.8 0 1.54-.35 2.3-.7.8-.38 1.61-.77 2.57-.77 2 0 2.96.6 3.55 1.92Zm.54 7.82c-.27.64-.54.74-1 .74H45.3c0-1.41.93-2.65 1.83-3.85.85-1.14 1.68-2.25 1.68-3.45 0 0 .34-.13 1.02-.13.92 0 2.05.36 2.05 1.52 0 1.17-.86 2.28-1.68 3.33-.5.64-.97 1.26-1.22 1.84Zm-6.51.74h-2.13s.71-1.5.71-4-.7-3.7-.7-3.7c.5-.04 1.1-.26 1.71-.49.82-.3 1.7-.63 2.5-.61 1.1.02 1.85.59 1.85 1.81 0 .91-.61 1.74-1.3 2.66-.73 1-1.55 2.11-1.75 3.56-.08.54-.37.77-.89.77Zm-6.86 0c-.51 0-.8-.23-.88-.77-.2-1.45-1.03-2.56-1.76-3.56-.68-.92-1.3-1.75-1.3-2.66 0-1.22.75-1.8 1.85-1.81.8-.02 1.68.3 2.5.61.62.23 1.21.45 1.7.5 0 0-.69 1.19-.69 3.7 0 2.5.71 3.99.71 3.99H35.6Zm-5.51 0c-.46 0-.73-.1-1-.74a8.98 8.98 0 0 0-1.22-1.84c-.81-1.04-1.68-2.16-1.68-3.33 0-1.16 1.13-1.51 2.05-1.51.68 0 1.02.12 1.02.12 0 1.2.83 2.31 1.69 3.45.9 1.2 1.82 2.44 1.82 3.85H30.1Zm19.44 6.82v-2.88h-21v2.88h21Z" clip-rule="evenodd"/><path d="M31.13 56.88s.75.82 1.64 1.11c.45.15.92.15 1.24.15h.05c.15 0 .25.04.25.33 0 .29-.04.35-.26.35a3.8 3.8 0 0 1-1.5-.26c-1.11-.46-1.5-1.6-1.5-1.6l.07-.08ZM38.09 55.49c.34 0 .63.28.63.63l-.01.07h.62v-.07c0-.35.27-.63.63-.63.35 0 .63.28.63.63 0 .54-.52.98-.95 1.25-.32.2-.62.48-.62.48s-.3-.29-.62-.48c-.43-.27-.95-.71-.95-1.25a.63.63 0 0 1 .63-.63ZM49.44 59c.35 0 .64.27.64.62l-.01.08h.62l-.01-.08a.63.63 0 0 1 1.27 0c0 .54-.52.99-.95 1.25-.32.2-.62.49-.62.49s-.3-.3-.63-.49c-.43-.26-.95-.7-.95-1.25 0-.35.29-.63.64-.63ZM43.68 60.73c-.24-.2-.36-.2-.63-.2h-.66v-.47s-.81.45-.81.97c0 .21.24.57.57.97l-1.03.7c-.16.1-.25.11-.36.06a12.5 12.5 0 0 1-.42-.21l-.12.09.08.5a.64.64 0 0 1-.07.39c-.1.19-.3.47-.3.47l.07.18.55-.02c.1 0 .22.06.34.15l.4.3.17-.1s-.03-.2 0-.4c.01-.14.05-.24.27-.4l2.71-2.08-.16-.2-.05-.07-.07-.1a3.34 3.34 0 0 0-.49-.53Z"/></svg>