<svg xmlns="http://www.w3.org/2000/svg" width="419" height="93" fill="currentColor" viewBox="0 0 419 93"><path fill-rule="evenodd" d="M288.14 46.5c0 46.24 0 46.5.78 46.5s.78-.26.78-46.5 0-46.5-.78-46.5c-.77 0-.78.26-.78 46.5ZM38.33 20.08c-2.25 3.53-4.04 6.58-4 6.78.14.5 16.02 24.99 16.58 25.54.34.34 3.35-1.04 12.49-5.73 6.62-3.4 12.08-6.14 12.14-6.08.06.06-5.46 8.68-12.27 19.16L50.89 78.8l8.38.1c4.78.06 8.54-.05 8.74-.25.61-.61 42.22-64.83 42.1-64.97-.07-.07-11.36 5.66-25.1 12.75A1489.4 1489.4 0 0 1 59.73 39.3c-.17 0-4.05-5.78-8.62-12.84-4.57-7.06-8.4-12.83-8.5-12.82-.1 0-2.03 2.9-4.28 6.44Zm92.74.46-12.51 6.5L106 46.48C99.1 57.17 93.46 66.1 93.46 66.32c0 .23 1.86 3.26 4.14 6.74l4.14 6.32h33.86l-1.68-2.63c-.93-1.44-2.85-4.42-4.28-6.61l-2.58-3.99h-16.7L122.9 46.8l12.54-19.36 16.8-.1 16.82-.1-4.09 6.26a166.5 166.5 0 0 0-4.18 6.58c-.15.54 8.38 13.3 8.67 12.97.16-.17 3.99-6.06 8.52-13.09l8.24-12.77-4.2-6.59-4.2-6.58-17.11.01-17.12.02-12.52 6.5Zm84.5-.1-12.45 6.34-4.17 6.36c-2.3 3.5-4.18 6.5-4.19 6.7 0 .18 1.85 3.3 4.11 6.9l4.12 6.57h33.73l.9 1.46c.48.8 2.4 3.8 4.25 6.65l3.37 5.18 4.14-6.6c2.27-3.62 4.13-6.78 4.13-7 0-.24-1.82-3.2-4.05-6.6l-4.05-6.2-10.02-.25c-5.51-.14-13.15-.26-16.98-.26h-6.96l4.2-6.21 4.2-6.21 16.93-.02 16.93-.02 4.08-6.28a234.7 234.7 0 0 0 4.22-6.62c.07-.17-7.55-.3-16.93-.28l-17.06.05-12.45 6.34ZM18.11 51.29c-3.95 6.14-9.59 14.89-12.54 19.44L.21 79.01l8.64-.1 8.64-.11 8.1-12.45c4.46-6.85 8.2-12.67 8.32-12.94.21-.47-7.88-13.35-8.37-13.31-.14.01-3.48 5.04-7.43 11.19Zm121.78-4.4a97.2 97.2 0 0 0-4.04 6.64c.11.65 25.2 38.64 25.43 38.5.31-.19 8.12-12.32 8.23-12.79.1-.39-24.97-38.77-25.3-38.77-.13 0-2.07 2.9-4.32 6.42Zm41.87 13.2-4.13 6.4 4.15 6.45 4.15 6.44h25.43c13.98 0 25.42-.09 25.42-.2 0-.1-1.84-3.05-4.09-6.55l-4.08-6.36-4.15-.25a434.3 434.3 0 0 0-17.06-.26h-12.92l-4-6.03c-2.2-3.32-4.14-6.03-4.3-6.03-.16 0-2.15 2.88-4.42 6.4Z" clip-rule="evenodd"/><path d="M330.1 15.95c-1.4 0-1.56-.1-1.56-.98 0-.95.07-.97 2.92-.97h2.92v12.06h1.56c1.4 0 1.55.1 1.55.98V28h-8.95v-.97c0-.88.16-.98 1.56-.98h1.55v-10.1h-1.55Zm45.53 0c-1.4 0-1.56-.1-1.56-.98 0-.95.06-.97 2.92-.97h2.92v12.06h1.55c1.4 0 1.56.1 1.56.98V28h-8.95v-.97c0-.88.16-.98 1.56-.98h1.55v-10.1h-1.55ZM305.2 28V14.74l1.6.12c1.56.12 1.65.2 2.4 2.17.42 1.12.88 2.04 1.01 2.04s.6-.92 1.03-2.04c.74-1.91.88-2.05 2.24-2.17l1.44-.12v13.28h-2.4l.13-4.87c.07-2.67.11-4.86.09-4.86-.03 0-.62 1.52-1.33 3.39l-1.28 3.39-1.27-3.3-1.28-3.29-.03 4.77-.02 4.77h-2.34Zm48.04-.9a5.63 5.63 0 0 1 .24-8.2 4.44 4.44 0 0 1 5.89.12l1.27 1.14-1.07.48c-.9.41-1.17.39-1.78-.16-1.79-1.62-3.57-.27-3.57 2.7 0 1.69.16 2.17.87 2.67 1.15.8 2.09.76 2.97-.12.67-.67 1.3-.63 2.3.14.06.04 0 .38-.14.74-.38.97-2.24 1.79-4.07 1.79-1.31 0-1.86-.25-2.9-1.3Zm10.68.3c-.85-.91-.95-1.4-1.07-5.06l-.14-4.06h2.8v3.62c0 3.8.29 4.55 1.75 4.55s1.75-.74 1.75-4.55v-3.62h2.72v9.73h-1.36c-.75 0-1.36-.19-1.36-.41 0-.23-.38-.15-.87.2a3.24 3.24 0 0 1-4.22-.4Zm34.47-7.17c-1.2 0-1.36-.12-1.36-.98 0-.93.09-.97 2.53-.97h2.53v2.4l1-1.2c.77-.9 1.33-1.2 2.34-1.2 1.15 0 1.32.13 1.32.97 0 .87-.15.98-1.48.98-2.3 0-2.9.68-3.1 3.45l-.18 2.38h1.8c1.66 0 1.8.08 1.8.98V28h-8.56v-.97c0-.86.17-.98 1.36-.98h1.36v-5.83h-1.36Zm-45.82 24.44c1.42-.12 1.46-.17 1.58-1.78.11-1.54.2-1.65 1.26-1.65 1.1 0 1.15.07 1.15 1.75v1.75h1.94c1.82 0 1.95.07 1.95.97 0 .91-.13.98-1.95.98h-1.94v5.83h1.94c1.82 0 1.95.07 1.95.98 0 .93-.1.97-2.45.97-3.6 0-3.94-.37-4.1-4.44l-.14-3.34h-1.33c-1.14 0-1.32-.13-1.32-.95s.2-.97 1.46-1.07Zm-10.02.9c0 .79.04.78.8-.2 1.09-1.37 3.13-1.4 4.47-.06.9.89.96 1.22.96 5.06v4.1h-2.26l-.14-3.49c-.16-4.1-.73-5.1-2.56-4.46-1.06.37-1.08.42-1.19 4.16l-.1 3.79h-2.7v-9.73h1.36c1.13 0 1.36.14 1.36.83Zm33.08-.16c0 .55.1.52.6-.2.75-1.06 1.96-1.11 2.6-.1.47.77.48.77 1.32-.02 1.09-1.03 2.51-.83 3.15.43.3.59.49 2.54.5 4.96v3.99h-2.34V50.6c0-3.92-.3-4.79-1.38-3.9-.42.35-.56 1.4-.56 4.12 0 3.62-.01 3.65-.96 3.65s-.96-.04-1.07-3.99c-.1-3.7-.17-3.99-.9-3.99-.71 0-.78.3-.88 3.99-.11 3.95-.12 3.99-1.07 3.99h-.96v-9.73h.97c.66 0 .98.22.98.67Zm-57.23 8.44c-.86-.9-.96-1.4-1.08-5.05l-.13-4.06h2.8v3.62c0 3.8.28 4.55 1.74 4.55 1.47 0 1.75-.74 1.75-4.55v-3.62h2.73v9.73h-1.36c-.75 0-1.37-.19-1.37-.41 0-.23-.38-.15-.86.2a3.24 3.24 0 0 1-4.23-.4Zm45.52 0c-.85-.9-.95-1.4-1.07-5.05l-.14-4.06h2.8v3.62c0 3.8.29 4.55 1.75 4.55s1.75-.74 1.75-4.55v-3.62h2.72v9.73h-1.36c-.75 0-1.36-.19-1.36-.41 0-.23-.38-.15-.87.2a3.24 3.24 0 0 1-4.22-.4Zm4.38 15.34c-1.65.23-2.66-1.47-1.53-2.6.27-.26.92-.43 1.46-.37.83.1.97.31.97 1.48 0 1.12-.15 1.38-.9 1.49Zm-38.2-.71c-1.4 0-1.56-.1-1.56-.98 0-.95.07-.97 2.92-.97h2.92V78.6h1.56c1.4 0 1.55.1 1.55.98v.97h-8.95v-.97c0-.88.16-.98 1.56-.98h1.55V68.48h-1.55Zm-24.52 2.53c0-1.78.51-2.75 1.86-3.5 1.4-.8 5.07-.6 6.5.35 1.07.7 1.07.7.31 1.46-.73.74-.8.74-2.19.08-2.09-1-3.56-.42-3.56 1.4 0 1.42.03 1.44 3.44 2.15 4.4.91 3.76 7.25-.79 7.86-2.1.28-3.95-.1-5.18-1.04l-.97-.75.86-.87c.81-.82.9-.83 1.58-.22.98.89 2.93 1.23 3.93.69.6-.32.83-.81.83-1.77 0-1.2-.14-1.37-1.46-1.74-.8-.22-1.78-.4-2.17-.4-1.28 0-2.99-2.12-2.99-3.7Zm46.99-.27c1.42-.12 1.46-.17 1.58-1.78.11-1.54.2-1.65 1.26-1.65 1.1 0 1.15.07 1.15 1.75v1.75h1.94c1.82 0 1.95.07 1.95.97 0 .91-.13.98-1.95.98h-1.94v5.83h1.94c1.82 0 1.95.07 1.95.98 0 .93-.1.97-2.45.97-3.6 0-3.94-.37-4.1-4.44l-.14-3.34h-1.33c-1.14 0-1.32-.13-1.32-.95s.2-.97 1.46-1.07Zm35.51.9c0 .79.04.78.8-.2 1.09-1.37 3.13-1.4 4.47-.06.9.9.95 1.22.95 5.06v4.1h-2.25l-.14-3.49c-.16-4.1-.73-5.1-2.56-4.46-1.07.37-1.08.42-1.19 4.16l-.11 3.79h-2.7v-9.73h1.36c1.14 0 1.37.14 1.37.83Zm9.35 2.13c.01-1.31.53-2.17 1.74-2.9 1.07-.65 5.1-.37 5.88.4.48.49.52.8.19 1.42-.4.74-.52.75-1.5.24-1.36-.7-2.99-.72-3.56-.03-.61.74.11 1.24 2.3 1.57 5.22.8 4.44 6.46-.91 6.46-1.96 0-4.54-1.08-4.54-1.9 0-.96 1.05-1.16 2.8-.53 1.47.53 1.98.56 2.83.17 1.54-.7 1.01-1.36-1.49-1.86-2.68-.54-3.76-1.41-3.74-3.04Zm-56.47 6.16c-.85-.9-.95-1.4-1.07-5.06l-.13-4.06h2.79v3.62c0 3.8.29 4.55 1.75 4.55 1.47 0 1.75-.74 1.75-4.55v-3.62h2.73v9.73h-1.37c-.75 0-1.36-.19-1.36-.41 0-.23-.38-.15-.86.2a3.24 3.24 0 0 1-4.23-.4Zm24.16-7.17c-1.4 0-1.56-.1-1.56-.98 0-.95.07-.97 2.92-.97h2.92v7.79h1.36c1.2 0 1.36.12 1.36.98v.97h-8.56v-.97c0-.88.16-.98 1.56-.98h1.56v-5.83h-1.56Z"/><path fill-rule="evenodd" d="M318.85 18.9a5.63 5.63 0 0 0-.24 8.2c1.05 1.05 1.6 1.3 2.9 1.3 2.07 0 3.74-.87 4.5-2.32.75-1.47.75-4.4 0-5.87-1.25-2.41-5.03-3.11-7.16-1.32Zm.74 4.24c0-1.72.16-2.2.87-2.7 2.03-1.42 3.41-.32 3.41 2.7 0 3.03-1.38 4.13-3.41 2.7-.71-.5-.87-.97-.87-2.7ZM307.34 41.7c-1.51 1.18-2.15 2.98-2.14 6.04.01 3.34.98 5.63 2.68 6.38.9.4 1.2.8 1.2 1.55 0 1.5 1.13 2.3 3.25 2.3 1.68 0 1.81-.07 1.81-.97 0-.85-.16-.97-1.36-.97-1.74 0-1.85-1.08-.22-2.01 1.83-1.04 2.52-2.8 2.52-6.36 0-3.58-.68-5.29-2.48-6.22-1.67-.86-3.98-.75-5.26.25Zm.58 5.96c0-2.79.12-3.43.78-4.09 1.63-1.63 3.3-.66 3.72 2.18.74 4.93-1.38 8.34-3.72 6-.66-.66-.78-1.3-.78-4.1Zm21.91-2.36c-1.02.88-1.05 1-.45 1.6.6.61.71.61 1.55.03 1.61-1.13 3.45-.6 3.45 1 0 .58-.33.7-1.9.7-2.6 0-3.94 1.06-3.94 3.13 0 2.85 3.21 4.2 5.22 2.2.86-.87.93-.88 1.35-.2.3.47.9.7 1.8.7 1.2 0 1.36-.11 1.36-.96 0-.61-.22-.98-.58-.98-.47 0-.59-.58-.59-2.95 0-2.74-.08-3.02-1.14-4.08a4.77 4.77 0 0 0-6.13-.19Zm1.19 6.64c-.13-.33-.01-.85.25-1.17.26-.32 1.07-.58 1.8-.58 1.14 0 1.3.12 1.3.98 0 1.7-2.75 2.34-3.35.77Zm10.28-32.91c-1.23 1.09-1.28 1.24-1.28 4.07 0 2.67.1 3.04 1.04 3.98 1.32 1.33 4.28 1.7 6.07.78 1.62-.84 1.85-1.32 1.05-2.2-.66-.73-.69-.73-1.65.02-1.24.99-2.6.98-3.6 0-1.58-1.6-1.07-1.95 2.73-1.95h3.5v-1.01c0-4.11-4.85-6.39-7.87-3.7Zm3 3.14c-2.37 0-2.84-.63-1.27-1.73a3.3 3.3 0 0 1 1.38-.6c.99 0 2.03.8 2.03 1.57 0 .66-.27.76-2.14.76Zm31.36 49.25a5.63 5.63 0 0 0-.24 8.22c1.05 1.04 1.6 1.29 2.91 1.29 2.06 0 3.74-.87 4.49-2.32.75-1.47.75-4.4 0-5.87-1.25-2.41-5.03-3.1-7.16-1.32Zm.74 4.26c0-1.73.16-2.2.87-2.7 2.03-1.43 3.41-.33 3.41 2.7 0 3.02-1.38 4.12-3.41 2.7-.71-.5-.87-.98-.87-2.7Zm10.24-56.84c-1.02.88-1.05 1-.45 1.6.6.61.71.61 1.55.03 1.61-1.13 3.45-.6 3.45 1 0 .58-.33.7-1.9.7-2.6 0-3.94 1.06-3.94 3.13 0 2.85 3.21 4.2 5.22 2.2.86-.87.93-.88 1.35-.2.3.47.9.7 1.8.7 1.2 0 1.36-.11 1.36-.96 0-.61-.22-.98-.58-.98-.47 0-.59-.58-.59-2.95 0-2.74-.08-3.02-1.13-4.08a4.77 4.77 0 0 0-6.14-.2Zm1.19 6.64c-.13-.33-.01-.86.25-1.17.27-.32 1.07-.58 1.8-.58 1.14 0 1.31.12 1.31.98 0 1.7-2.76 2.34-3.36.77Zm-68.98 45.94a5.63 5.63 0 0 0-.24 8.22c1.05 1.04 1.6 1.29 2.9 1.29 2.07 0 3.74-.87 4.5-2.32.75-1.47.75-4.4 0-5.87-1.25-2.41-5.03-3.1-7.16-1.32Zm.74 4.26c0-1.73.16-2.2.87-2.7 2.03-1.43 3.41-.33 3.41 2.7 0 3.02-1.38 4.12-3.41 2.7-.71-.5-.87-.98-.87-2.7Z" clip-rule="evenodd"/></svg>