<svg xmlns="http://www.w3.org/2000/svg" width="250" height="150" fill="currentColor" viewBox="0 0 250 150"><path d="M28.74 31c-4.79 0-9.13 2.8-11.24 4.65l-.62-3.89H14v32.5h3.5V38.5c2.36-1.97 6.76-4.58 10.4-4.58 3.37 0 6.19 2.02 6.19 6.59v23.84h3.53v-23.7c0-7.04-4.03-9.64-8.88-9.64Zm29.14.03c-8.16 0-14.29 6.01-14.29 16.97 0 11.33 6.24 17.1 14.29 17.1 8.04 0 14.35-5.72 14.35-17.1 0-10.96-6.2-16.97-14.35-16.97Zm63.05 0c-8.15 0-14.29 6.01-14.29 16.97 0 11.33 6.28 17.1 14.32 17.1 8.06 0 14.36-5.72 14.36-17.1 0-11-6.24-16.97-14.4-16.97Zm-46.23.73L87.52 64.3h3.82l12.83-32.53h-3.8l-10.72 28.2h-.14l-10.93-28.2H74.7Zm-16.82 2.12c6.2 0 10.85 5.55 10.85 14.16 0 8.18-4.37 14.17-10.85 14.14-6.84 0-10.8-5.96-10.8-14.14 0-8.6 4.58-14.16 10.8-14.16Zm63.05 0c6.21 0 10.86 5.55 10.86 14.16 0 8.18-4.42 14.17-10.86 14.14-6.84 0-10.79-5.96-10.79-14.14 0-8.6 4.59-14.16 10.79-14.16ZM137.68 73.98a4.84 4.84 0 0 0-4.85 4.7c0 2.62 2.22 4.8 4.85 4.8a4.82 4.82 0 0 0 4.65-4.8c0-2.52-2.15-4.7-4.65-4.7ZM14 75.43v44.05h8.43V95.34c1.35-1.13 3.91-2.6 6-2.6 2.08 0 3.81 1.36 3.81 4.33v22.41h8.43V96.56c0-7.6-4.23-10.41-9.26-10.41-3.82 0-7.25 2.43-8.98 4.09v-14.8H14Zm68.29 0v44.05h8.43V75.43h-8.43Zm35.24 0v12.39a13.12 13.12 0 0 0-6.53-1.67c-7.87 0-14.48 6.27-14.48 17.7 0 11.85 6.17 16.4 12.72 16.4 4.62 0 7.42-2.42 8.57-3.51l.62 2.74h7.53V75.43h-8.43Zm77.6 10.69c-6.84 0-12.46 4.62-12.46 12 0 4.22 1.74 7.42 4.33 9.32-2.42 1.54-3.81 4.23-3.81 6.46 0 1.88.76 3.57 2.43 4.47-2.5 1.53-5 4.03-5 7.28 0 5.1 5.17 9.13 13.57 9.06 9.42 0 16.26-4.52 16.26-12.18 0-5.26-2.88-8.98-9.5-8.98h-8.12c-1.97 0-2.73-.96-2.73-1.97 0-.83.65-1.84 1.35-2.3 1.29.31 2.56.46 3.95.46 6.95 0 12.56-4.48 12.56-11.38 0-2.25-.56-3.92-1.46-5.3v-.25h4.34v-5.94h-10.42c-1.65-.51-3.4-.75-5.3-.75Zm31.48 0c-6 0-12.07 3.53-12.07 9.77 0 9.13 13.6 9.36 13.6 14.6 0 2.38-2.03 3.34-4.33 3.34-2.22 0-4.79-1.15-6.63-2.22h-2.73v6.53c1.6 1 6.23 2.1 9.5 2.07 6.17 0 12.3-3.58 12.3-10.16 0-9.2-13.45-9.12-13.45-14.5 0-2.12 1.91-3.13 4.2-3.13 2.25 0 4.23 1.09 5.75 2.05h2.75v-6.51c-1.74-.95-5.49-1.84-8.89-1.84Zm-165.26.03c-8.79 0-15.38 6.01-15.38 17.03 0 11.32 6.7 17.06 15.38 17.03 8.6 0 15.42-5.72 15.42-17.1 0-10.95-6.7-16.96-15.42-16.96Zm105.44 0c-3.95 0-7.6 2.6-9.33 4.27l-.64-3.5h-7.34v32.56h8.43V95.34c1.35-1.13 3.87-2.6 5.92-2.6 2.1 0 3.89 1.28 3.89 4.27v22.47h8.43V96.56c0-7.6-4.2-10.41-9.36-10.41Zm-33.34.77v32.53h8.44V86.92h-8.44Zm61.84 5.3c3.05 0 5.04 2.67 5.04 6 0 3.44-1.99 6.14-5.04 6.14-3.12 0-5.1-2.67-5.1-6 0-3.47 1.98-6.13 5.1-6.13Zm-133.94.25c4.02 0 7 4.18 7 10.79 0 6.13-2.82 10.6-7 10.57-4.45 0-7.03-4.55-7.03-10.71 0-6.5 3-10.65 7.03-10.65Zm51.29 0c1.87 0 3.78.73 4.86 1.35v18.13a8.78 8.78 0 0 1-5.2 1.88c-3.5 0-7.4-2.5-7.4-10.34 0-6.48 3.2-11.02 7.74-11.02Zm77.66 27.57h6.98c3.56 0 5.68 1.15 5.68 3.5 0 3.09-2.67 5.24-7.87 5.24-4.48 0-7.37-1.87-7.37-4.53 0-1.99 1.37-3.5 2.58-4.2Z"/></svg>