<svg xmlns="http://www.w3.org/2000/svg" width="229" height="110" fill="currentColor" viewBox="0 0 229 110">
  <path d="M17.85 3.147c-4.788 0-9.127 2.805-11.234 4.65l-.622-3.889H3.111V36.41h3.505V10.633c2.357-1.968 6.755-4.574 10.398-4.574 3.364 0 6.184 2.014 6.184 6.585v23.841h3.534V12.79c0-7.038-4.029-9.642-8.881-9.642Zm29.137.035c-8.154 0-14.286 6.006-14.286 16.965 0 11.332 6.24 17.1 14.286 17.1 8.043 0 14.356-5.724 14.356-17.1 0-10.958-6.206-16.965-14.356-16.965Zm63.05 0c-8.15 0-14.286 6.006-14.286 16.965 0 11.332 6.278 17.1 14.321 17.1 8.059 0 14.362-5.724 14.362-17.1 0-11.002-6.243-16.965-14.397-16.965Zm-46.23.726 12.828 32.53h3.813l12.839-32.53h-3.813L78.762 32.115h-.14L67.697 3.908h-3.889ZM46.987 6.03c6.198 0 10.851 5.55 10.851 14.152 0 8.182-4.372 14.179-10.85 14.147-6.837 0-10.788-5.965-10.788-14.147 0-8.602 4.57-14.152 10.787-14.152Zm63.05 0c6.218 0 10.869 5.55 10.869 14.152 0 8.182-4.421 14.179-10.869 14.147-6.832 0-10.781-5.965-10.781-14.147 0-8.602 4.584-14.152 10.781-14.152Zm16.757 40.097c-2.635 0-4.854 2.153-4.854 4.708 0 2.607 2.219 4.79 4.854 4.79 2.464 0 4.649-2.183 4.649-4.79 0-2.523-2.154-4.708-4.649-4.708ZM3.111 47.58v44.05h8.434V67.488c1.349-1.13 3.907-2.592 5.998-2.592 2.075 0 3.813 1.348 3.813 4.324v22.412h8.427V68.708c0-7.595-4.23-10.416-9.264-10.416-3.813 0-7.252 2.433-8.974 4.092V47.581H3.11Zm68.287 0v44.05h8.434V47.58h-8.434Zm35.245 0v12.386c-1.04-.666-3.535-1.674-6.527-1.674-7.872 0-14.49 6.275-14.49 17.698 0 11.86 6.174 16.402 12.729 16.402 4.618 0 7.42-2.417 8.567-3.505l.622 2.744h7.532V47.58h-8.433Zm77.592 10.683c-6.836 0-12.45 4.62-12.45 11.996 0 4.23 1.739 7.424 4.33 9.329-2.42 1.536-3.818 4.233-3.818 6.463 0 1.877.761 3.567 2.435 4.464-2.496 1.535-4.993 4.029-4.993 7.282 0 5.103 5.16 9.131 13.56 9.056 9.424 0 16.263-4.513 16.263-12.17 0-5.27-2.885-8.987-9.503-8.987h-8.12c-1.968 0-2.726-.962-2.726-1.97 0-.833.65-1.843 1.349-2.296 1.285.31 2.555.454 3.952.454 6.944 0 12.554-4.48 12.554-11.38 0-2.246-.562-3.919-1.459-5.295v-.25h4.342v-5.94h-10.415c-1.659-.512-3.397-.756-5.301-.756Zm31.49 0c-5.999 0-12.072 3.531-12.072 9.776 0 9.13 13.607 9.363 13.607 14.6 0 2.373-2.043 3.337-4.336 3.337-2.218 0-4.793-1.15-6.638-2.22h-2.726v6.526c1.595 1.008 6.228 2.107 9.497 2.075 6.17 0 12.311-3.579 12.311-10.165 0-9.193-13.456-9.115-13.456-14.496 0-2.123 1.909-3.127 4.203-3.127 2.245 0 4.228 1.086 5.748 2.046h2.743v-6.51c-1.734-.944-5.484-1.842-8.881-1.842Zm-165.262.03c-8.789 0-15.38 6.017-15.38 17.035 0 11.316 6.698 17.062 15.38 17.03 8.602 0 15.42-5.718 15.42-17.094 0-10.959-6.695-16.971-15.42-16.971Zm105.438 0c-3.952 0-7.597 2.607-9.335 4.278l-.633-3.5h-7.341v32.56h8.428V67.488c1.349-1.131 3.875-2.593 5.922-2.593 2.091 0 3.889 1.275 3.889 4.267v22.47h8.427V68.707c0-7.594-4.195-10.415-9.357-10.415Zm-33.339.779v32.53h8.434v-32.53h-8.434Zm61.842 5.3c3.051 0 5.039 2.66 5.039 5.993 0 3.44-1.988 6.137-5.039 6.137-3.119 0-5.104-2.665-5.104-5.998 0-3.472 1.985-6.132 5.104-6.132Zm-133.941.245c4.015 0 7.003 4.184 7.003 10.787 0 6.138-2.821 10.604-7.003 10.572-4.448 0-7.027-4.546-7.027-10.712 0-6.495 2.995-10.647 7.027-10.647Zm51.286 0c1.873 0 3.782.729 4.865 1.348v18.134c-.774.56-2.684 1.909-5.208 1.877-3.503 0-7.393-2.495-7.393-10.34 0-6.475 3.193-11.02 7.736-11.02Zm77.662 27.572h6.98c3.563 0 5.685 1.148 5.685 3.505 0 3.083-2.67 5.237-7.876 5.237-4.479 0-7.364-1.873-7.364-4.54 0-1.983 1.365-3.503 2.575-4.202Z"/>
</svg>
