<svg xmlns="http://www.w3.org/2000/svg" width="500" height="119" fill="currentColor" viewBox="0 0 500 119"><path d="M223.74 53.76c-58.47 1.44-114 7.5-162.29 17.59v3.52C108.59 65 164 58.74 223.74 57.25v-3.49Zm52.51 0c58.47 1.44 114 7.5 162.29 17.59v3.52C391.41 65 336 58.74 276.25 57.25v-3.49Zm-7.92-6.45h-36.62v3.73h36.62v-3.73Zm-23.94-7.42a3.53 3.53 0 1 1-7.07.04 3.53 3.53 0 0 1 7.07-.04Zm18.31 0a3.52 3.52 0 1 1-7.05.02 3.52 3.52 0 0 1 7.05-.02Z"/><path d="M262.7 39.89a3.52 3.52 0 1 1-7.05.02 3.52 3.52 0 0 1 7.05-.02Zm9.16 0a3.53 3.53 0 1 1-7.07.04 3.53 3.53 0 0 1 7.07-.04Zm-43.68 0a3.53 3.53 0 1 0 7.07.04 3.53 3.53 0 0 0-7.07-.04Zm26.41-34.28V3.28h-3.41V0h-2.33v3.28h-3.41v2.33h3.41v3.55a4.46 4.46 0 1 0 2.33 0V5.61h3.41Zm13.74 47.77h-36.62v3.73h36.62v-3.73Zm-14.79-13.49a3.52 3.52 0 1 1-7.03.02 3.52 3.52 0 0 1 7.03-.02Z"/><path d="M277.39 23.28c-2.47-2.36-6.77-2.36-11.24-1.07a5.64 5.64 0 0 0-.49-1.62c-.61-1.23-2-2.76-5.07-3-3.37-.29-7.81 1.57-10.57 4.14-2.76-2.57-7.2-4.43-10.57-4.14-3.08.27-4.46 1.8-5.08 3-.24.51-.4 1.06-.47 1.62-4.48-1.29-8.78-1.29-11.25 1.07a5.16 5.16 0 0 0-1.7 3.91c0 3.14 2.82 6.39 6.34 9.73a5.24 5.24 0 0 1 3.65-2.29c-2.93-2.74-5.81-5.72-5.83-7.5a1 1 0 0 1 .39-.82c1.35-1.29 4.93-1 8.81.46a37.23 37.23 0 0 0 4 8.41 5.4 5.4 0 0 1 4.86-.04l-.79-1.33c-3.81-6.06-4.48-9.06-4.48-10.42-.02-.32.04-.64.16-.94.2-.39.77-.62 1.68-.71 2.56-.23 6.59 1.78 8.11 3.91V35a5.36 5.36 0 0 1 4.2 0v-9.35c1.52-2.13 5.55-4.14 8.11-3.91.91.09 1.47.32 1.68.71.12.3.17.62.16.94 0 1.36-.67 4.36-4.48 10.42l-.79 1.33a5.37 5.37 0 0 1 4.86.04 37.13 37.13 0 0 0 4-8.41c3.89-1.45 7.48-1.75 8.83-.46a1.1 1.1 0 0 1 .38.82c0 1.78-2.9 4.76-5.83 7.5a5.24 5.24 0 0 1 3.65 2.29c3.52-3.34 6.29-6.59 6.34-9.73a5.14 5.14 0 0 0-1.57-3.91ZM0 91.53h8.45c8.08 0 13.73 1.93 13.73 13 0 10.78-5.82 13.2-13.73 13.2H0v-26.2Zm6.19 22.1h2.39c4.62 0 7.44-1.89 7.44-9s-2.91-9-7.44-9H6.19v18Zm25.57-16.11h6.61l7.78 20.21h-5.9l-1.51-4.31h-7.58l-1.6 4.31h-5.47l7.67-20.21Zm3.3 4.17H35l-2.6 7.91h5.07l-2.41-7.91Zm14.46-4.17h6.86l6.83 13.73h.06l-.08-13.73h4.92v20.21h-6.69l-7.07-13.81h-.05l.17 13.81h-4.95V97.52Zm25.02 0h5.39v20.21h-5.39V97.52Zm11.21 15.23c1.72.9 3.63 1.35 5.56 1.34 1.71 0 3.33-.35 3.33-2 0-3.77-9.56-1.39-9.56-8.75 0-4.86 4.75-6.2 8.81-6.2 1.77-.02 3.52.24 5.21.76l-.35 4.17a10.8 10.8 0 0 0-4.49-.93c-1.36 0-3.62.12-3.62 1.88 0 3.28 9.56 1.08 9.56 8.37 0 5.24-4.4 6.66-8.89 6.66-2.03 0-4.05-.3-6-.87l.44-4.43Zm19.95-15.23h5.39v7.73h6.37v-7.73h5.38v20.21h-5.38v-8.66h-6.37v8.66h-5.39V97.52Zm34.3-5.99h12.8c4.85 0 8.46 2.13 8.46 6.64 0 3.31-1.68 5.14-4.58 6.12v.07c3.46.72 5.25 2.6 5.25 5.79 0 6.27-5.48 7.58-10.13 7.58H140v-26.2Zm6.19 10.76h4.22c2.27 0 4.62-1.28 4.62-3.49 0-2.4-2.24-3.17-4.55-3.17h-4.29v6.66Zm0 11.34h4.35c2.53 0 5.17-1.23 5.17-3.89 0-2.86-2.72-3.39-5.1-3.39h-4.42v7.28Zm37.57-3.57c0 5.53-3.59 8-8.86 8s-8.86-2.49-8.86-8V97.52h5.38v11.64c0 2.67.72 4.93 3.48 4.93s3.47-2.26 3.47-4.93V97.52h5.39v12.54Zm5.85 2.69c1.72.9 3.63 1.35 5.56 1.34 1.71 0 3.33-.35 3.33-2 0-3.77-9.56-1.39-9.56-8.75 0-4.86 4.75-6.2 8.81-6.2 1.76-.02 3.52.24 5.21.76l-.35 4.17a10.8 10.8 0 0 0-4.49-.93c-1.36 0-3.61.12-3.61 1.88 0 3.28 9.55 1.08 9.55 8.37 0 5.24-4.4 6.66-8.89 6.66-2.03 0-4.05-.3-6-.87l.44-4.43Zm19.64-15.23h5.38v20.21h-5.38V97.52Zm11.81 0h6.87l6.83 13.73h.06l-.09-13.73h4.92v20.21H233l-7.06-13.81h-.06l.18 13.81h-5V97.52Zm24.62 0h14.24v3.82h-8.85v4.17h8.36v3.83h-8.36v4.57h9.16v3.82h-14.55V97.52Zm20.2 15.23c1.71.9 3.62 1.36 5.55 1.34 1.7 0 3.32-.35 3.32-2 0-3.77-9.54-1.39-9.54-8.75 0-4.86 4.74-6.2 8.79-6.2a17.1 17.1 0 0 1 5.2.76l-.34 4.17a10.78 10.78 0 0 0-4.48-.93c-1.36 0-3.62.12-3.62 1.88 0 3.28 9.55 1.08 9.55 8.37 0 5.24-4.4 6.66-8.88 6.66-2.03 0-4.05-.3-6-.87l.45-4.43Zm19.99 0c1.72.9 3.63 1.35 5.56 1.34 1.7 0 3.33-.35 3.33-2 0-3.77-9.56-1.39-9.56-8.75 0-4.86 4.75-6.2 8.8-6.2a17.1 17.1 0 0 1 5.22.76l-.35 4.17a10.83 10.83 0 0 0-4.49-.93c-1.36 0-3.62.12-3.62 1.88 0 3.28 9.56 1.08 9.56 8.37 0 5.24-4.41 6.66-8.89 6.66-2.03 0-4.05-.3-6-.87l.44-4.43Zm35.42-21.22h6.87l10.1 26.2h-6.81l-1.95-5.59h-9.84l-2.07 5.59h-6.25l9.95-26.2Zm3.44 5.4h-.08L321 107.8h7.28l-3.55-10.87Zm33.39 13.13c0 5.53-3.59 8-8.86 8s-8.86-2.49-8.86-8V97.52h5.39v11.64c0 2.67.72 4.93 3.47 4.93s3.48-2.26 3.48-4.93V97.52h5.38v12.54Zm8.69-8.54h-5v-4h15.35v4h-5v16.21h-5.39l.04-16.21Zm14.95-4h5.39v7.73h6.36v-7.73h5.39v20.21h-5.39v-8.66h-6.36v8.66h-5.39V97.52Zm32.61-.35c6.66 0 10.13 4 10.13 10.46 0 6.46-3.53 10.45-10.13 10.45-6.6 0-10.14-4-10.14-10.45 0-6.45 3.48-10.46 10.14-10.46Zm0 16.92c3.27 0 4.57-3.13 4.57-6.46 0-3.5-1.3-6.46-4.57-6.46-3.27 0-4.58 3-4.58 6.46 0 3.37 1.3 6.46 4.58 6.46Zm15.32-16.57h9.61c3.59 0 6.52 1.62 6.52 5.1 0 2.69-1.28 4.49-3.89 5.09v.06c1.74.47 1.86 2 2.88 4.46l2 5.5h-5.62l-1.19-3.64c-1.11-3.48-1.8-4.35-3.8-4.35h-1.12v8h-5.39V97.52Zm5.39 8.4h1.41c1.74 0 3.94-.06 3.94-2.35 0-1.88-1.88-2.23-3.94-2.23h-1.41v4.58Zm16.65-8.4h5.39v20.21h-5.39V97.52Zm15.2 4h-5v-4h15.37v4h-5v16.21h-5.38l.01-16.21Zm20.27 8.6-7.47-12.6h6.19l4 8.11 3.91-8.11H500l-7.42 12.6v7.61h-5.38v-7.61Z"/></svg>