<svg xmlns="http://www.w3.org/2000/svg" width="400" height="53" fill="currentColor" viewBox="0 0 400 53"><path fill="currentColor" fill-rule="evenodd" d="M282.7.46c-4.17 1.53-6.6 6.5-5.7 11.73 1.05 6.24 5.92 9.39 11.8 7.63a7.6 7.6 0 0 0 4.63-3.82c1-2.07.91-2.48-.53-2.48-1.11 0-1.28.12-2.02 1.51-1 1.88-2.6 2.78-4.96 2.78-3.87 0-6.09-2.72-6.14-7.52-.05-4.14 1.6-6.93 4.6-7.74 2.73-.73 5.83.77 6.8 3.3.28.77.5.89 1.63.89 1.49 0 1.55-.21.69-2.13a8.4 8.4 0 0 0-4.48-4.15c-1.8-.61-4.65-.61-6.31 0ZM0 5.6v5.32h8.08c7.32 0 8.27.07 10.06.67 6.08 2.05 9.95 7.82 9.95 14.83 0 6.4-3.23 11.74-8.64 14.3l-2.18 1.04-8.63.1-8.64.1v10.67l9.12-.14c10.54-.16 12.02-.42 17.12-3.04 2.38-1.23 3.56-2.12 5.92-4.45 3.43-3.41 5.14-6.13 6.6-10.5a26.99 26.99 0 0 0-.65-18.14A26.98 26.98 0 0 0 23.55 2.13C19.8.63 16.85.28 8.04.28H0v5.33ZM65.02.63a26.38 26.38 0 0 0-21.33 19.91c-.71 2.9-.71 8.88 0 11.78a27.03 27.03 0 0 0 14 17.63c.74.38 2.62 1.07 4.2 1.55 2.74.84 3.16.88 12.13 1l9.29.14-.09-5.28-.09-5.27-8.72-.16c-8.2-.15-8.8-.2-10.31-.9a15.55 15.55 0 0 1-6.24-5.21c-5.46-8.18-2.75-19.55 5.64-23.65l2.2-1.07 8.71-.17 8.72-.16.09-5.24.09-5.25-8.32.04c-4.58.02-9.07.16-9.97.31Zm43.65-.09c-.1.16-4.7 11.74-10.22 25.76L88.23 52.18c-.13.33 1.12.4 6.07.33l6.25-.09 6.52-17.27c3.6-9.5 6.85-18.14 7.23-19.2.69-1.85.72-1.88 1.1-1.12.23.43 3.65 9.1 7.6 19.27l7.2 18.48h6.25c3.44 0 6.25-.12 6.25-.27 0-.14-4.72-11.87-10.48-26.07L121.75.44 115.3.36c-3.55-.05-6.53.03-6.63.18Zm39.2 25.9v26.14h11.29V.28h-11.3v26.15Zm37.12-16.3v9.92l4.6-.15c5.4-.17 7.17-.75 9.23-2.99 1.7-1.84 2.14-3.28 2.13-6.95-.02-3.6-.63-5.33-2.55-7.19C196.56 1 194.9.54 189.6.36l-4.6-.15v9.92Zm49.72-8.4v1.45h2.58V.28h-2.58v1.45Zm20.66 8.39v9.84h2.58v-4.85c0-5.2.24-6.22 1.68-7.23.4-.28 1.26-.5 1.92-.5 2.87 0 3.18.72 3.18 7.4v5.18h2.58v-5.56c-.01-4.73-.1-5.77-.6-6.89-1.25-2.72-5.63-3.28-8.03-1.03l-.73.68V.28h-2.58v9.85ZM371.06.6c-.98.4-1.22.89-1.4 2.91-.16 1.73-.2 1.78-1.22 1.88-.92.09-1.05.21-1.05 1.05 0 .86.1.94 1.13.94h1.13v12.6h2.26V7.37h1.46c1.4 0 1.45-.03 1.45-.96 0-.92-.08-.97-1.27-.97-1.51 0-1.74-.27-1.46-1.76.19-1 .33-1.12 1.39-1.21 1.07-.1 1.19-.2 1.28-1.15l.1-1.05-1.56.02c-.85.01-1.86.15-2.24.3ZM329.3 3.51v1.94h-1.13c-1.04 0-1.13.07-1.13.97 0 .88.09.96 1.1.96h1.12l.1 5.64c.12 6.75.14 6.79 3.26 6.79h2v-.97c0-.88-.1-.98-1.29-1.13l-1.29-.16-.09-5.06-.09-5.07 1.38-.1c1.24-.09 1.4-.19 1.49-.99.1-.85.04-.88-1.38-.88h-1.47V1.57h-2.58v1.94Zm-141.4 6.6v7.66l2.82-.21c3.71-.29 5.44-1.1 6.53-3.07.7-1.25.81-1.87.81-4.36 0-2.5-.11-3.11-.8-4.36-1.1-1.98-2.85-2.8-6.54-3.1l-2.83-.22v7.66Zm18.8-4.33a5.76 5.76 0 0 0-2.81 3.46c-.2.67-.12.73 1.1.73 1.2 0 1.37-.1 1.69-1 .36-1.04 1.81-1.9 3.17-1.9a3 3 0 0 1 2.91 2.29c.2.72.31 1.36.26 1.42-.06.05-1.36.31-2.88.57-3.6.62-5.58 1.5-6.44 2.87-1.26 2.03-.27 4.59 2.18 5.63 2.07.89 5.4.37 6.54-1 .46-.54.5-.53.66.2.15.64.41.78 1.57.86.9.07 1.32-.01 1.19-.23-.12-.18-.27-2.74-.34-5.69-.14-5.83-.36-6.65-2.2-8.02-1.35-1-4.79-1.1-6.6-.19Zm17.35-.31c-.44.19-1.13.65-1.53 1.02l-.73.68v-.86c0-.8-.1-.86-1.29-.86h-1.3v14.52h2.55l.1-5.35.1-5.35 1.06-.94c.8-.72 1.37-.95 2.36-.95 2.83 0 3.2.89 3.2 7.64v4.95h2.58v-5.24c0-5.94-.23-7.16-1.6-8.47-.8-.77-1.3-.95-2.84-1.03a8.04 8.04 0 0 0-2.66.24Zm19.67-.04c-2.15.65-3.2 2-3.2 4.11 0 1.7 1.66 3.17 4.11 3.65 4 .8 4.93 1.34 4.93 2.92 0 1.3-1.04 1.93-3.17 1.93-1.48 0-1.86-.14-2.67-.95-.52-.52-.94-1.17-.94-1.45 0-.38-.33-.5-1.3-.5-.9 0-1.29.13-1.29.46 0 1.5 1.78 3.6 3.63 4.27 2.46.89 5.6.3 7.25-1.35.92-.92 1.07-1.28 1.07-2.67 0-2.65-1.3-3.71-5.65-4.58-2.43-.5-3.4-1.09-3.4-2.1 0-1.1 1.16-1.79 3.03-1.79 1.4 0 1.71.14 2.67 1.15.9.97 1.27 1.14 2.22 1.05l1.15-.1-.74-1.45c-1.22-2.41-4.58-3.54-7.7-2.6Zm56.68.3c-3.33 1.5-4.85 5.62-3.67 9.89.73 2.62 3.7 4.67 6.77 4.68 2.36 0 5.02-1.44 5.94-3.23.66-1.28.66-1.3-.8-1.3-.96 0-1.36.17-1.63.68-.44.82-2.18 1.59-3.61 1.59-1.92 0-3.8-1.6-4.3-3.63l-.22-.9h11.46l-.21-1.8c-.24-2-1.05-3.8-2.2-4.88-1.83-1.7-5.13-2.2-7.53-1.1Zm17.4-.14c-.55.24-1.31.77-1.7 1.17l-.68.75V6.48c0-.99-.06-1.03-1.3-1.03h-1.3l.09 7.18.08 7.18 1.18.1 1.18.1.12-4.94c.14-5.4.47-6.59 2.03-7.3 1.48-.67 3.2-.49 4.07.45.76.8.79 1.02.89 6.3l.1 5.45h2.6l-.11-5.73c-.12-6.37-.32-7.13-2.18-8.38-1.26-.85-3.47-.97-5.07-.27Zm24.86-.12c-.55.16-1.39.68-1.86 1.15l-.85.85V6.46c0-.97-.06-1.01-1.29-1.01h-1.3v14.52h2.55L340 15c.1-4.46.17-5.07.78-5.89.57-.76.95-.93 2.36-1l1.68-.1-.1-1.36c-.1-1.48-.41-1.66-2.07-1.17Zm7.84-.02a7.32 7.32 0 0 0-3.85 3.32c-1.07 2.03-1.03 5.98.08 7.96a7.08 7.08 0 0 0 11.22 1.43c1.76-1.83 1.78-2.38.1-2.38-.95 0-1.38.16-1.63.64-.79 1.46-3.66 2.08-5.43 1.17a4.1 4.1 0 0 1-2.26-2.86l-.33-1.21h11.25v-1.18c0-2.82-1.65-5.53-4.02-6.6a8.23 8.23 0 0 0-5.13-.29Zm29.97.05c-2.45.91-3.82 2.63-4.4 5.52a9 9 0 0 0 1.2 6.48c1.02 1.53 3.55 2.79 5.64 2.8 2 0 4.63-1.34 5.65-2.88 2.48-3.75 1.26-9.77-2.32-11.5-1.49-.7-4.42-.92-5.77-.42Zm17.65-.06c-.6.14-1.5.66-2.02 1.16l-.94.9V6.48c0-.97-.08-1.03-1.13-1.03h-1.13V20l1.2-.1 1.22-.1.16-5c.2-6.3.43-6.78 3.25-6.78H400V6.58c0-1.56-.03-1.57-1.88-1.14ZM234.7 12.71v7.26h2.58V5.45h-2.58v7.26Zm66.66-5.02a3.95 3.95 0 0 0-2.08 2.55l-.3 1.02h4.18c4.6 0 4.67-.04 3.69-1.95-.85-1.64-3.52-2.43-5.49-1.62Zm49.16.2c-.9.49-1.86 1.97-1.86 2.87 0 .42.62.5 4.2.5 2.3 0 4.2-.08 4.2-.17 0-.67-1.05-2.43-1.79-3-1.06-.84-3.4-.94-4.75-.2Zm30.45-.1c-1.44.74-2.1 2.03-2.23 4.38-.15 2.7.45 4.3 1.94 5.21 2.12 1.3 4.8.52 5.86-1.7.66-1.4.7-4.38.07-5.88-.84-2.02-3.66-3.02-5.64-2ZM210.2 13.36c-2.73.5-4.01 1.28-4.16 2.56-.3 2.55 3.96 3.24 6.08.99.74-.8 1.37-4.07.76-4-.15 0-1.36.22-2.68.45Zm-23.75 28.96-3.64 9.86c-.1.28.29.4 1.32.4h1.46l.7-2.1.7-2.11 4.53.09 4.53.09.72 1.93.72 1.94 1.5.1c.83.05 1.5-.02 1.48-.16a401.7 401.7 0 0 0-3.63-9.79l-3.61-9.52-1.64-.1-1.64-.1-3.5 9.47Zm16.3.41v9.85h2.91V32.9h-2.91v9.84Zm13.89 0v9.85h2.9V32.9h-2.9v9.84Zm90.78-8.3c.1 1.51.1 1.53 1.3 1.63l1.22.1V32.89h-2.62l.1 1.53Zm-8.24-.04c-.12.12-.22 1-.22 1.94v1.72h-1.13c-1.04 0-1.13.08-1.13.97 0 .9.1.97 1.13.97h1.13l.02 4.28c.02 4.63.31 7.16.9 7.75.2.2 1.32.43 2.47.5l2.1.14v-1.17c0-1.14-.03-1.17-1.25-1.17-1.6 0-1.65-.16-1.65-5.89v-4.44h1.45c1.39 0 1.45-.04 1.45-.95 0-.89-.1-.96-1.37-1.05l-1.38-.1-.1-1.85-.09-1.86h-1.06c-.58 0-1.16.1-1.27.21Zm-108.05 2.53-1.78 4.93-1.4 3.95h3.53c1.94 0 3.53-.04 3.53-.08 0-.05-.79-2.26-1.75-4.92-1.69-4.69-1.76-4.81-2.13-3.88Zm37.45 1.17c-.44.18-1.13.63-1.53 1l-.73.69v-.86c0-.8-.1-.87-1.29-.87h-1.3v14.53h2.6v-4.86c0-5.19.23-6.21 1.68-7.23.4-.27 1.25-.5 1.9-.5 2.88 0 3.2.73 3.2 7.41v5.18h2.58v-5.55c0-4.92-.08-5.7-.67-6.9a3.9 3.9 0 0 0-1.74-1.89 7.11 7.11 0 0 0-4.7-.15Zm15.29.26c-.74.34-1.5.88-1.69 1.2-.3.52-.34.46-.35-.45-.01-1-.06-1.05-1.3-1.05h-1.3v14.53h2.59v-4.51c0-5.15.43-6.81 1.96-7.6 1.18-.62 2.87-.6 3.76.01 1.07.75 1.38 2.44 1.38 7.5v4.6h2.66l-.13-5.57c-.1-4.72-.22-5.76-.76-6.86-1.13-2.3-4.04-3.06-6.82-1.8Zm14.57-.14a7.83 7.83 0 0 0-4.02 4.32c-.8 2.88-.24 6.18 1.38 8.01a7 7 0 0 0 10.46 0c2.5-2.84 2.32-8.08-.35-10.75a6.94 6.94 0 0 0-7.47-1.58Zm27.61.25c-1.54.78-2.44 1.83-2.77 3.23-.2.85-.16.88 1.12.88.94 0 1.32-.13 1.32-.46 0-.26.35-.87.76-1.35.64-.74 1.03-.89 2.45-.9 1.47-.03 1.8.09 2.47.88.43.5.78 1.31.78 1.83 0 .99-.02 1-3.23 1.48-2.34.35-4.75 1.4-5.63 2.44-1.58 1.87-.78 4.78 1.61 5.92 1.79.84 4.92.55 6.45-.62l1.12-.86v.83c0 .74.13.82 1.25.82H295l-.12-3.8c-.25-7.6-.3-8.01-1.09-9.12-1.44-2.02-5.04-2.58-7.74-1.2Zm31.33-.3c-2.85.9-4.83 4.61-4.4 8.24.43 3.73 2.74 6.1 6.26 6.41 5.03.46 8.5-3.77 7.5-9.15-.45-2.46-1.62-4.1-3.67-5.11a7.44 7.44 0 0 0-5.7-.4Zm17.42-.07c-.45.18-1.21.7-1.7 1.17l-.89.85v-1.03c0-.96-.07-1.03-1.13-1.03h-1.13v14.53h2.26l.02-3.95c.02-5.2.3-6.6 1.57-7.74 1.38-1.23 3.45-1.26 4.57-.07.76.8.79 1.03.89 6.3l.1 5.46h2.6l-.12-5.73c-.12-6.37-.31-7.13-2.17-8.38a5.92 5.92 0 0 0-4.87-.38Zm-65.87.19c0 .14 1.18 3.43 2.63 7.3l2.64 7.03 1.16-.1 1.16-.09 2.65-6.94a233.3 233.3 0 0 0 2.66-7.18c.01-.14-.55-.25-1.24-.25h-1.26l-.84 2.34c-3.35 9.36-3 8.58-3.42 7.51a288.4 288.4 0 0 1-1.93-5.33l-1.54-4.36-1.33-.1c-.73-.05-1.34.02-1.34.17Zm38.43 7.04v7.26h2.58V38.05h-2.58v7.27Zm-48.18-4.98c-1.5.59-2.35 2.38-2.34 4.98.01 3.8 1.58 5.57 4.63 5.23 2.77-.31 4.35-3.14 3.75-6.7-.34-2.03-1.88-3.57-3.72-3.72-.8-.07-1.84.03-2.32.21Zm58.84.06c-1.55.79-2.27 2.35-2.27 4.92 0 1.88.14 2.53.74 3.42a4.04 4.04 0 0 0 5.58 1.3c2.86-1.75 2.74-8.05-.18-9.56a4.61 4.61 0 0 0-3.87-.08Zm-26.65 5.33c-3.95.38-5.97 1.38-5.97 2.98 0 1.63 1.55 2.52 3.68 2.12a3.92 3.92 0 0 0 3.12-2.72c.56-1.84.33-2.49-.83-2.38Z" clip-rule="evenodd"/></svg>