<svg xmlns="http://www.w3.org/2000/svg" width="339" height="78" fill="none" viewBox="0 0 339 78">
  <path fill="#E52221" d="M110.302 28.104h-2.48l-.25-6.56c0-.11-.05-.163-.147-.163-.068 0-.117.055-.147.163l-1.63 6.56h-3.14l-1.63-6.56c-.03-.108-.08-.162-.147-.162-.098 0-.145.055-.145.163l-.25 6.56h-2.48l.572-10.377a26.708 26.708 0 0 1 3.95 0l1.57 6.988c.03.1.074.147.132.147.057 0 .102-.048.132-.146l1.556-6.988a26.733 26.733 0 0 1 3.964 0l.57 10.378v-.003Zm2.098-10.379h2.673v10.378H112.4V17.725Zm5.02 0h2.16l3.596 5.8v-5.8h2.67v10.378h-2.098l-3.655-5.622v5.623h-2.672l-.001-10.379Zm10.776 0h2.672v10.378h-2.672V17.725Zm6.298 10.373a12.088 12.088 0 0 1-1.76-.493l.645-2.26c.482.211.98.383 1.49.514.444.106.896.16 1.356.16.5 0 .853-.07 1.057-.206.207-.137.31-.358.31-.66 0-.206-.033-.368-.096-.485-.064-.12-.18-.22-.345-.31a7.42 7.42 0 0 0-.792-.338l-1.542-.572c-.725-.274-1.235-.658-1.534-1.153-.298-.495-.447-1.098-.447-1.813 0-1 .31-1.732.932-2.202.62-.47 1.665-.705 3.133-.705.616 0 1.168.03 1.66.096.487.063 1.02.153 1.6.27l-.515 2.248a10.23 10.23 0 0 0-2.82-.41c-.498 0-.84.048-1.026.146-.186.097-.28.283-.28.557 0 .274.066.477.2.61.132.13.387.27.77.417l1.716.66c.735.284 1.27.66 1.608 1.124.338.464.506 1.044.506 1.74 0 1.115-.35 1.93-1.05 2.444-.7.514-1.705.77-3.016.77a9.316 9.316 0 0 1-1.762-.15l.002.001Zm14.518-8.112h-2.32v8.117h-2.67v-8.117h-2.673v-2.26h8.484l-.821 2.26Zm10.908 7.429-2.658.836-1.997-2.92c-.215-.313-.39-.53-.52-.654a.627.627 0 0 0-.435-.183c-.177 0-.3.06-.374.177-.074.117-.11.303-.11.557v2.876h-2.67V17.725h4.154c1.4 0 2.417.25 3.053.756.636.505.955 1.305.955 2.4 0 .745-.21 1.37-.632 1.874-.42.503-.915.882-1.482 1.137l2.715 3.525.001-.002Zm-3.737-5.322c.27-.18.404-.526.404-1.035 0-.5-.13-.83-.39-.99-.26-.162-.653-.244-1.18-.244h-1.19v2.54h1.16c.53 0 .928-.091 1.196-.271Zm9.667 2.767v3.243h-2.7V24.86l-3.304-7.135h2.907l1.497 4.067c.06.157.142.235.25.235.107 0 .19-.08.25-.235l1.497-4.067h2.907l-3.304 7.135Zm14.937-6.062c.79.812 1.183 2.19 1.183 4.14 0 1.33-.177 2.385-.528 3.163-.353.78-.867 1.332-1.54 1.66-.678.328-1.534.49-2.57.49-1.04 0-1.895-.163-2.57-.49-.675-.328-1.188-.88-1.54-1.66-.353-.777-.53-1.832-.53-3.162 0-1.948.395-3.328 1.182-4.14.788-.813 1.94-1.22 3.458-1.22 1.514 0 2.668.405 3.455 1.219Zm-2.393 6.833c.26-.18.45-.486.573-.917.122-.43.183-1.032.183-1.805 0-.773-.06-1.375-.183-1.806-.124-.43-.314-.734-.573-.91-.26-.176-.614-.264-1.063-.264-.45 0-.804.088-1.063.264-.26.176-.45.48-.573.91-.123.43-.184 1.033-.184 1.806 0 .773.06 1.375.184 1.805.122.43.314.736.573.918.26.183.614.272 1.064.272.45 0 .805-.09 1.064-.27l-.002-.003Zm8.126-5.645v2.07h3.684v2.26h-3.684v3.787h-2.672V17.725h7.206l-.498 2.26-4.036.001Zm12.17 0v2.07h3.683v2.26h-3.684v3.787h-2.672V17.725h7.207l-.5 2.26h-4.036l.002.001Zm13.63-1.188c.788.812 1.182 2.19 1.182 4.14 0 1.33-.177 2.385-.527 3.163-.354.78-.868 1.332-1.542 1.66-.678.328-1.533.49-2.57.49-1.036 0-1.893-.163-2.568-.49-.676-.328-1.188-.88-1.54-1.66-.355-.777-.53-1.832-.53-3.162 0-1.948.395-3.328 1.182-4.14.787-.813 1.94-1.22 3.458-1.22 1.513 0 2.667.405 3.455 1.219Zm-2.393 6.833c.26-.18.45-.486.572-.917.122-.43.183-1.032.183-1.805 0-.773-.06-1.375-.184-1.806-.123-.43-.314-.734-.573-.91-.26-.176-.615-.264-1.064-.264-.45 0-.807.088-1.065.264-.26.176-.448.48-.572.91-.122.43-.183 1.033-.183 1.806 0 .773.06 1.375.183 1.805.124.43.313.736.572.918.259.182.614.272 1.065.272.45 0 .804-.09 1.064-.27l.002-.003Zm14.217 1.784-2.656.836-1.997-2.92c-.215-.313-.39-.53-.52-.654a.624.624 0 0 0-.433-.183c-.177 0-.302.06-.375.177-.072.117-.11.303-.11.557v2.876h-2.67V17.725h4.153c1.4 0 2.417.25 3.053.756.637.505.956 1.305.956 2.4 0 .745-.21 1.37-.632 1.874a4.143 4.143 0 0 1-1.482 1.137l2.714 3.525-.001-.002Zm-3.736-5.322c.27-.18.404-.526.404-1.035 0-.5-.13-.83-.39-.99-.258-.162-.653-.244-1.182-.244h-1.188v2.54h1.16c.528 0 .927-.091 1.196-.271Zm7.729 3.751h4.506v2.26h-7.177v-10.38h7.177l-.5 2.262h-4.006v1.79h2.936v2.174h-2.936v1.894Zm6.223-8.119h2.672v10.378h-2.67V17.725h-.002Zm5.557 9.33c-.67-.798-1.005-2.166-1.005-4.103 0-1.272.166-2.3.5-3.083.31-.76.891-1.378 1.63-1.734.752-.37 1.76-.557 3.022-.557 1.214 0 2.29.11 3.23.335l-.66 2.364c-.49-.12-.917-.207-1.277-.265a8.06 8.06 0 0 0-1.293-.088c-.56 0-.997.07-1.32.204-.322.138-.572.425-.748.86-.178.436-.266 1.09-.266 1.96 0 .833.063 1.48.19 1.938.128.46.312.78.55.955.24.176.562.264.962.264.49 0 .86-.153 1.11-.462.25-.308.374-.766.374-1.373v-1.204h2.672v5.035h-2.13l-.072-.85c-.01-.118-.07-.176-.177-.176-.06 0-.128.03-.206.096a5.76 5.76 0 0 0-.41.388 2.389 2.389 0 0 1-.75.515c-.274.118-.67.176-1.188.176-1.156 0-2.068-.397-2.74-1.195h.002Zm11.811-9.33 3.595 5.8v-5.8h2.672v10.378h-2.098l-3.655-5.622v5.623h-2.673V17.725h2.159Zm17.264 8.119h-3.23l-.455 2.26h-2.642l2.145-10.378c.855-.046 1.711-.07 2.567-.073.763 0 1.624.025 2.584.073l2.145 10.378h-2.656l-.458-2.26Zm-.427-2.202-.72-3.597c-.058-.264-.214-.397-.47-.397s-.41.133-.47.397l-.72 3.597h2.38Zm7.825-3.656v2.07h3.685v2.26h-3.686v3.787h-2.674V17.725h7.21l-.5 2.26h-4.037l.002.001Zm8.82 0v2.07h3.686v2.26h-3.685v3.787h-2.67V17.725h7.208l-.5 2.26h-4.037l-.002.001Zm11.16 5.858h-3.23l-.456 2.26h-2.64l2.143-10.378c.96-.048 1.813-.073 2.568-.073.763 0 1.624.025 2.584.073l2.143 10.378h-2.657l-.457-2.26h.002Zm-.428-2.202-.718-3.597c-.06-.264-.216-.397-.47-.397s-.412.133-.472.397l-.718 3.597h2.378Zm5.155-5.917h2.67v10.378h-2.67V17.725Zm13.783 9.69-2.657.836-1.996-2.92c-.216-.313-.39-.53-.52-.654a.63.63 0 0 0-.435-.183c-.176 0-.3.06-.374.177-.073.117-.11.303-.11.557v2.876h-2.67V17.725h4.152c1.4 0 2.418.25 3.054.756.637.505.955 1.305.955 2.4 0 .745-.213 1.37-.632 1.874a4.131 4.131 0 0 1-1.483 1.137l2.714 3.525.002-.002Zm-3.736-5.322c.27-.18.404-.526.404-1.035 0-.5-.13-.83-.39-.99-.26-.162-.653-.244-1.183-.244h-1.188v2.54h1.16c.53 0 .928-.091 1.197-.271Zm6.334 6.005a12.19 12.19 0 0 1-1.762-.493l.646-2.26a9.84 9.84 0 0 0 1.49.514c.445.106.896.16 1.358.16.497 0 .85-.07 1.056-.206.206-.137.31-.358.31-.66 0-.206-.032-.368-.097-.485-.064-.12-.18-.22-.347-.31a7.028 7.028 0 0 0-.792-.338l-1.54-.572c-.724-.274-1.233-.658-1.535-1.153-.298-.495-.447-1.098-.447-1.813 0-1 .31-1.732.933-2.202.622-.47 1.668-.705 3.136-.705.615 0 1.17.03 1.66.096.488.063 1.02.153 1.6.27l-.515 2.248a10.256 10.256 0 0 0-2.817-.41c-.5 0-.842.048-1.028.146-.186.097-.28.283-.28.557 0 .274.067.477.2.61.133.13.39.27.77.417l1.717.66c.734.284 1.27.66 1.608 1.124.336.464.506 1.044.506 1.74 0 1.115-.35 1.93-1.05 2.444-.698.514-1.704.77-3.016.77a9.316 9.316 0 0 1-1.762-.15l-.002.001ZM105.73 35.43c.785.813 1.18 2.192 1.18 4.14 0 1.33-.176 2.385-.53 3.163-.352.78-.865 1.332-1.54 1.66-.675.328-1.532.49-2.57.49-1.037 0-1.894-.162-2.57-.49-.673-.328-1.188-.88-1.54-1.66-.353-.777-.53-1.832-.53-3.163 0-1.948.395-3.328 1.183-4.14.788-.812 1.94-1.218 3.458-1.218 1.52 0 2.669.406 3.459 1.218Zm-2.395 6.833c.26-.18.45-.487.573-.917.123-.43.184-1.032.184-1.806 0-.773-.062-1.375-.184-1.806-.122-.43-.313-.734-.573-.91-.26-.176-.613-.264-1.063-.264-.45 0-.805.088-1.064.264-.26.176-.45.48-.573.91-.123.43-.183 1.033-.183 1.806 0 .773.06 1.375.183 1.806.122.43.313.737.573.917.26.182.614.27 1.064.27.45 0 .804-.088 1.063-.27Zm8.125-5.643v2.07h3.685v2.26h-3.684v3.788h-2.67v-10.38h7.207l-.5 2.26h-4.036l-.002.002Zm15.745-1.8c.75.31 1.327.842 1.733 1.6.406.76.608 1.803.608 3.134 0 1.32-.202 2.362-.608 3.12-.406.758-.983 1.292-1.733 1.6-.748.308-1.68.463-2.796.463h-3.45v-10.38h3.45c1.114 0 2.048.156 2.796.463Zm-1.034 6.99c.373-.446.558-1.198.558-2.255 0-.773-.083-1.372-.25-1.798-.166-.426-.415-.722-.748-.888-.332-.168-.773-.25-1.32-.25h-.778v5.856h.777c.8 0 1.388-.222 1.76-.667l.001.002Zm7.927.666h4.507v2.26h-7.178v-10.38h7.178l-.5 2.262H134.1v1.79h2.936v2.175H134.1v1.893h-.002Zm6.224-8.119h2.158l3.597 5.8v-5.8h2.67v10.38h-2.1l-3.653-5.623v5.623h-2.672v-10.38Zm22.974 10.38h-2.48l-.25-6.562c0-.108-.05-.162-.147-.162-.07 0-.118.054-.147.162l-1.63 6.562h-3.14l-1.63-6.562c-.03-.108-.08-.162-.146-.162-.1 0-.147.054-.147.162l-.25 6.562h-2.48l.572-10.38a26.735 26.735 0 0 1 3.948 0l1.57 6.988c.03.1.075.147.134.147.058 0 .102-.05.13-.147l1.557-6.988a26.787 26.787 0 0 1 3.964 0l.572 10.38Zm7.692-2.261h-3.23l-.454 2.26h-2.643l2.145-10.38c.855-.045 1.712-.07 2.568-.072.764 0 1.625.025 2.584.073l2.144 10.38h-2.658l-.454-2.26-.002-.001Zm-.426-2.202-.72-3.598c-.058-.263-.214-.396-.47-.396-.254 0-.41.133-.47.396l-.718 3.598h2.378Zm13.918 3.772-2.658.837-1.996-2.92c-.215-.314-.39-.53-.52-.653a.63.63 0 0 0-.435-.184c-.174 0-.3.06-.372.177-.075.116-.112.302-.112.558v2.878h-2.673v-10.38h4.157c1.398 0 2.416.253 3.054.757.635.504.953 1.304.953 2.4 0 .743-.212 1.367-.632 1.872-.42.504-.915.884-1.48 1.137l2.714 3.521Zm-3.737-5.32c.27-.18.404-.526.404-1.036 0-.5-.13-.83-.39-.99-.26-.162-.65-.243-1.18-.243h-1.19v2.54h1.16c.528 0 .926-.091 1.196-.271Zm14.115 5.292-2.773.866-2.233-3.375a1.552 1.552 0 0 0-.36-.42.667.667 0 0 0-.418-.14c-.196 0-.344.057-.447.17-.102.112-.154.31-.154.595v3.024H185.8V34.36h2.673v4.492l3.083-4.493h3.142l-3.507 4.858 3.668 4.8-.001.001ZM96.62 61.37l.117-.616h.19c.333 0 .63-.063.897-.185.263-.122.445-.415.543-.874l1.525-7.193c.04-.158.06-.293.06-.41 0-.255-.098-.417-.293-.487a2.41 2.41 0 0 0-.765-.1h-.19l.132-.618h4.272l-.133.617h-.19c-.334 0-.63.06-.89.183s-.438.413-.535.874l-1.527 7.193c-.04.156-.06.294-.06.41 0 .256.1.417.295.485.195.068.45.104.763.104h.19l-.132.615h-4.27l.001.002Zm12.447.147c-.43 0-.76-.137-.99-.41-.23-.275-.345-.627-.345-1.058 0-.45.093-1.112.28-1.983l.25-1.145c.028-.128.066-.296.116-.507.05-.21.093-.425.132-.646.04-.22.06-.42.06-.596 0-.195-.043-.39-.126-.58-.083-.19-.267-.286-.55-.286-.313 0-.62.112-.917.337a4.17 4.17 0 0 0-.836.867 6.76 6.76 0 0 0-.66 1.093c-.161.32-.282.657-.36 1.006l-.792 3.76h-1.364l1.233-5.902c.046-.217.075-.438.087-.66 0-.293-.103-.482-.308-.566a1.897 1.897 0 0 0-.72-.124h-.117l.132-.617h2.715l-.396 1.85h.147c.402-.646.81-1.137 1.226-1.475a2.23 2.23 0 0 1 1.447-.507c.577 0 .983.165 1.22.492.233.328.35.707.35 1.138 0 .244-.03.51-.094.8-.064.29-.12.56-.17.814l-.38 1.732a9.205 9.205 0 0 0-.14.808c-.034.264-.052.51-.052.733 0 .47.17.706.514.706.283 0 .597-.112.94-.338l.263.426a7.01 7.01 0 0 1-.784.564 1.841 1.841 0 0 1-1.01.275l-.001-.001Zm4.478-.017-1.027-6.604c-.05-.304-.16-.51-.33-.616-.17-.107-.4-.16-.683-.16h-.146l.116-.618h2.203l.674 4.345c.05.332.095.668.14 1.005l.117.925.082.668h.043c.353-.343.692-.724 1.02-1.145a10.9 10.9 0 0 0 .867-1.284c.233-.401.432-.821.595-1.256.146-.4.22-.75.22-1.042 0-.343-.083-.615-.25-.815a.808.808 0 0 0-.66-.3c0-.4.107-.698.322-.89.214-.19.44-.286.674-.286.303 0 .545.106.727.316.182.21.272.56.272 1.05 0 .578-.125 1.18-.374 1.805-.25.627-.57 1.24-.955 1.843a18.238 18.238 0 0 1-2.328 2.914l-1.32.147.001-.002Zm8.955.017a3.05 3.05 0 0 1-1.438-.338 2.558 2.558 0 0 1-1.035-1.006c-.26-.446-.388-1.01-.388-1.696 0-.538.09-1.105.277-1.703.188-.599.47-1.163.836-1.673.372-.52.83-.94 1.373-1.262.544-.324 1.173-.486 1.887-.486.616 0 1.096.15 1.438.448.344.298.515.712.515 1.24 0 .52-.183 1-.55 1.446-.368.446-.87.806-1.513 1.08-.64.272-1.372.41-2.194.41h-.514c-.019.205-.029.41-.03.616 0 .637.138 1.13.413 1.477.273.35.675.522 1.204.522.47 0 .89-.113 1.255-.34.368-.224.653-.463.86-.718.096.068.146.19.146.366 0 .216-.09.448-.27.698-.183.25-.46.465-.83.645-.373.183-.853.274-1.44.274h-.002Zm-1.174-4.213h.146c.568 0 1.077-.096 1.527-.286.45-.19.804-.457 1.063-.793.26-.338.39-.73.39-1.18 0-.658-.286-.985-.853-.985a1.24 1.24 0 0 0-.785.285 2.9 2.9 0 0 0-.652.765c-.197.32-.365.667-.506 1.05-.14.372-.251.755-.33 1.144Zm7.707 4.213c-.734 0-1.32-.147-1.762-.44-.44-.293-.66-.7-.66-1.218 0-.266.052-.466.154-.605a.818.818 0 0 1 .374-.285c.147-.053.28-.08.396-.08 0 .342.053.66.162.953.107.294.283.53.528.705.245.177.573.264.983.264.49 0 .876-.112 1.16-.34.283-.223.425-.564.425-1.024a1.25 1.25 0 0 0-.338-.88c-.225-.246-.606-.49-1.144-.735-.54-.255-.97-.55-1.292-.888-.322-.34-.484-.8-.484-1.388 0-.626.254-1.147.764-1.563.508-.415 1.2-.624 2.07-.624.538 0 .973.07 1.306.206.333.138.58.313.742.53.16.214.242.434.242.66 0 .313-.1.543-.3.69-.202.146-.47.22-.8.22a2.45 2.45 0 0 0-.126-.764 1.353 1.353 0 0 0-.41-.624c-.192-.162-.454-.242-.787-.242-.44 0-.787.12-1.042.36-.254.24-.38.542-.38.904 0 .332.118.608.358.83.24.218.62.446 1.14.682.537.244.965.544 1.284.896.318.352.477.812.477 1.38 0 .715-.27 1.297-.814 1.746-.542.447-1.284.673-2.223.673l-.003.001Zm6.709 0c-1.067 0-1.6-.572-1.6-1.72.002-.203.017-.405.043-.606.03-.23.064-.437.103-.623l.896-4.23h-1.116l.13-.586c.423 0 .828-.152 1.22-.46.392-.31.735-.84 1.028-1.593h.675l-.38 1.806h1.776l-.177.836h-1.777l-.895 4.183c-.05.245-.09.48-.125.698a3.69 3.69 0 0 0-.052.566c0 .283.07.487.207.615.137.128.328.193.573.193.205 0 .416-.034.63-.097.216-.063.406-.14.573-.228l.25.543a4.565 4.565 0 0 1-.94.508 2.8 2.8 0 0 1-1.04.2l-.002-.005Zm8.808 0c-.393 0-.693-.137-.904-.41a1.566 1.566 0 0 1-.314-.985c0-.204.02-.45.058-.734a28.726 28.726 0 0 1 .262-1.57l.574-2.7c.03-.148.044-.274.044-.382 0-.265-.08-.434-.242-.508-.162-.073-.38-.11-.653-.11h-.19l.132-.616h2.628l-1 4.712-.087.47a8.37 8.37 0 0 0-.096.63 5.216 5.216 0 0 0-.036.53c0 .497.162.75.484.75.156 0 .325-.04.507-.112.18-.072.365-.164.55-.27l.265.425c-.268.23-.564.428-.88.587-.373.194-.74.293-1.103.293h.001Zm1.013-9.484c-.245 0-.443-.066-.594-.2-.153-.13-.23-.333-.23-.608 0-.303.082-.55.242-.74a.805.805 0 0 1 .64-.29c.234 0 .43.068.587.2.155.132.233.336.233.61 0 .38-.093.648-.278.8a.938.938 0 0 1-.602.228h.002Zm7.927 9.484c-.43 0-.762-.137-.992-.41-.23-.275-.345-.627-.345-1.058 0-.45.092-1.112.278-1.983l.25-1.145c.03-.128.07-.296.118-.507.048-.21.093-.425.132-.646.04-.22.06-.42.06-.596 0-.195-.043-.39-.126-.58-.083-.19-.268-.286-.55-.286-.314 0-.62.112-.918.337a4.158 4.158 0 0 0-.836.867 6.874 6.874 0 0 0-.662 1.093c-.18.378-.3.713-.36 1.006l-.79 3.76h-1.367l1.235-5.902c.03-.136.05-.268.065-.396.015-.126.023-.215.023-.264 0-.293-.104-.482-.31-.566a1.893 1.893 0 0 0-.718-.124h-.118l.132-.617h2.715l-.396 1.85h.146c.4-.646.81-1.137 1.226-1.475a2.226 2.226 0 0 1 1.446-.507c.578 0 .984.165 1.218.492.235.328.353.707.353 1.138 0 .244-.033.51-.097.8-.063.29-.12.56-.17.814l-.38 1.732c-.06.274-.105.543-.14.808-.034.264-.05.51-.05.733 0 .47.17.706.513.706.283 0 .597-.112.94-.338l.263.426a6.931 6.931 0 0 1-.787.564c-.301.188-.65.283-1.004.275l.003-.001Zm5.55-.147.117-.616h.19c.332 0 .63-.063.896-.185.264-.122.444-.415.543-.874l1.526-7.193c.037-.134.057-.271.06-.41 0-.266-.11-.43-.332-.493a2.63 2.63 0 0 0-.726-.095h-.19l.13-.617h4.112c1.32 0 2.346.34 3.075 1.02.73.68 1.095 1.67 1.095 2.973 0 .873-.128 1.7-.382 2.483a6.228 6.228 0 0 1-1.13 2.076 5.285 5.285 0 0 1-1.842 1.416c-.728.343-1.567.513-2.517.513h-4.624l-.001.002Zm4.299-.75c.958 0 1.782-.252 2.473-.756.69-.503 1.216-1.198 1.578-2.084.363-.885.544-1.906.544-3.06 0-1.067-.25-1.85-.755-2.35s-1.182-.75-2.035-.75h-1.16l-1.922 9h1.277Zm10.145.897c-.5.007-.994-.11-1.438-.338a2.558 2.558 0 0 1-1.035-1.006c-.26-.446-.388-1.01-.388-1.696 0-.538.092-1.105.28-1.703a5.833 5.833 0 0 1 .836-1.673c.372-.52.83-.94 1.372-1.262.544-.324 1.172-.486 1.887-.486.617 0 1.097.15 1.44.448.34.298.512.712.512 1.24 0 .52-.185 1-.552 1.446-.365.446-.87.806-1.512 1.08-.64.272-1.373.41-2.194.41h-.514c-.019.205-.029.41-.03.616 0 .637.137 1.13.412 1.477.274.35.675.522 1.203.522.47 0 .887-.113 1.256-.34.366-.224.65-.463.856-.718.097.068.148.19.148.366 0 .216-.092.448-.273.698-.18.25-.456.465-.828.645-.372.183-.85.274-1.438.274Zm-1.029-4.213c.568 0 1.076-.096 1.526-.286a2.58 2.58 0 0 0 1.065-.793c.26-.338.39-.73.39-1.18 0-.658-.285-.985-.853-.985-.283 0-.547.095-.785.285a2.912 2.912 0 0 0-.654.765 5.9 5.9 0 0 0-.506 1.05c-.14.372-.251.755-.33 1.144h.147Zm11.525 4.213c-.432 0-.763-.137-.993-.41-.23-.275-.344-.627-.344-1.058 0-.45.093-1.112.278-1.983l.252-1.145c.028-.128.067-.296.117-.507.047-.21.092-.425.13-.646.04-.22.06-.42.06-.596 0-.195-.043-.39-.125-.58-.083-.19-.268-.286-.55-.286-.314 0-.62.112-.917.337a4.12 4.12 0 0 0-.837.867c-.253.343-.474.71-.66 1.093a4.259 4.259 0 0 0-.36 1.006l-.792 3.76h-1.366l1.233-5.902c.03-.136.05-.268.065-.396.016-.126.023-.215.023-.264 0-.293-.104-.482-.31-.566a1.882 1.882 0 0 0-.72-.124h-.115l.13-.617h2.72l-.4 1.85h.148c.4-.646.81-1.137 1.226-1.475a2.23 2.23 0 0 1 1.447-.507c.576 0 .98.165 1.216.492.235.328.354.707.354 1.138 0 .244-.03.51-.097.8-.063.29-.12.56-.17.814l-.38 1.732a9.205 9.205 0 0 0-.14.808 5.99 5.99 0 0 0-.052.733c0 .47.173.706.514.706.286 0 .6-.112.94-.338l.265.426a6.713 6.713 0 0 1-.786.564c-.301.188-.65.283-1.005.275l.001-.001Zm13.152 0c-.432 0-.762-.137-.99-.41-.23-.275-.345-.627-.345-1.058 0-.45.093-1.112.278-1.983l.25-1.145c.028-.128.067-.296.116-.507.05-.21.095-.425.134-.646.04-.22.06-.42.06-.596 0-.195-.043-.39-.127-.58-.08-.19-.265-.286-.55-.286-.282 0-.564.096-.844.286-.28.19-.54.438-.785.742a5.84 5.84 0 0 0-.64.976c-.182.348-.32.672-.417.977l-.233 1.056a18.247 18.247 0 0 0-.257 1.55c-.045.327-.084.63-.118.9a5.78 5.78 0 0 0-.052.573h-1.395c0-.118.018-.31.05-.58.037-.27.077-.573.126-.91.091-.607.199-1.212.324-1.813l.25-1.145c.03-.128.068-.296.12-.507.045-.21.09-.425.13-.646.04-.22.058-.42.058-.596 0-.195-.04-.39-.124-.58-.084-.19-.267-.286-.552-.286-.312 0-.62.112-.917.337a4.21 4.21 0 0 0-.837.867 6.69 6.69 0 0 0-.66 1.093 4.304 4.304 0 0 0-.36 1.006l-.792 3.76h-1.364l1.232-5.902c.029-.13.051-.263.065-.396.015-.126.022-.215.022-.264 0-.293-.104-.482-.31-.566a1.885 1.885 0 0 0-.716-.124h-.12l.132-.617h2.716l-.396 1.85h.146c.4-.646.81-1.137 1.228-1.475a2.217 2.217 0 0 1 1.445-.507c.577 0 .983.165 1.218.492.273.38.395.849.345 1.314l-.02.176h.146c.39-.646.796-1.137 1.216-1.475a2.26 2.26 0 0 1 1.454-.507c.578 0 .983.165 1.218.492.235.327.354.707.354 1.138 0 .244-.033.51-.098.8-.063.29-.12.56-.168.814l-.382 1.732a9.205 9.205 0 0 0-.14.808c-.034.264-.05.51-.05.733 0 .47.17.706.514.706.282 0 .597-.112.938-.338l.266.426a6.882 6.882 0 0 1-.787.564c-.286.184-.62.275-1.003.275l-.002.002Zm4.566 0c-.43 0-.787-.117-1.07-.353-.285-.234-.493-.555-.625-.96a4.412 4.412 0 0 1-.198-1.374c0-.46.062-.94.184-1.446.12-.504.305-.993.548-1.468.246-.475.544-.906.897-1.292a4.117 4.117 0 0 1 1.22-.925 3.37 3.37 0 0 1 1.524-.347c.353 0 .677.05.976.147.3.097.546.226.742.382l.646-.368h.47l-.998 4.698-.09.47c-.038.205-.07.416-.094.63a4.945 4.945 0 0 0-.038.53c0 .497.16.75.485.75a1.4 1.4 0 0 0 .507-.112c.18-.072.363-.164.55-.27l.263.425c-.137.128-.32.26-.558.396-.237.14-.487.255-.747.347-.266.093-.52.14-.764.14-.352 0-.632-.107-.835-.323-.206-.216-.31-.514-.31-.896 0-.196.013-.374.036-.535.025-.162.063-.363.112-.61h-.088c-.343.755-.742 1.336-1.197 1.747-.456.41-.97.617-1.55.617h.002Zm.528-.924c.254 0 .516-.098.785-.295a3.43 3.43 0 0 0 .764-.792c.251-.349.466-.723.64-1.116.185-.412.32-.827.41-1.248l.545-2.6a.998.998 0 0 0-.473-.395 1.612 1.612 0 0 0-.644-.13c-.394 0-.746.107-1.058.328a3.159 3.159 0 0 0-.823.875c-.24.374-.439.773-.594 1.19a7.393 7.393 0 0 0-.476 2.48c0 .607.087 1.042.263 1.307.178.262.397.396.661.396Zm6.094.777 1.23-5.902c.05-.217.08-.438.09-.66 0-.293-.128-.482-.382-.566a2.508 2.508 0 0 0-.793-.124h-.117l.133-.617h2.598l-.308 2.115h.147c.185-.4.386-.772.603-1.116a2.81 2.81 0 0 1 .776-.83c.304-.21.675-.316 1.116-.316.41 0 .714.096.91.286.195.19.294.434.294.727 0 .342-.096.614-.286.814-.19.2-.502.302-.933.302 0-.35-.04-.633-.117-.843-.077-.212-.234-.317-.47-.317-.255 0-.51.132-.77.396-.262.264-.505.613-.735 1.05-.23.435-.438.91-.624 1.423-.179.49-.325.993-.437 1.504l-.56 2.672h-1.363l-.002.002Zm13.782.102c-.538-.01-.975-.06-1.306-.146a1.69 1.69 0 0 1-.808-.454c-.205-.215-.387-.52-.543-.91l-.955-2.35-1.334.853-.603 2.905h-1.366l1.91-9.072.096-.498c.022-.137.035-.23.035-.28 0-.293-.1-.48-.3-.565a1.905 1.905 0 0 0-.73-.125h-.116l.133-.617h2.7l-.57 2.703c-.06.264-.138.61-.23 1.042a86.928 86.928 0 0 1-.64 2.76c-.106.432-.198.773-.278 1.028l2.334-2.026c.392-.343.67-.612.832-.808.16-.196.242-.36.242-.5 0-.126-.048-.207-.14-.24-.094-.036-.262-.052-.507-.052l.132-.617h3.243l-.132.617c-.332 0-.69.12-1.07.36a9.8 9.8 0 0 0-1.292 1.004l-1.337 1.233 1.338 2.907c.165.362.362.658.59.888.222.23.525.346.907.346l-.132.615h-.1l-.003-.001Z"/>
  <path fill="#000" d="M0 0h78v78H0V0Z"/>
  <path fill="#E52518" d="M78 78H0V0h78v78Z"/>
  <path fill="#FFD200" d="M26.748 58.994a.63.63 0 0 1 .634.63c0 .034-.007.075-.007.075h.62s-.01-.043-.01-.076a.634.634 0 0 1 .879-.584.631.631 0 0 1 .392.584c0 .54-.52.987-.947 1.25-.322.194-.624.486-.624.486s-.302-.292-.624-.487c-.43-.262-.947-.708-.947-1.25 0-.347.284-.63.635-.63l-.001.002Zm0-10.405a.63.63 0 0 1 .634.628c0 .035-.007.076-.007.076h.62s-.01-.04-.01-.076a.634.634 0 0 1 .879-.584.631.631 0 0 1 .392.584c0 .542-.52.988-.947 1.25a4.126 4.126 0 0 0-.624.487s-.302-.292-.624-.487c-.43-.262-.947-.708-.947-1.25 0-.347.284-.63.635-.63l-.001.002Zm0-10.432a.63.63 0 0 1 .634.63.509.509 0 0 1-.007.074h.62s-.01-.04-.01-.075a.634.634 0 0 1 .879-.584.631.631 0 0 1 .392.584c0 .542-.52.99-.947 1.25a4.198 4.198 0 0 0-.624.487s-.302-.29-.624-.487c-.43-.26-.947-.707-.947-1.25 0-.347.284-.63.635-.63l-.001.001Zm4.377 18.72s.753.826 1.65 1.116c.47.154.97.145 1.287.145.145 0 .25.04.25.33 0 .288-.045.35-.263.35-.678 0-1.136-.115-1.49-.26-1.12-.457-1.502-1.602-1.502-1.602l.067-.08.001.001Zm0-10.405s.753.826 1.65 1.116c.47.152.97.144 1.287.144.145 0 .25.042.25.33 0 .288-.045.35-.263.35-.678 0-1.136-.113-1.49-.258-1.12-.46-1.502-1.604-1.502-1.604l.067-.08.001.002Zm0-10.43s.753.825 1.65 1.116c.47.152.97.144 1.287.144.145 0 .25.042.25.33 0 .29-.045.35-.263.35-.678 0-1.136-.114-1.49-.26-1.12-.457-1.502-1.602-1.502-1.602l.067-.08.001.002Zm6.96 19.447c.35 0 .634.28.634.63 0 .033-.01.075-.01.075h.62s-.008-.042-.008-.076c0-.35.284-.63.635-.63.35 0 .635.28.635.63 0 .54-.52.987-.947 1.25-.32.194-.624.486-.624.486s-.3-.292-.623-.487c-.43-.263-.947-.71-.947-1.25a.63.63 0 0 1 .634-.63l.001.002Zm0-10.407c.35 0 .634.282.634.63 0 .034-.01.074-.01.074h.62s-.008-.04-.008-.074c0-.35.284-.63.635-.63.35 0 .635.282.635.63 0 .542-.52.988-.947 1.25-.32.195-.624.487-.624.487s-.3-.292-.623-.487c-.43-.262-.947-.708-.947-1.25a.63.63 0 0 1 .635-.63Zm0-10.43c.35 0 .634.283.634.63 0 .034-.01.075-.01.075h.62s-.008-.042-.008-.075a.632.632 0 0 1 .635-.63c.35 0 .635.283.635.63 0 .542-.52.99-.947 1.25-.32.195-.624.487-.624.487s-.3-.292-.623-.487c-.43-.26-.947-.708-.947-1.25a.63.63 0 0 1 .635-.63Zm11.355 24.34c.35 0 .635.283.635.63a.47.47 0 0 1-.008.076h.618s-.007-.043-.007-.076c0-.348.284-.63.634-.63.35 0 .635.282.635.63 0 .54-.52.987-.947 1.25-.322.194-.624.486-.624.486s-.302-.292-.624-.487c-.428-.262-.948-.708-.948-1.25 0-.347.285-.629.636-.629Zm0-10.404c.35 0 .635.28.635.628 0 .026-.003.05-.008.076h.618s-.007-.04-.007-.076c0-.347.284-.63.634-.63.35 0 .635.283.635.63 0 .542-.52.988-.947 1.25a4.126 4.126 0 0 0-.624.487s-.302-.292-.624-.487c-.428-.262-.948-.708-.948-1.25 0-.347.285-.63.636-.63v.002Zm0-10.432c.35 0 .635.282.635.63 0 .034-.008.074-.008.074h.618s-.007-.04-.007-.075a.63.63 0 0 1 .634-.63c.35 0 .635.283.635.63 0 .542-.52.99-.947 1.25a4.198 4.198 0 0 0-.624.487s-.302-.29-.624-.487c-.428-.26-.948-.707-.948-1.25 0-.347.285-.629.636-.629ZM24.71 57.48c.06 5.49 2.077 10.338 14.322 10.338s14.263-4.85 14.323-10.338l.003-25.56h-28.65v25.56h.002Zm24.824-27.442V27.16H28.53v2.878h21.004Zm-.564-7.558c-.265.64-.536.738-.993.738h-2.685c0-2.744 3.51-4.83 3.51-7.298 0 0 .342-.125 1.02-.125.92 0 2.05.35 2.05 1.518 0 1.883-2.262 3.633-2.9 5.168l-.002-.001Zm-6.51.738h-2.126s.71-1.495.71-3.997c0-2.5-.7-3.692-.7-3.692 1.153-.107 2.787-1.137 4.21-1.112 1.097.02 1.842.59 1.842 1.817 0 1.9-2.657 3.434-3.05 6.214-.077.542-.37.77-.886.77Zm-6.857 0c-.517 0-.81-.23-.885-.77-.394-2.782-3.05-4.315-3.05-6.215 0-1.227.746-1.795 1.842-1.817 1.422-.025 3.056 1.005 4.208 1.112 0 0-.698 1.19-.698 3.693s.71 3.998.71 3.998l-2.127-.001Zm-5.517 0c-.456 0-.728-.097-.993-.737-.64-1.534-2.903-3.284-2.903-5.167 0-1.167 1.13-1.518 2.05-1.518.68 0 1.022.125 1.022.125 0 2.47 3.51 4.554 3.51 7.298l-2.686-.001Zm20.05-8.81c-.792 0-1.314.123-1.704.247-.59-1.32-1.547-1.926-3.556-1.926-1.854 0-3.202 1.468-4.87 1.468l.003-.83s1.375-.52 1.375-1.726c0-.908-.566-1.653-1.746-1.84V7.82h1.935V6.78H39.64v-2h-1.168v2h-1.935v1.04h1.935v1.973c-1.213.174-1.794.928-1.794 1.85 0 1.204 1.376 1.726 1.376 1.726v.828c-1.665 0-3.012-1.47-4.867-1.47-2.01 0-2.966.606-3.558 1.927-.39-.125-.913-.246-1.703-.246-2.36 0-3.766 1.088-3.766 2.915 0 2.064 1.92 2.708 2.442 5.042.863.222 1.89 1.004 1.89 2.432v.476H49.57V24.8c0-1.43 1.027-2.21 1.89-2.433.522-2.334 2.44-2.978 2.44-5.042.002-1.827-1.406-2.917-3.764-2.917Z"/>
  <path fill="#00458A" d="M40.184 41.488c-.192-.012-.286-.05-.365-.156-.062-.08-.28-.417-.28-.417h-.165s-.105.294-.188.492a.608.608 0 0 1-.267.282 6.301 6.301 0 0 1-.532.23l-.026.197s.33.176.518.29c.113.068.18.175.243.316.088.2.224.49.224.49h.216s.07-.183.205-.344c.086-.105.167-.185.468-.185h1.684c.42 0 .576-.09.846-.315a61.48 61.48 0 0 0 1.722-1.527l-.326-.412c-.175-.22-.325-.405-.483-.536-.236-.196-.355-.204-.623-.204h-.78v-.462s-.883.443-.883.972c0 .266.465.76.924 1.29h-2.134v-.002l.002.001ZM34 35.497c.245-.006.49-.006.735 0a1.07 1.07 0 0 1-.52.365c-.292.092-.315-.032-.33-.167-.015-.137.072-.195.115-.198Zm-.448 1.61v-.534h.68c.297 0 .473.054.473.337 0 .28.02.928.02 1.19 0 .23-.123.343-.378.343l-.483.003c-.335 0-.668-.048-.848-.31-.167.51-.128 1.328-.058 1.948h.002c1.16-.19 2.294-.445 3.42-1.413.6-.516 1.432-1.236 1.432-1.236-.715-.44-1.303-1.24-1.56-1.69-.163-.288-.396-.356-.416-.362l.612-1.12-.17-.11s-.583.42-.72.516c-.137.094-.214.042-.273-.07-.06-.115-.405-.855-.405-.855h-.144s-.346.74-.405.854c-.06.114-.136.165-.273.07-.138-.093-.72-.515-.72-.515l-.17.11.605 1.106h-.007l-.728.038c-.124.006-.245.092-.245.276v.47c0 .754.76.956.76.956l-.001-.002Z"/>
  <path fill="#00458A" d="M27.37 42.47a.727.727 0 0 1 .277.282c.113.186.283.457.283.457l.214-.03s.047-.192.16-.37c.074-.115.167-.182.466-.222.297-.04 4.144-.443 6.352-.77v.362c3.06-.403 4.895-3.302 7.438-3.302.81 0 1.384.356 1.974 1.104.575.73.662.904 1.553.904h1.477l.926 1.07c.105.144.116.252.07.374-.033.093-.202.456-.202.456l.1.128s.307-.082.524-.125a.64.64 0 0 1 .395.05c.196.095.5.29.5.29l.183-.108s-.034-.34-.04-.556a.585.585 0 0 1 .1-.358c.122-.183.332-.465.332-.465l-.11-.15s-.212.028-.425.013c-.14-.01-.257-.056-.438-.284l-1.156-1.436c-1.468 0-1.635-.224-1.977-.92 1.55-.044 1.953-.59 1.953-1.407 0-.817-.692-1.217-1.91-1.217-.75 0-2.423.01-3.036.01-.656 0-1.02-.058-1.02-.488s.29-.57 2.113-.57c1.09 0 2.512.04 2.512.04.392.32.416.344.72.363h1.294v-.388c.092.05.263.042.424.042 1.394 0 2.13-.98 2.13-.98l-.12-.11s-.708.442-2.043.442c-.17 0-.314-.002-.39.032v-.423h-1.27c-.312 0-.392.065-.766.33 0 0-1.832-.04-2.737-.04-2.223 0-2.837.454-2.837 1.27 0 .815.662 1.202 1.88 1.202.75 0 2.423-.01 3.036-.01.656 0 1.02.072 1.02.502s-.282.543-1.344.543c-.645 0-1.244-.275-2.305-.275-1.162 0-1.713.1-2.375.18 0 0-.74.09-1.307.09a4.74 4.74 0 0 1-1.6-.303c-.33.285-.9.78-1.626 1.404-1.24 1.067-2.513 1.348-3.71 1.545-.25.044-4.333.72-4.484.737-.156.017-.29-.014-.38-.106-.07-.07-.33-.376-.33-.376l-.164.028s-.068.3-.126.506a.615.615 0 0 1-.23.315c-.18.126-.5.3-.5.3l.016.207s.33.12.533.21l.003.001Z"/>
  <path fill="#00458A" d="m27.185 36.194.095.16s.27-.04.486-.05c.14-.006.208.027.31.13.52.523 2.31 2.197 3.778 3.834l.538-.09c-.06-.48-.104-1.11-.042-1.62-1.253-1.09-3.163-2.755-3.23-2.836-.117-.146-.146-.238-.117-.365.02-.096.142-.476.142-.476l-.114-.115s-.295.116-.504.187a.654.654 0 0 1-.398-.007c-.207-.07-.533-.227-.533-.227l-.166.13s.078.3.11.514a.622.622 0 0 1-.086.38c-.112.2-.27.452-.27.452l.001-.001ZM40.184 51.92c-.192-.013-.286-.052-.365-.157-.062-.08-.28-.417-.28-.417l-.165.005s-.105.29-.188.488a.608.608 0 0 1-.267.282c-.193.1-.532.233-.532.233l-.026.194s.33.176.518.292c.113.066.18.174.243.313.088.2.224.49.224.49h.216s.07-.183.205-.345c.086-.103.167-.183.468-.183h1.684c.42 0 .576-.09.846-.314a62.06 62.06 0 0 0 1.722-1.526l-.326-.414c-.175-.22-.325-.405-.483-.536-.236-.195-.355-.204-.623-.204h-.78v-.463s-.883.443-.883.973c0 .265.465.76.924 1.288h-2.134l.002.001Zm-5.968-5.628c-.293.093-.316-.033-.33-.167-.016-.136.07-.194.114-.198.245-.006.49-.006.735 0-.027.05-.225.272-.519.365Zm.13 2.583h-.483c-.335 0-.668-.046-.848-.31-.167.51-.128 1.33-.058 1.95h.002c1.158-.19 2.293-.445 3.418-1.414.6-.515 1.433-1.235 1.433-1.235-.714-.44-1.302-1.24-1.558-1.69-.164-.29-.397-.357-.417-.362l.612-1.12-.17-.11s-.583.422-.72.515c-.137.094-.214.042-.273-.07-.06-.114-.405-.854-.405-.854h-.145s-.346.74-.405.854c-.06.113-.137.165-.274.07-.138-.093-.72-.515-.72-.515l-.17.11.605 1.108h-.006l-.728.037c-.124.007-.245.094-.245.277v.47c0 .752.762.954.762.954v-.535h.68c.297 0 .473.055.473.337 0 .28.02.93.02 1.19 0 .23-.124.345-.38.345v-.002Z"/>
  <path fill="#00458A" d="M49.365 45.034c-.17 0-.314 0-.39.034v-.423h-1.27c-.312 0-.392.064-.766.33 0 0-1.832-.043-2.737-.043-2.223 0-2.837.456-2.837 1.27 0 .814.662 1.204 1.88 1.204.75 0 2.423-.01 3.036-.01.656 0 1.02.07 1.02.5s-.282.545-1.344.545c-.645 0-1.244-.274-2.305-.274-1.162 0-1.713.1-2.375.178 0 0-.74.093-1.307.093-.533 0-1.113-.12-1.6-.305-.33.283-.9.778-1.626 1.403-1.24 1.067-2.513 1.35-3.71 1.546-.25.042-4.333.717-4.484.735-.156.02-.29-.013-.38-.106-.07-.07-.33-.377-.33-.377l-.164.028s-.068.3-.126.508a.627.627 0 0 1-.23.315c-.18.126-.5.3-.5.3l.016.204s.33.123.533.214c.098.045.198.15.277.282.113.187.283.457.283.457l.214-.03s.047-.19.16-.37c.074-.114.167-.182.466-.22.297-.042 4.144-.445 6.352-.77v.36c3.06-.403 4.895-3.302 7.438-3.302.81 0 1.384.355 1.974 1.104.575.73.662.903 1.553.903.892 0 1.477-.005 1.477-.005l.926 1.07c.105.147.116.256.07.378-.033.092-.202.456-.202.456l.1.127s.307-.08.524-.124a.642.642 0 0 1 .395.053c.196.094.5.287.5.287l.183-.11s-.034-.34-.04-.553a.58.58 0 0 1 .1-.358c.122-.183.332-.466.332-.466l-.11-.15s-.212.028-.425.013c-.14-.01-.257-.055-.438-.283l-1.156-1.436c-1.468 0-1.635-.225-1.977-.92 1.55-.047 1.953-.59 1.953-1.408 0-.815-.692-1.217-1.91-1.217-.75 0-2.423.01-3.036.01-.656 0-1.02-.058-1.02-.49 0-.43.29-.57 2.113-.57 1.09 0 2.512.042 2.512.042.392.317.416.343.72.362h1.294v-.384c.092.05.263.044.424.044 1.394 0 2.13-.982 2.13-.982l-.12-.11s-.707.442-2.043.442l.003-.001Z"/>
  <path fill="#00458A" d="m27.185 46.624.095.158s.27-.037.486-.047c.14-.007.208.026.31.13.52.52 2.31 2.196 3.778 3.832l.538-.088c-.06-.483-.104-1.112-.042-1.62-1.253-1.092-3.163-2.757-3.23-2.838-.117-.145-.146-.24-.117-.365.02-.096.142-.476.142-.476l-.114-.115s-.295.116-.504.187a.653.653 0 0 1-.398-.006c-.207-.072-.533-.228-.533-.228l-.166.13s.078.303.11.514a.627.627 0 0 1-.086.383c-.112.198-.27.45-.27.45l.001-.001ZM34 56.333c.245-.006.49-.006.735 0-.027.048-.226.27-.52.364-.292.093-.315-.032-.33-.168-.015-.135.072-.193.115-.196Zm-.964-.09c-.124.006-.245.093-.245.277v.47c0 .752.762.954.762.954v-.536h.68c.297 0 .473.055.473.338 0 .28.02.928.02 1.19 0 .23-.123.343-.378.343h-.483c-.335 0-.668-.047-.848-.31-.167.51-.128 1.33-.058 1.95h.002c1.16-.19 2.294-.444 3.42-1.415.6-.516 1.432-1.236 1.432-1.236-.715-.44-1.303-1.24-1.56-1.69-.163-.29-.396-.356-.416-.363l.612-1.12-.17-.11s-.583.422-.72.516c-.137.095-.214.043-.273-.07-.06-.115-.405-.853-.405-.853h-.144s-.346.738-.405.853c-.06.114-.136.165-.273.07-.138-.093-.72-.516-.72-.516l-.17.113.604 1.106h-.006s-.537.027-.728.038l-.003.001Zm10.641 4.487c-.235-.196-.354-.205-.622-.205h-.67v-.463s-.806.443-.806.973c0 .21.242.563.572.965l-1.03.707c-.157.09-.248.104-.36.055a12.509 12.509 0 0 1-.417-.213l-.126.09s.056.3.086.51a.644.644 0 0 1-.074.38c-.1.187-.3.472-.3.472l.072.183s.34-.02.543-.02c.1.002.224.06.34.147.165.125.41.305.41.305l.167-.11s-.032-.194-.005-.4c.016-.134.057-.237.275-.398l2.708-2.08c-.067-.087-.197-.25-.283-.36-.174-.225-.324-.41-.483-.54l.003.002Z"/>
  <path fill="#00458A" d="M49.365 55.44c-.17 0-.314-.002-.39.033v-.424h-1.27c-.312 0-.392.064-.766.33 0 0-1.832-.044-2.737-.044-2.223 0-2.837.457-2.837 1.272s.662 1.203 1.88 1.203c.75 0 2.423-.01 3.036-.01.656 0 1.02.072 1.02.503s-.282.544-1.344.544c-.645 0-1.244-.276-2.305-.276-1.162 0-1.713.1-2.375.178 0 0-.74.094-1.307.094a4.74 4.74 0 0 1-1.6-.304c-.33.283-.9.778-1.626 1.403-1.24 1.067-2.513 1.35-3.71 1.546-.25.042-2.955.496-3.107.515-.156.02-.29-.012-.38-.106-.07-.07-.33-.376-.33-.376l-.163.03s-.07.297-.128.505a.61.61 0 0 1-.23.316c-.178.125-.498.3-.498.3l.015.203s.332.123.533.214c.1.044.2.15.278.28.113.187.283.457.283.457l.214-.03s.05-.19.163-.368c.073-.114.165-.182.463-.223.3-.04 2.767-.222 4.975-.548v.36c3.06-.4 4.896-3.3 7.44-3.3.808 0 1.383.354 1.973 1.103.575.73.662.903 1.553.903h1.37l.497 1.056c.056.17.033.277-.048.38-.06.077-.333.37-.333.37l.054.153s.317.018.54.043a.63.63 0 0 1 .358.17c.157.152.387.43.387.43l.208-.048s.072-.334.132-.54a.583.583 0 0 1 .207-.31c.173-.137.458-.34.458-.34l-.057-.178s-.21-.038-.41-.12c-.128-.05-.227-.13-.33-.403l-.795-1.765c-1.468 0-1.635-.225-1.977-.922 1.55-.044 1.953-.59 1.953-1.405 0-.816-.693-1.218-1.91-1.218-.752 0-2.424.01-3.037.01-.656 0-1.02-.057-1.02-.487s.29-.572 2.113-.572c1.09 0 2.512.042 2.512.042.393.316.417.343.72.362h1.295v-.386c.092.05.263.042.424.042 1.394 0 2.13-.98 2.13-.98l-.12-.11c.002.003-.706.443-2.042.443h-.002Z"/>
  <path fill="#00458A" d="m31.854 61.102.538-.087c-.06-.483-.104-1.112-.042-1.62-1.253-1.092-3.163-2.756-3.23-2.837-.117-.147-.146-.24-.117-.365.02-.096.142-.476.142-.476l-.114-.115s-.295.115-.504.187a.646.646 0 0 1-.398-.007c-.207-.072-.533-.228-.533-.228l-.166.13s.078.303.11.516a.622.622 0 0 1-.086.382c-.112.197-.27.45-.27.45l.096.158s.27-.038.486-.05c.14-.006.208.028.31.13.52.522 2.31 2.197 3.778 3.832Z"/>
</svg>
