<svg xmlns="http://www.w3.org/2000/svg" width="225" height="100" fill="currentColor" viewBox="0 0 225 100"><path fill-rule="evenodd" d="M76.22.17c-5.33.52-8.29 3.25-9.32 8.6-.69 3.56-.47 8.8.5 11.63a8.89 8.89 0 0 0 4.1 5.11c1.99 1.02 3.83 1.34 7.3 1.25 2.54-.06 3.5-.22 5.05-.83 3.14-1.24 4.95-3.93 5.65-8.38.28-1.8.28-6.11 0-7.91C88.56 3.66 85.57.7 79.92.17a18 18 0 0 0-3.7 0ZM185.3.2c-5.33.55-8.25 3.44-9.27 9.2-.28 1.6-.27 6.88.02 8.47 1.01 5.55 3.57 8.15 8.68 8.83 1.5.2 5.4.07 6.65-.22 4.61-1.08 6.89-4.12 7.5-10.01.18-1.7.08-5.87-.17-7.22-.76-4.1-2.44-6.64-5.25-8-2-.96-5.12-1.36-8.16-1.05Zm-62.9.17c-1.14.04-1.34.07-1.39.24-.08.3-5.3 25.61-5.3 25.74 0 .07 1.2.1 3.32.08l3.32-.03.44-2.16.55-2.76.12-.6h8.05l.12.6.55 2.76.44 2.16 3.36.03 3.36.03-.21-1.05A1741.31 1741.31 0 0 0 133.9.47c-.1-.1-9.2-.19-11.51-.1ZM1.14 13.48v12.97h6.82V.51H1.14v12.97Zm12.63 0v12.97h6.71l.03-6.95.02-6.95 4.5 6.92 4.5 6.92 2.7.03 2.7.03V.51H28.1l-.04 7.1-.03 7.11-4.38-7.08-4.4-7.07-2.74-.03L13.77.5v12.97Zm26.96 0v12.97h6.71l.03-6.94.03-6.95 4.5 6.92 4.49 6.91 2.7.03 2.7.03V.51h-6.83l-.03 7.11-.02 7.11-4.4-7.08L46.23.57 43.48.54 40.73.5v12.97ZM92.03.58c0 .1 4.92 25.7 4.95 25.72 0 .02.63.1 1.38.17 2.53.26 11.33.12 11.63-.2.03-.02 1.15-5.74 2.48-12.7L114.95.7c.04-.19-.16-.2-3.43-.17l-3.48.03-1.62 8.87-1.81 10c-.23 1.28-.48 1.66-1.07 1.66-.49 0-.68-.1-.87-.46-.13-.25-1.05-5.24-3.65-19.76L98.95.5H95.5c-1.9 0-3.45.03-3.45.07Zm47.79 2.78V6.2h6.71v20.25h6.71V6.2l2.91-.03 2.92-.03 1-2.78c.57-1.53 1.02-2.8 1.02-2.82 0-.01-4.78-.03-10.63-.03h-10.64v2.85Zm24.57 10.12v12.97h6.71V.51h-6.71v12.97Zm39.25 0v12.97h6.71l.03-6.97.03-6.97 4.53 6.97 4.53 6.97h5.33V.51h-6.71l-.03 7.17-.03 7.17-4.44-7.16-4.43-7.17h-5.52v12.96ZM127 5.4c-.14.06-.33.23-.43.38-.14.2-2 9-2 9.43 0 .05 1.3.1 2.9.1 2.3 0 2.9-.04 2.9-.16 0-.24-1.7-8.64-1.82-9.02a1.5 1.5 0 0 0-.33-.55c-.25-.23-.89-.32-1.22-.18Zm-49.87.7c-1.82.26-2.76 1.31-3.26 3.63a32.7 32.7 0 0 0-.01 7.4c.4 1.9.97 2.81 2.11 3.37.61.3.74.32 2.13.32 1.3 0 1.55-.03 2.05-.26 1.12-.52 1.78-1.49 2.19-3.2.28-1.23.29-6.48 0-7.76-.5-2.28-1.41-3.23-3.34-3.5a4.55 4.55 0 0 0-1.87 0Zm109.33-.02c-1.41.2-2.25.8-2.86 2.1-.52 1.13-.7 2.5-.7 5.3 0 5.78 1.14 7.54 4.8 7.37 1.4-.07 2.03-.29 2.69-.95 1.12-1.12 1.65-3.79 1.49-7.5-.16-3.71-.9-5.43-2.59-6.06a6.84 6.84 0 0 0-2.83-.26ZM10.36 36.42c-2.39.28-3.55.56-4.84 1.17-3 1.41-4.6 3.89-5.26 8.11a40.6 40.6 0 0 0 0 8.26c.82 5.28 3.03 7.76 7.84 8.8 1.51.32 5.66.41 7.94.17 2.6-.28 4.1-.54 4.1-.7 0-.16-1.48-5.66-1.54-5.72a23.09 23.09 0 0 1-7.85.54c-1.81-.34-2.78-1.42-3.31-3.7-.31-1.3-.31-6.06-.01-7.36.45-1.9 1.3-2.96 2.74-3.42 1.44-.45 5.04-.3 7.73.32.64.15.66.15.76-.1.22-.53 1.51-5.53 1.44-5.6-.1-.1-.92-.25-2.92-.51a50.43 50.43 0 0 0-6.83-.26Zm13.87 13.3v13.02h17.98v-5.69H30.94V52.4h7.29v-5.6h-7.29v-4.3h5.01c2.75 0 5-.02 5-.06 0-.05 1.1-5.01 1.22-5.48l.06-.26h-18v13.03Zm22.19 0v13.02h6.71v-6.96c0-5.92.02-6.94.16-6.8.08.1 2.14 3.23 4.56 6.96l4.41 6.8h5.32V36.7h-6.72v7.2c0 6.05-.02 7.16-.15 7.02-.08-.1-2.11-3.33-4.5-7.2l-4.35-7.02h-5.44v13.03ZM71.9 39.59v2.9h6.71v20.25h6.71V42.5l2.92-.03 2.9-.04 1.02-2.78a81.94 81.94 0 0 0 1.01-2.87c0-.05-4.78-.1-10.63-.1H71.9v2.91ZM96.47 49.7v13.04h6.72v-3.9c0-4.07.05-4.61.48-4.91.38-.27 1.1-.22 1.58.1.5.34.9.9 3.9 5.3 1.3 1.9 2.43 3.54 2.5 3.62.13.13.68 0 3.33-.84a99.06 99.06 0 0 0 3.3-1.06c.1-.06-.93-1.49-3.22-4.45-2.84-3.69-3.34-4.39-3.19-4.49.1-.06.5-.3.87-.5a9.29 9.29 0 0 0 3.35-3.42 7.1 7.1 0 0 0 .79-3.76c-.02-2.46-.58-4.07-1.86-5.35a8.16 8.16 0 0 0-3.08-1.75c-1.83-.52-2.27-.55-9.01-.6l-6.46-.06V49.7Zm25.26.02v13.02h17.97v-5.69h-11.26V52.4h7.28v-5.6h-7.28v-4.3h5c2.76 0 5.01-.01 5.01-.03a349.8 349.8 0 0 1 1.25-5.74c0-.02-4.04-.03-8.98-.03h-9v13.03Zm-18.55-4.57v3.14h2.1c1.76 0 2.2-.03 2.82-.22 1.3-.4 1.91-1.34 1.91-2.95 0-1.47-.41-2.24-1.47-2.73-.6-.28-.73-.3-3-.33l-2.36-.05v3.14ZM76.92 72.28c-.63.06-.75.11-.77.3-.02.13-.34 5.84-.7 12.69-.38 6.85-.72 12.88-.76 13.4l-.07.93h3.3c2.58 0 3.32-.03 3.31-.14-.02-.93.63-17.05.7-17.24.12-.3.4-.33.54-.05.06.1 1.07 4.08 2.24 8.82l2.14 8.61 4.14-.03 4.15-.02 2.04-8.2c1.12-4.5 2.12-8.46 2.21-8.78.17-.6.36-.74.6-.46.08.1.23 3.06.41 8.11.17 4.38.33 8.28.36 8.67l.06.71h6.46v-.54c-.01-1.3-1.46-26.67-1.53-26.74-.13-.13-10.16-.1-10.29.04-.06.06-1.03 4.25-2.16 9.32a188 188 0 0 1-2.2 9.3c-.08.04-.2.02-.28-.06-.07-.07-1.06-4.28-2.2-9.35a591 591 0 0 0-2.12-9.27c-.08-.08-8.76-.1-9.6-.02Zm38.99-.01a3 3 0 0 0-1 .12c0 .04-1.25 6.15-2.78 13.56-1.54 7.41-2.8 13.52-2.8 13.57 0 .04 1.57.08 3.48.08h3.46l.08-.29.6-2.92.54-2.65 4.21-.03 4.22-.03.48 2.42.6 2.96.1.54h7.03l-.06-.31-2.81-13.62-2.76-13.31-1.13-.08a304.7 304.7 0 0 0-11.46-.01ZM.9 85.96v13.66l5.94-.05c3.88-.03 6.24-.1 6.8-.19 3.35-.55 5.68-1.72 7.19-3.62 1.32-1.66 2.18-4.02 2.48-6.82.19-1.7.1-5.87-.16-7.26-.84-4.51-3.08-7.3-6.83-8.5-2.27-.74-3.95-.88-10.5-.88H.91v13.66Zm25.94-.01V99.6h18.89l-.03-2.98-.03-3-5.9-.02-5.88-.03v-4.89h7.62v-5.69H33.9v-4.66h10.46l.06-.26c.38-1.6 1.2-5.4 1.2-5.56 0-.2-.35-.21-9.39-.21h-9.38v13.65Zm21.73 0V99.6h7.05l.03-7.3.03-7.31 4.73 7.28 4.73 7.28 2.8.03 2.81.03-.03-13.63-.02-13.63-3.5-.03-3.5-.03v7.54c0 5.24-.04 7.5-.12 7.41a531.6 531.6 0 0 1-4.7-7.5l-4.58-7.38-2.87-.04-2.86-.03v13.66Zm88.17 0V99.6h7.05v-4.07c0-2.47.05-4.23.12-4.49.2-.69.5-.9 1.23-.85.55.04.65.1 1.2.66.34.34 1.9 2.51 3.48 4.83a863.2 863.2 0 0 0 2.91 4.25c.06.06 6.78-2.04 6.91-2.15.05-.05-1.47-2.11-3.38-4.6a166.94 166.94 0 0 1-3.48-4.59c0-.05.3-.26.69-.46a11.7 11.7 0 0 0 2.9-2.38c.62-.79 1.35-2.23 1.59-3.16.24-.9.24-3.24 0-4.38a6.64 6.64 0 0 0-4.47-5.06c-2.08-.73-3.66-.85-10.92-.85h-5.83v13.65Zm24.91 0V99.6h7.05v-4.35c0-3.99.03-4.39.22-4.81.26-.58.7-.79 1.49-.71.37.04.7.16.96.36.25.2 1.5 1.97 3.45 4.9l3.17 4.8c.11.19.4.12 3.7-.91 1.96-.62 3.6-1.15 3.64-1.2.04-.04-2.05-2.83-4.64-6.21-2.6-3.38-4.74-6.2-4.78-6.28-.03-.08 2-2.98 4.5-6.45a432.2 432.2 0 0 0 4.56-6.38c0-.03-1.84-.06-4.09-.06h-4.1l-.43.6c-.24.32-2.04 2.94-4.01 5.81l-3.58 5.22-.03-5.81-.03-5.82h-7.05v13.65Zm-40.73-8.22c-.35.31-.37.4-1.31 5.08a222.4 222.4 0 0 0-.96 4.92c0 .12.58.15 3.01.15 2.82 0 3.02 0 3.02-.2 0-.34-1.81-9.28-1.95-9.61-.28-.68-1.23-.86-1.81-.34Zm22.87 3.43v3.31h2.04c1.13 0 2.31-.06 2.65-.13 1.78-.38 2.58-1.53 2.45-3.57-.09-1.42-.56-2.14-1.67-2.57-.56-.22-.92-.26-3.05-.3l-2.42-.05v3.3ZM7.96 85.94v7.63h1.62c1.87 0 2.75-.17 3.75-.7a4.06 4.06 0 0 0 1.86-2.07c.62-1.32.8-2.4.78-4.96-.01-3.69-.55-5.41-2.07-6.57-.85-.65-1.74-.85-3.97-.91l-1.97-.06v7.64Z" clip-rule="evenodd"/></svg>