<svg xmlns="http://www.w3.org/2000/svg" width="300" height="93" fill="currentColor" viewBox="0 0 300 93">
  <defs>
    <clipPath id="a">
      <path d="M0 0h300v93H0z"/>
    </clipPath>
  </defs>
  <g clip-path="url(#a)">
    <path fill-rule="evenodd" d="M244.65.051c-1.028.146-1.982 1.026-2.259 2.085-.504 1.931 1.21 3.815 3.174 3.488.822-.137 1.402-.507 1.905-1.216.349-.49.481-.924.481-1.576s-.132-1.085-.481-1.576c-.491-.691-1.112-1.089-1.889-1.209-.411-.063-.455-.063-.931.004ZM232.32 6.77v5.936l-.465-.228a38.207 38.207 0 0 1-.572-.284 3.393 3.393 0 0 0-.311-.132 70.228 70.228 0 0 1-.514-.194c-.797-.305-2.291-.719-2.963-.82a20.198 20.198 0 0 1-.62-.112 13.945 13.945 0 0 0-1.242-.135l-1.218-.087c-.535-.04-2.517.12-3.212.26-1.037.208-2.172.54-2.821.822-.236.102-1.616.784-1.778.877-.242.14-1.133.739-1.224.822a3.34 3.34 0 0 1-.17.145c-.592.448-1.383 1.206-1.999 1.913-.336.385-.98 1.233-.98 1.289 0 .015-.082.15-.183.298-.332.49-.921 1.631-1.199 2.325-.081.201-.17.417-.198.478a5.55 5.55 0 0 0-.16.45l-.205.648c-.146.46-.308 1.1-.4 1.576-.361 1.87-.392 2.23-.39 4.475.003 2.44.073 3.095.542 5.093.173.736.566 1.925.81 2.449l.233.506c.643 1.397 1.819 2.945 3.027 3.985.349.3 1.209.933 1.34.985.046.02.186.102.31.186.279.187 1.007.555 1.495.756l.48.199c.062.026.303.11.536.186 2.454.807 5.386.961 7.985.422 1.992-.413 4.22-1.438 5.615-2.582.139-.115.307-.236.372-.27.108-.057.125-.043.18.146.033.115.077.335.097.49.02.155.06.357.088.45.028.093.087.372.131.62.044.247.107.52.141.605l.061.156 1.313-.015 1.313-.015V.862l-1.623-.015-1.622-.015v5.937Zm46.23 14.369.014 20.305h3.216l.015-5.957.014-5.957.619-.667c.658-.708 1.239-1.327 1.61-1.714.387-.403 1.678-1.771 1.987-2.104l.294-.317.101.14c.055.078.129.191.164.253.142.252 5.39 9.292 6.144 10.583.062.106.185.327.274.49a4.2 4.2 0 0 0 .229.382c.037.046.098.147.135.225.037.077.132.242.21.366.078.123.166.275.196.337s.117.214.193.338c.077.124.175.288.218.366.138.248.335.586.443.76.058.093.144.245.191.337.048.093.15.27.227.394.077.124.167.276.199.338s.12.214.196.338c.076.124.176.3.224.394.091.18.162.299.327.548l.103.155h1.934c1.063 0 1.948-.014 1.966-.033.03-.03-.031-.145-.307-.577a22.167 22.167 0 0 1-.328-.543 24.3 24.3 0 0 0-.327-.545c-.172-.271-.6-.972-.681-1.116-.193-.343-.271-.472-.8-1.323-.467-.752-.942-1.53-1.211-1.986a63.24 63.24 0 0 0-.311-.507 64.52 64.52 0 0 1-.31-.506c-.458-.77-.565-.945-.596-.969a.243.243 0 0 1-.058-.084 32.15 32.15 0 0 0-.7-1.173c-.099-.16-.22-.359-.606-1l-.198-.326-.246-.408a289.58 289.58 0 0 0-.607-.999c-.252-.415-.459-.774-.459-.797a.075.075 0 0 0-.043-.063c-.036-.015-.203-.28-.605-.959l-.396-.647a16.816 16.816 0 0 1-.378-.636 9.54 9.54 0 0 0-.295-.478 39.08 39.08 0 0 1-.58-.947c-.18-.305-.365-.613-.411-.686-.078-.122-.516-.831-.649-1.05-.236-.39-.367-.63-.367-.67 0-.027.288-.347.641-.711.352-.365.735-.765.851-.889.194-.207 1.423-1.494 2.091-2.19.309-.322.758-.793 2.173-2.28.512-.54 1.083-1.138 1.269-1.33.186-.193.515-.537.731-.765.215-.228.659-.693.987-1.034.328-.34.848-.885 1.156-1.21l.56-.59-1.858-.016-1.858-.016-.338.355c-.187.194-.529.557-.762.806l-1.028 1.097-.818.875a472.68 472.68 0 0 1-2.274 2.426c-.17.184-.64.683-1.044 1.11-.403.428-.835.892-.959 1.031-.124.14-.365.399-.536.576-.433.449-.947.997-1.668 1.777-.339.368-.694.749-.787.846-.093.096-.448.475-.79.84l-.707.754-.903.955-.816.865-.028-12.431L281.78.862l-1.622-.015-1.622-.015.014 20.306ZM17.296 10.72c-1.326.107-1.907.201-3.02.488a13.154 13.154 0 0 0-1.608.544c-.405.153-2.051.953-2.37 1.151-.124.077-.302.183-.395.234-.17.094-.74.46-.846.543-.031.024-.31.23-.62.457-.311.227-.68.505-.819.617l-.254.204-.043-.21a99.029 99.029 0 0 1-.349-2.04l-.148-.887-.07-.409-1.331.015-1.332.015v30h3.273l.028-11.91.028-11.912.48-.372.536-.415c.51-.392 2.123-1.37 2.934-1.778 3.064-1.543 5.417-1.946 7.652-1.311a6.355 6.355 0 0 1 1.32.62c.527.362 1.111.964 1.425 1.469.16.256.466.906.466.987a.24.24 0 0 0 .049.141c.05.056.208.633.306 1.123.036.179.069 4.489.09 11.82l.035 11.538 1.624.015 1.624.015-.02-11.666c-.018-11.521-.02-11.674-.136-12.313-.247-1.366-.432-1.955-.917-2.927a6.516 6.516 0 0 0-1.802-2.197c-.236-.186-.46-.362-.496-.392-.086-.07-.956-.514-1.176-.601a9.566 9.566 0 0 0-1.325-.413c-.456-.106-2.11-.291-2.422-.271-.08.005-.247.018-.371.028Zm26.916 0c-1.962.157-2.447.24-3.752.646-.349.109-.99.348-1.181.44-.892.433-1.988 1.065-2.148 1.239a9.092 9.092 0 0 1-.367.28c-.43.316-1.62 1.503-1.949 1.945-.138.185-.266.35-.283.366-.038.033-.608.903-.774 1.182-.297.498-1.029 2.032-1.03 2.16a.657.657 0 0 1-.073.204 5.98 5.98 0 0 0-.227.647l-.232.76c-.083.27-.247 1.018-.395 1.8-.086.46-.149.958-.26 2.055-.067.67-.065 3.292.004 3.968.184 1.817.302 2.493.728 4.148.085.333.465 1.456.567 1.678l.23.506c.348.772.989 1.924 1.251 2.252.025.03.25.318.501.639.471.602 1.063 1.223 1.538 1.613.15.123.315.264.366.314.126.12.73.557.77.557.017 0 .151.083.298.185.147.101.331.215.409.253.077.037.179.093.225.124.152.1.865.422 1.298.586.233.088.474.18.536.205.5.197 1.662.472 2.37.562 1.523.192 2.56.197 3.95.021.805-.101 2.241-.42 2.596-.577.062-.027.29-.12.508-.206.972-.386 1.487-.649 2.196-1.123.21-.14.39-.255.404-.255.066 0 1.003-.812 1.462-1.267.796-.79 1.614-1.877 2.115-2.813.099-.186.203-.376.23-.422.073-.123.506-1.071.506-1.107 0-.017.037-.11.082-.208.217-.469.585-1.662.767-2.485.354-1.607.562-3.537.562-5.22 0-.907-.118-2.6-.23-3.307-.031-.201-.082-.53-.111-.732-.115-.778-.547-2.387-.848-3.151-.066-.17-.159-.411-.204-.535-.116-.315-.735-1.563-.885-1.786a9.823 9.823 0 0 1-.286-.465 5.748 5.748 0 0 0-.365-.543 7.931 7.931 0 0 1-.288-.39c-.126-.194-.99-1.149-1.29-1.428-.716-.665-1.897-1.53-2.382-1.748a2.79 2.79 0 0 1-.278-.14c-.267-.172-1.367-.64-1.665-.71a.79.79 0 0 1-.226-.083c-.068-.053-.556-.176-1.438-.365-.574-.122-2.552-.323-2.935-.297l-.367.028Zm58.292 0c-1.709.136-1.842.155-2.85.396-.393.095-1.31.38-1.495.466a15.1 15.1 0 0 1-.451.191 11.15 11.15 0 0 0-1.484.773c-.134.09-.256.163-.27.163-.104 0-1.216.89-1.717 1.374-.47.454-1.034 1.082-1.245 1.384-.076.108-.151.21-.168.225a5.5 5.5 0 0 0-.364.515l-.424.733c-.316.55-.423.752-.68 1.289-.022.048-.11.264-.192.478-.083.215-.187.479-.23.587-.077.187-.242.721-.435 1.407-.53 1.877-.797 4.6-.67 6.82.077 1.37.141 2.033.264 2.749.354 2.066.87 3.68 1.683 5.253.278.538.446.82.86 1.444.64.97 2.083 2.427 2.991 3.025l.32.21c.117.079.23.143.25.143.019 0 .075.035.124.077.22.192 1.49.78 2.233 1.035 1.204.413 1.881.543 3.612.695 1.323.117 3.483-.109 4.74-.495.493-.152 1.112-.362 1.206-.41.05-.026.257-.116.458-.2 1.352-.56 2.854-1.657 3.98-2.906.836-.927 1.703-2.289 2.215-3.481.197-.458.511-1.264.548-1.407.02-.078.059-.192.087-.253.19-.422.622-2.443.734-3.434.031-.279.083-.722.114-.985.096-.798.129-2.724.06-3.546-.093-1.116-.226-2.364-.257-2.414a2.94 2.94 0 0 1-.087-.433c-.146-.943-.711-2.905-.991-3.44a.78.78 0 0 1-.082-.208c-.001-.07-.705-1.475-.878-1.75a4.117 4.117 0 0 1-.178-.31c-.05-.114-.904-1.274-1.116-1.517-.822-.938-1.98-1.92-2.898-2.46-.586-.344-2.061-1.032-2.212-1.032a.917.917 0 0 1-.243-.08c-.562-.255-1.938-.521-3.216-.623-1.03-.083-1.166-.087-1.646-.048Zm43.705.024c-1.061.09-1.924.25-2.85.53a51.14 51.14 0 0 1-.705.208.823.823 0 0 0-.251.106.222.222 0 0 1-.132.051c-.043 0-.26.08-.483.175a20.752 20.752 0 0 0-4.889 2.952l-.252.202-.075-.384c-.073-.377-.127-.703-.346-2.1a25.06 25.06 0 0 0-.15-.888l-.039-.184-1.333.015-1.333.015v30h3.273l.017-11.904.018-11.904.445-.352c.246-.194.47-.352.498-.352.029 0 .083-.037.121-.083.06-.071.458-.343 1.243-.847.671-.431 2.92-1.603 3.076-1.603.021 0 .119-.034.216-.076.313-.133.792-.308 1.025-.374 1.195-.338 2.181-.507 2.963-.507.968 0 2.199.272 2.842.628.657.362.764.438 1.184.834.743.7 1.278 1.731 1.547 2.985.081.377.094 1.649.122 11.989l.032 11.566 1.623.015 1.624.015-.018-11.722-.018-11.722-.123-.648a16.994 16.994 0 0 0-.178-.844c-.35-1.249-.623-1.89-1.125-2.645a7.602 7.602 0 0 0-.403-.567l-.231-.253a6.57 6.57 0 0 0-.982-.871 3.199 3.199 0 0 1-.31-.231c-.034-.044-.922-.498-1.159-.593a8.43 8.43 0 0 0-2.34-.574c-.994-.097-1.525-.111-2.144-.059Zm26.581.03c-.9.075-1.813.235-2.627.46-.437.122-1.42.474-1.587.568a9.268 9.268 0 0 1-.444.22c-.187.09-.441.22-.565.292-.124.072-.276.159-.338.193-.153.083-.783.5-.819.54a7.929 7.929 0 0 1-.392.31c-.577.438-1.572 1.467-2.107 2.178-.27.358-.491.677-.491.71 0 .03-.02.065-.044.076-.07.03-.52.813-.843 1.466-.592 1.195-1.246 3.24-1.401 4.378-.018.139-.069.43-.111.647-.297 1.521-.296 5.648.001 7.204.041.217.092.518.112.668.034.252.189.945.387 1.73.081.325.444 1.41.571 1.711l.227.535c.192.453.746 1.516.853 1.637.043.048.078.105.078.124 0 .034.446.71.508.772.016.015.133.167.26.337.454.61 1.405 1.58 1.969 2.012.269.205.735.535 1.008.713.549.359 2.072 1.103 2.258 1.103.025 0 .127.038.224.084.469.221 1.769.513 2.915.654.781.096 2.404.095 3.216-.001.883-.105 2.478-.45 2.85-.615.062-.028.265-.109.452-.18.863-.326 1.387-.592 2.256-1.142.474-.3 1.06-.747 1.092-.833.01-.027.045-.05.077-.05.067 0 1.092-1.024 1.437-1.436a13.044 13.044 0 0 0 1.364-1.997c.293-.537.463-.89.814-1.689.233-.529.641-1.873.82-2.701.355-1.643.468-2.702.504-4.71.043-2.437-.218-4.52-.814-6.491-.342-1.133-.495-1.524-.989-2.533-.925-1.887-2.253-3.492-3.853-4.659l-.264-.195a1.341 1.341 0 0 0-.237-.155c-.016 0-.138-.074-.272-.164-.243-.163-1.578-.85-1.653-.85-.022 0-.12-.036-.217-.08-.432-.197-1.433-.485-2.266-.653-.485-.097-2.543-.292-2.878-.273-.062.004-.531.042-1.041.085Zm33.093-.002a12.202 12.202 0 0 0-4.035 1.135c-.405.197-1.546.833-1.665.928-.031.025-.272.2-.536.39a11.987 11.987 0 0 0-2.552 2.476c-.224.3-.427.532-.451.518-.024-.015-.044-.133-.044-.263s-.038-.527-.085-.883c-.076-.584-.147-1.252-.313-2.955a6.613 6.613 0 0 0-.081-.633c-.019-.054-.342-.07-1.353-.07h-1.328v30.057l1.623-.015 1.622-.015.014-11.142.014-11.142.181-.227c.366-.46 1.19-1.312 1.715-1.77.31-.271 1.265-.987 1.433-1.075a.836.836 0 0 0 .17-.108.738.738 0 0 1 .169-.105c.078-.038.255-.135.395-.213.95-.537 2.125-.92 3.301-1.075.655-.086 2.143-.077 2.667.018l.184.033-.015-1.963c-.014-1.916-.017-1.963-.127-1.97a13.03 13.03 0 0 0-.903.069Zm57.53-.053-.903.08c-1.114.095-2.225.365-3.382.821-.399.158-1.506.719-1.64.832a.702.702 0 0 1-.17.102c-.144.053-1.081.836-1.462 1.222-.935.947-1.556 2.085-1.904 3.492-.084.34-.104.64-.103 1.548.001 1.187.054 1.528.372 2.39.14.377.483 1.068.591 1.188.044.05.08.108.08.132 0 .024.052.11.116.193 1.165 1.497 2.515 2.512 4.962 3.73.544.27 1.217.591 1.496.714.279.122.698.311.931.419.233.108.639.291.903.408 1.774.78 3.723 1.856 4.425 2.44.262.219 1.121 1.095 1.218 1.243.046.071.126.183.176.25.148.194.438.85.531 1.201.202.761.161 1.923-.096 2.71-.305.935-1.131 1.943-2.022 2.47-.946.558-1.623.806-2.906 1.066-.721.145-2.704.144-3.47-.003-.971-.185-1.924-.42-2.455-.605a12.983 12.983 0 0 0-.423-.135 8.224 8.224 0 0 1-.94-.34.967.967 0 0 0-.233-.081c-.047 0-.324-.109-.718-.282-.752-.331-.924-.41-1.052-.48-.112-.061-.354-.083-.946-.083h-.795v2.732l.352.196c.193.108.415.219.493.247.079.028.193.084.254.126a.43.43 0 0 0 .189.077c.042 0 .157.036.255.08.236.108 1.521.496 2.125.642 2.655.643 5.118.862 6.969.622.682-.089 1.589-.264 2.031-.393.497-.145 1.479-.492 1.665-.588.078-.04.306-.153.508-.25.424-.202.444-.214 1.044-.6.589-.38.811-.557 1.347-1.077.427-.414 1.009-1.124 1.163-1.42a.732.732 0 0 1 .113-.168c.075-.055.458-.906.59-1.31.29-.888.342-1.247.342-2.349 0-.666-.027-1.163-.076-1.379-.117-.52-.355-1.282-.44-1.405a.429.429 0 0 1-.077-.178c0-.135-.476-.906-.848-1.372-.45-.565-1.118-1.214-1.638-1.591a15.88 15.88 0 0 0-1.612-1.051c-.337-.19-.652-.369-.698-.396-.243-.144-2.911-1.408-2.972-1.408-.033 0-.149-.052-.883-.39a9.802 9.802 0 0 0-.518-.23c-.027 0-.857-.384-1.496-.693a18.418 18.418 0 0 1-.949-.5 7.892 7.892 0 0 0-.492-.27c-.055 0-1.176-.79-1.439-1.013-.78-.666-1.149-1.171-1.582-2.167-.12-.275-.227-.943-.229-1.418-.001-.491.137-1.388.233-1.509.025-.03.077-.164.117-.296.039-.132.105-.268.146-.302.042-.035.076-.084.076-.11 0-.069.256-.434.526-.75.189-.221.643-.611 1.139-.978.12-.089 1.141-.566 1.382-.645a9.064 9.064 0 0 1 2.991-.493c1.861 0 3.661.489 6.147 1.67l.757.36.653-.016.653-.016v-2.758l-.565-.281c-.645-.322-1.011-.478-1.117-.478a.22.22 0 0 1-.126-.047c-.175-.154-1.966-.616-3.299-.851-.571-.101-2.772-.298-3.075-.275a21.86 21.86 0 0 0-.31.027Zm-203.087.99c.063.163.152.376.197.474.045.097.082.195.082.216 0 .022.037.12.081.217.132.287.258.601.41 1.021.079.217.19.5.25.63.058.13.106.253.106.274 0 .02.037.116.082.214.045.097.198.481.34.852.272.711.378.975.547 1.362.057.13.103.253.103.273 0 .02.036.117.08.214.043.098.146.355.229.572.181.479.356.918.426 1.07.028.061.116.289.195.506.079.216.167.444.197.506.029.062.184.455.345.873.161.418.315.784.341.813.027.03.05.093.05.14 0 .049.035.155.078.237.043.082.109.243.147.358.038.114.104.275.147.357a.69.69 0 0 1 .078.218c0 .038.049.177.108.31.059.132.152.354.207.493.055.14.147.36.203.49.057.13.104.256.105.281.001.025.051.147.111.27.06.125.11.25.111.279.002.049.51 1.336.734 1.86.053.124.124.302.159.395.034.092.256.662.494 1.266l.575 1.463c.078.202.19.473.248.602.058.13.106.262.106.294 0 .032.049.166.109.299.06.132.203.481.318.775.115.294.257.641.314.771.058.13.105.255.105.277 0 .023.193.525.429 1.115.235.59.567 1.428.737 1.862.17.433.356.902.413 1.041.058.14.2.494.315.788.115.294.242.61.282.704.04.092.14.346.224.562.32.839.769 1.974.812 2.055.038.072.307.086 1.795.099 1.356.012 1.762-.001 1.807-.056.054-.068.182-.383.897-2.21.17-.434.357-.897.418-1.029.06-.132.11-.267.11-.298 0-.032.047-.165.104-.294.114-.257.418-1.019.656-1.644.083-.216.183-.47.224-.563.04-.092.163-.396.273-.675a991.955 991.955 0 0 1 1.48-3.733c.232-.583.423-1.078.423-1.1 0-.023.047-.148.105-.278.058-.13.189-.451.29-.715.101-.263.244-.614.318-.78.073-.166.133-.326.133-.355 0-.029.047-.159.105-.289.057-.13.162-.388.233-.574.07-.185.15-.388.176-.45a82.6 82.6 0 0 0 .823-2.082c.079-.217.188-.496.242-.62.192-.436.735-1.808.737-1.86 0-.03.05-.155.11-.278.06-.124.11-.246.111-.27a1.79 1.79 0 0 1 .105-.282c.057-.13.148-.35.203-.49.055-.139.149-.361.208-.494.059-.132.107-.271.108-.31a.69.69 0 0 1 .078-.217c.043-.082.11-.243.147-.358a2.95 2.95 0 0 1 .147-.357.693.693 0 0 0 .078-.244c0-.053.023-.11.05-.126.028-.017.068-.101.09-.187.021-.085.073-.231.116-.324.043-.093.156-.371.252-.619.097-.248.212-.53.257-.628a.953.953 0 0 0 .082-.232c0-.049.063-.207.308-.772a19.6 19.6 0 0 0 .225-.563c.084-.217.188-.474.233-.571a.893.893 0 0 0 .08-.264c0-.048.023-.101.05-.118.028-.017.068-.1.09-.184.02-.085.082-.256.137-.38.15-.345.267-.638.43-1.072.082-.217.198-.513.257-.658.197-.478.33-.443-1.652-.426l-1.76.014-.095.254c-.052.139-.162.43-.246.647a13.62 13.62 0 0 0-.207.574c-.03.1-.092.251-.137.338a.745.745 0 0 0-.083.22c0 .056-.128.383-.284.725a5.424 5.424 0 0 0-.13.338 54.68 54.68 0 0 1-.292.788c-.117.31-.248.664-.29.788a4.958 4.958 0 0 1-.131.338c-.049.105-.135.33-.473 1.224-.073.194-.213.556-.31.807-.098.25-.178.474-.178.498 0 .024-.036.123-.081.22a9.049 9.049 0 0 0-.342.853c-.041.124-.13.364-.196.535-.067.17-.168.436-.225.59-.056.155-.158.421-.226.592a62.718 62.718 0 0 0-.604 1.604 5.186 5.186 0 0 1-.13.337c-.152.336-.284.67-.286.725 0 .035-.05.165-.11.289-.06.123-.111.263-.114.31a1.249 1.249 0 0 1-.112.309c-.06.124-.11.249-.111.278-.001.03-.143.409-.315.844-.173.435-.36.918-.419 1.073-.325.872-.406 1.078-.455 1.167a.464.464 0 0 0-.057.169c0 .039-.05.172-.11.296s-.11.25-.111.28c-.001.03-.053.183-.114.338-.114.288-.64 1.64-.875 2.253a28.97 28.97 0 0 0-.258.703c-.07.201-.15.39-.175.42a.23.23 0 0 0-.047.132.883.883 0 0 1-.083.256 27.7 27.7 0 0 0-.542 1.415 39.32 39.32 0 0 1-.335.873c-.128.325-.313.813-.412 1.083-.098.271-.206.493-.24.493-.033 0-.115-.133-.181-.296-.227-.555-.747-1.903-.747-1.935a1.21 1.21 0 0 0-.08-.21 13.287 13.287 0 0 1-.231-.57c-.083-.217-.237-.61-.343-.874a5.44 5.44 0 0 1-.192-.524c0-.024-.05-.151-.109-.282a2.913 2.913 0 0 1-.147-.391c-.022-.085-.062-.168-.09-.185-.027-.017-.05-.07-.05-.117a.893.893 0 0 0-.08-.264c-.13-.288-.597-1.48-.597-1.525a.98.98 0 0 0-.08-.22c-.196-.435-.315-.731-.316-.79a1.298 1.298 0 0 0-.111-.288 1.497 1.497 0 0 1-.111-.273 1.157 1.157 0 0 0-.079-.225c-.168-.388-.77-1.934-.771-1.983a1.43 1.43 0 0 0-.111-.277 1.549 1.549 0 0 1-.111-.27 15.436 15.436 0 0 0-.318-.844c-.173-.44-.417-1.066-.542-1.39-.343-.89-.395-1.021-.507-1.278a1.669 1.669 0 0 1-.102-.278c0-.023-.106-.31-.234-.636l-.431-1.101a23.977 23.977 0 0 0-.303-.743 1.547 1.547 0 0 1-.105-.284c0-.026-.088-.26-.197-.521a4.965 4.965 0 0 1-.198-.522c0-.026-.047-.153-.104-.283a14.48 14.48 0 0 1-.23-.574 14.225 14.225 0 0 0-.198-.507c-.16-.367-.54-1.36-.54-1.41a.677.677 0 0 0-.073-.194 6.024 6.024 0 0 1-.206-.506 13.318 13.318 0 0 0-.205-.535c-.04-.093-.14-.346-.223-.563-.291-.763-.608-1.578-.677-1.745a3.65 3.65 0 0 1-.112-.31c-.085-.287-.037-.28-1.952-.28h-1.798l.114.295Zm183.194-.225c-.015.039-.021 6.796-.013 15.015l.014 14.943h3.273v-30l-1.624-.014c-1.268-.012-1.629 0-1.65.056Zm-200.295 2.02a7.9 7.9 0 0 0-.842.19c-.138.046-.29.085-.339.086a1.17 1.17 0 0 0-.314.11c-.125.06-.247.11-.272.111-.053.003-.538.21-.66.282a15.9 15.9 0 0 1-.442.237c-.196.103-.383.218-.416.257a.197.197 0 0 1-.13.07c-.04 0-.086.039-.104.085-.018.046-.06.085-.095.085-.184 0-1.406 1.143-1.906 1.784a41.61 41.61 0 0 1-.416.528 3.133 3.133 0 0 0-.306.47 1.376 1.376 0 0 1-.17.244.266.266 0 0 0-.077.154.26.26 0 0 1-.071.15c-.145.155-.626 1.187-.913 1.96-.816 2.204-1.143 4.949-.934 7.852.132 1.838.59 3.842 1.183 5.178l.207.479c.589 1.368 1.684 2.815 2.844 3.757l.432.352c.038.03.08.056.096.056.028 0 .403.237.513.324.166.132 1.216.597 1.673.742 1.093.347 1.596.42 2.926.422.986.002 1.298-.017 1.665-.102 1.256-.29 1.872-.526 2.906-1.112 1.022-.58 2.437-1.95 3.048-2.953a1.83 1.83 0 0 1 .171-.248c.091-.069.828-1.497 1.031-1.998.564-1.39.86-2.577 1.121-4.503.08-.58.079-3.69 0-4.278-.162-1.202-.322-2.057-.5-2.673-.312-1.084-.815-2.365-1.148-2.929-.092-.156-.168-.304-.168-.329 0-.024-.102-.189-.226-.366a2.88 2.88 0 0 1-.225-.35c0-.029-.253-.379-.367-.509a3.415 3.415 0 0 1-.168-.225c-.371-.535-2.114-2.103-2.338-2.103-.034 0-.062-.021-.062-.048 0-.058-1.26-.682-1.693-.838-1.39-.5-3.094-.651-4.514-.4Zm58.263.021c-.372.071-.806.166-.964.212-2.129.614-4.004 2.101-5.294 4.199-.339.55-.78 1.397-.853 1.64-.023.077-.077.19-.12.251a.438.438 0 0 0-.077.197.65.65 0 0 1-.073.227c-.108.207-.547 1.652-.547 1.799 0 .05-.038.239-.086.42-.098.378-.24 1.297-.313 2.03-.068.682-.067 3.178.001 3.912.092.99.352 2.482.541 3.11.05.162.13.435.181.605.246.828 1.039 2.596 1.29 2.875.043.049.079.108.079.132 0 .046.406.642.592.871 1.31 1.605 2.69 2.571 4.458 3.122.839.261 1.435.336 2.681.339 1.248.002 1.778-.065 2.68-.34 1.687-.515 3.284-1.642 4.494-3.172l.381-.482c.142-.178.749-1.246.958-1.685.133-.278.275-.57.315-.647.166-.319.657-1.89.818-2.617.297-1.34.354-1.863.383-3.49.038-2.113-.061-3.296-.405-4.84-.137-.614-.647-2.22-.796-2.505a71.84 71.84 0 0 1-.374-.76c-.793-1.633-2.096-3.16-3.46-4.055-.794-.521-1.559-.873-2.54-1.17-1.084-.33-2.758-.404-3.95-.178Zm71.073-.028c-.577.104-1.324.294-1.552.395a26.84 26.84 0 0 1-.479.2c-2.466 1.006-4.533 3.402-5.582 6.468-.283.829-.57 2.003-.679 2.787-.032.232-.088.6-.123.816-.086.525-.087 3.956-.001 4.587.161 1.197.289 1.871.534 2.814.112.434.311 1.076.375 1.21.029.062.12.278.201.479.741 1.833 1.877 3.401 3.18 4.39.102.077.215.166.252.197.439.376 1.852 1.081 2.576 1.286.992.28 1.464.339 2.709.341 1.065.002 1.282-.013 1.778-.126.637-.145 1.326-.342 1.41-.404a.835.835 0 0 1 .198-.084c.226-.067 1.001-.463 1.347-.688.86-.558 1.848-1.465 2.439-2.239.315-.412.672-.918.672-.953 0-.015.062-.119.139-.231.181-.266.933-1.807.933-1.911 0-.022.036-.12.079-.217.16-.359.491-1.442.596-1.95.421-2.048.54-3.783.398-5.826-.108-1.543-.555-3.62-.995-4.624a1.142 1.142 0 0 1-.078-.214c0-.077-.634-1.399-.809-1.687-.768-1.264-1.369-1.993-2.311-2.804-.635-.547-1.632-1.183-2.092-1.334-.112-.037-.218-.09-.236-.12-.018-.028-.075-.052-.128-.052a.726.726 0 0 1-.251-.081c-.182-.095-.66-.227-1.368-.379-.768-.164-2.349-.188-3.132-.046Zm49.979 0c-1.387.212-2.506.6-3.791 1.316-.106.059-.722.461-.847.553-.031.022-.31.254-.62.514a11.045 11.045 0 0 0-1.763 1.867c-.33.434-.972 1.5-1.237 2.054-.198.413-.358.779-.358.818 0 .02-.037.117-.082.214-.248.536-.558 1.603-.771 2.654-.31 1.524-.411 3.799-.248 5.544.053.573.105 1.056.116 1.073.01.016.059.27.11.562.13.758.396 1.67.732 2.502 1.251 3.105 3.689 5.215 6.915 5.986 1.16.278 1.503.316 2.849.317 1.368 0 1.673-.035 2.879-.339.911-.23 1.361-.4 2.563-.97.733-.347 2.043-1.141 2.205-1.336.039-.046.099-.084.135-.084.036 0 .107-.044.158-.098.101-.106.11-.114.511-.408.147-.108.281-.248.297-.31.016-.062.023-4.67.014-10.238l-.015-10.127-.226-.128a12.52 12.52 0 0 0-.818-.39 81.06 81.06 0 0 1-.705-.311 22.625 22.625 0 0 0-1.58-.555 30.807 30.807 0 0 1-.621-.169c-2.044-.574-4.168-.761-5.802-.511Zm-22.074 36.925c-.187.028-.39.075-.452.103a6.149 6.149 0 0 1-.367.141c-.357.127-1.052.543-1.365.819-.581.512-1.03 1.195-1.314 2.002-.143.405-.159.527-.162 1.21-.003.677.013.812.149 1.239.539 1.685 1.979 2.916 3.694 3.158 2.471.349 4.775-1.56 4.908-4.064.07-1.322-.295-2.335-1.185-3.29-.543-.583-1.099-.936-1.903-1.208-.422-.142-1.436-.198-2.003-.11Zm-187.713.483c-1.427.13-2.226.278-3.209.593-1.393.446-2.29.971-3.2 1.875-.477.474-1.096 1.274-1.096 1.416 0 .022-.034.08-.076.129-.108.127-.506 1.089-.642 1.552-.332 1.127-.465 2.399-.466 4.433l-.001 1.393H0v5.853h4.063v24.204h7.787V68.15h5.362l-.015-2.913-.014-2.913-2.666-.015-2.667-.015v-1.45c0-1.236.017-1.528.111-1.956.23-1.047.72-1.633 1.653-1.983.781-.293 2.585-.284 3.864.02.318.075.59.136.607.136.016 0 .029-1.265.029-2.81 0-2.004-.018-2.823-.063-2.85-.15-.093-.933-.26-1.715-.366-.814-.11-2.952-.188-3.583-.13Zm120.627.847c-.02.02-.037 2.578-.037 5.683v5.645l-.381-.19c-2.599-1.294-5.793-1.633-8.703-.922-2.861.698-5.249 2.32-7.154 4.858-.772 1.029-1.623 2.706-2.086 4.11-.332 1.005-.315.942-.584 2.138a14 14 0 0 0-.17.9c-.03.217-.091.623-.135.901-.152.954-.217 2.932-.144 4.372.065 1.284.086 1.514.252 2.664.143.988.507 2.498.793 3.292.113.313.364.947.422 1.066l.359.736c.287.588 1.02 1.763 1.28 2.05l.372.426c.336.39.794.834 1.233 1.2.353.293 1.362.97 1.538 1.033a.73.73 0 0 1 .185.104c.093.075 1.128.534 1.205.534a.99.99 0 0 1 .226.079c.278.123.908.293 1.617.435.583.117.808.13 2.229.131 1.682.002 2.013-.037 3.16-.37a12.494 12.494 0 0 0 2.257-.942c.492-.269 1.514-.967 1.843-1.26.535-.476.628-.552.654-.527.025.026.093.3.239.962.034.155.109.484.167.732l.14.605.034.155h6.995V51.715h-3.884c-2.136 0-3.901.017-3.922.038Zm46.322 4.507c-.106.864-.385 2.405-.522 2.885-.685 2.407-1.663 3.464-3.694 3.995a6.275 6.275 0 0 1-.844.149c-.229.02-.473.058-.543.084l-.127.047v4.73h3.382l.019 8.316c.019 8.275.02 8.32.143 8.992.349 1.903.796 3.066 1.634 4.248.34.48 1.266 1.397 1.686 1.67.182.12.343.23.359.246.015.016.217.124.448.241 1.269.643 2.44.9 4.095.897 1.762-.002 3.319-.276 5.163-.905l.649-.222.014-2.683c.009-1.476-.004-2.674-.028-2.663-1.291.614-3.389.855-4.247.489-1.26-.539-1.935-1.604-2.119-3.344-.069-.66-.081-1.96-.068-8.021l.015-7.233 3.287-.014 3.288-.015-.015-2.912-.014-2.912-3.273-.028-3.273-.028-.015-3.138-.014-3.138h-5.353l-.033.267Zm-146.86 5.365c-.814.042-1.74.16-2.426.312-.732.16-1.768.462-2.117.615-.093.041-.36.154-.592.25-.872.362-2.391 1.261-2.725 1.613-.069.072-.146.131-.172.132-.087.002-1.202 1.068-1.59 1.52-.433.505-1.16 1.49-1.288 1.746a7.396 7.396 0 0 1-.176.31c-.315.528-1.044 2.09-1.048 2.244a1.305 1.305 0 0 1-.111.288c-.06.124-.11.257-.111.295a2.847 2.847 0 0 1-.107.394c-.419 1.296-.722 3.143-.79 4.827-.05 1.206.003 3.164.105 3.883.14.991.177 1.216.28 1.717.14.68.384 1.615.455 1.748a.49.49 0 0 1 .055.188c0 .08.449 1.27.56 1.488.027.052.154.31.282.572.951 1.95 2.2 3.447 3.983 4.771.758.563 1.839 1.14 2.877 1.533.187.07.39.15.452.177.112.05.351.119 1.157.335.232.063.791.181 1.241.263.774.14.92.148 2.68.151 2.031.003 2.463-.038 3.81-.366 1.142-.278 1.167-.286 2.453-.802.337-.135 1.082-.532 1.712-.913 1.004-.606 2.263-1.736 3.07-2.757l.312-.394c.096-.12.68-1.02.748-1.153a.834.834 0 0 1 .107-.17c.037-.03.476-.91.712-1.43.405-.887.883-2.5 1.104-3.72.265-1.464.41-3.604.333-4.896-.062-1.029-.206-2.541-.248-2.609a2.89 2.89 0 0 1-.088-.435c-.095-.626-.36-1.663-.608-2.388l-.223-.647c-.17-.494-.872-1.92-1.219-2.476-.769-1.232-2.043-2.642-3.119-3.451-1.528-1.15-3.272-1.963-5.046-2.354a9.112 9.112 0 0 1-.537-.133c-.306-.094-1.905-.272-2.652-.295a21.982 21.982 0 0 0-1.495.017Zm67.038 0c-1.828.128-3.753.841-5.76 2.134-.47.302-.92.635-.972.717a.165.165 0 0 1-.124.072c-.043 0-.1.032-.124.07a3.474 3.474 0 0 1-.384.35c-.186.153-.4.339-.477.411l-.138.133-.075-.355a67.027 67.027 0 0 1-.355-1.932c-.032-.185-.084-.47-.117-.633l-.06-.295h-6.82v30.056h7.846v-11.13l.002-11.13.126-.118c.152-.14.758-.587.797-.587.016 0 .15-.082.3-.182.503-.34 1.565-.879 2.16-1.096.84-.306 1.226-.376 2.088-.38.852-.002 1.048.035 1.69.321.836.373 1.473 1.202 1.748 2.277.117.456.117.508.117 11.242v10.783h7.846l-.016-11.384c-.015-10.729-.021-11.417-.119-11.974-.203-1.165-.56-2.4-.894-3.094-.148-.306-.494-.904-.578-.998a3.774 3.774 0 0 1-.201-.278c-.307-.46-1.505-1.564-1.967-1.812-.604-.323-1.119-.573-1.184-.573a.88.88 0 0 1-.254-.084c-.76-.359-2.797-.623-4.1-.531Zm57.434-.002c-.581.023-1.165.056-1.298.075-.133.02-.535.06-.891.092a25.79 25.79 0 0 0-2.117.29c-.186.032-.544.091-.795.132-1.108.178-3.904.884-3.986 1.008-.023.034-.042 1.436-.042 3.115l-.001 3.053h1.284l1.283-.002.282-.179c1.273-.808 3.074-1.459 4.656-1.683.639-.09 2.02-.03 2.567.114 1.329.346 2.295.986 2.93 1.938.353.53.445.753.631 1.53.125.525.134.67.135 2.206l.001 1.644-.184.032a15.09 15.09 0 0 1-.691.083c-.77.079-1.962.221-2.624.313-.326.046-.859.11-1.185.142-.326.032-.631.07-.677.083-.047.014-.428.063-.847.11-.982.11-1.98.247-2.088.288a5.823 5.823 0 0 1-.536.111c-.73.129-1.888.474-2.567.764-.363.155-1.142.556-1.242.64a.633.633 0 0 1-.142.09c-.14.053-.63.446-.976.784-.692.675-.944 1.021-1.344 1.846-.459.948-.663 1.806-.792 3.344-.086 1.03-.086 1.177-.001 2.03.218 2.165.83 3.644 2.05 4.95.282.3 1.216 1.111 1.282 1.111.014 0 .186.095.383.211.817.481 1.511.743 2.672 1.009.372.085.695.103 1.834.103 1.455 0 1.364.01 2.709-.32.417-.102 1.577-.518 1.852-.663.052-.027.335-.168.629-.313.294-.144.713-.38.931-.525a7.12 7.12 0 0 1 .453-.284c.031-.012.123-.076.204-.14.081-.066.205-.157.275-.203a1.88 1.88 0 0 0 .196-.15c.272-.258.774-.639.813-.615.025.016.063.315.083.664.021.35.063.787.094.973.03.186.056.47.056.633v.296h7.223l-.002-10.23c-.002-5.627-.025-10.483-.052-10.793-.088-1.002-.172-1.68-.261-2.11-.111-.537-.347-1.383-.451-1.613a1.13 1.13 0 0 1-.08-.214c0-.046-.182-.447-.434-.96-.433-.877-1.078-1.69-1.964-2.477-.512-.454-1.716-1.165-2.427-1.433a8.537 8.537 0 0 1-.423-.168c-.095-.046-.962-.283-1.524-.417-1.167-.278-2.903-.39-4.864-.315Zm66.07.004c-.461.023-.896.056-.965.073a8.14 8.14 0 0 1-.545.09c-.923.126-1.882.38-3.095.818-.387.14-1.637.75-1.909.933-.134.09-.255.163-.271.163-.015 0-.165.101-.333.225s-.33.225-.36.225a.084.084 0 0 0-.073.05c-.01.026-.209.2-.442.385-.914.725-2.121 2.07-2.68 2.984l-.232.377a20.574 20.574 0 0 0-.798 1.551c-.048.108-.118.26-.156.338-.101.207-.509 1.427-.641 1.913-.491 1.808-.684 3.384-.684 5.573 0 2.662.285 4.534 1.022 6.709.123.362.26.73.305.816a.829.829 0 0 1 .083.196c.001.14.93 1.888 1.18 2.22.05.066.128.177.175.246.316.468 1.067 1.353 1.547 1.824.524.513 1.576 1.35 1.98 1.575.093.052.245.143.338.202.093.06.314.184.491.278l.423.223c.911.49 2.386.954 3.911 1.232.779.143.909.15 2.737.152 2.058.002 2.18-.01 3.696-.347.668-.148 1.962-.552 2.057-.642a.207.207 0 0 1 .123-.05c.163 0 2.134-1.02 2.278-1.18.015-.017.142-.105.282-.197.14-.09.279-.193.31-.227.031-.034.234-.203.452-.375.217-.173.583-.501.814-.73.38-.376.674-.717 1.383-1.603.307-.383 1.386-2.263 1.386-2.415 0-.018.047-.14.105-.27.057-.13.162-.388.233-.574.071-.185.151-.388.179-.45.185-.411.623-2.232.751-3.124.043-.294.11-.737.151-.985.096-.593.097-4.498.001-5.065a36.232 36.232 0 0 1-.124-.816c-.122-.885-.505-2.48-.756-3.152-.324-.863-.416-1.083-.737-1.76-.349-.737-.962-1.71-1.554-2.468-.881-1.128-2.346-2.389-3.638-3.129a43.228 43.228 0 0 0-1.411-.695c-2.017-.864-4.394-1.244-6.989-1.117Zm35.543 0c-.606.037-1.405.173-1.863.317-.845.264-1.452.484-1.834.664-.592.28-.707.34-.724.378-.01.023-.043.042-.073.042-.052 0-.917.481-1.037.576a5.742 5.742 0 0 1-.267.183c-.384.25-.572.39-1.228.909-.357.282-.697.567-.756.633-.142.158-.26.152-.26-.012a5.9 5.9 0 0 0-.106-.661 76.004 76.004 0 0 1-.232-1.234c-.07-.387-.15-.798-.178-.915l-.053-.211-3.397.014-3.398.015-.014 15.014-.014 15.014h7.844V70.089l.342-.252c.189-.138.373-.277.409-.308.395-.333 1.626-1 2.481-1.344.89-.358 1.382-.457 2.27-.457.678 0 .85.02 1.213.136a3.086 3.086 0 0 1 1.66 1.215c.265.377.372.605.555 1.182l.125.394.016 10.849.017 10.849h7.784l-.002-11.243c-.001-6.555-.023-11.396-.054-11.609-.211-1.482-.315-1.947-.63-2.806a7.405 7.405 0 0 0-.585-1.275 5.653 5.653 0 0 1-.175-.31c-.107-.22-.662-.911-1.013-1.261-.449-.448-1.152-.978-1.576-1.188a3.528 3.528 0 0 1-.253-.138c-.116-.073-.523-.24-.932-.384-1.193-.418-2.647-.6-4.062-.513Zm-206.015.707c-.02.02-.037 4.84-.036 10.708 0 11.216.014 11.892.255 13.147.269 1.396.742 2.623 1.39 3.603.386.584 1.31 1.51 1.873 1.877a12 12 0 0 0 1.53.802c.216.095.85.27 1.44.399.528.115.745.129 2.003.13 1.504 0 1.624-.015 2.806-.348 1.07-.3 2.568-.989 3.44-1.58.149-.1.282-.183.297-.183.104 0 1.359-.959 1.897-1.45.144-.13.276-.238.294-.238.046 0 .14.324.18.619.05.37.251 1.491.345 1.914.044.2.08.422.08.492v.127h6.885V62.297h-7.788v22.167l-.296.244c-1.035.853-2.6 1.668-3.894 2.028-.635.176-2.056.189-2.497.022-.773-.292-1.207-.586-1.605-1.088-.309-.389-.517-.839-.697-1.507-.041-.155-.07-3.6-.092-11.032l-.032-10.806-3.87-.015c-2.128-.008-3.887.003-3.908.024Zm144.46 0c-.021.02-.038 6.783-.038 15.028v14.99h7.844l-.015-15.013-.014-15.014-3.869-.015c-2.129-.008-3.887.003-3.908.024ZM32.898 67.512c-.77.152-1.61.533-2.254 1.022-.556.423-.8.673-1.4 1.445-.144.184-.53.856-.73 1.267-.526 1.085-.937 2.59-1.1 4.024-.094.818-.094 3.2 0 4.053.188 1.704.669 3.37 1.31 4.533.123.224.224.415.224.425 0 .021.388.574.508.724.239.297 1.2 1.213 1.274 1.213.012 0 .156.085.32.188.363.231.674.37 1.228.547.385.123.519.136 1.495.136 1.135.001 1.276-.025 2.128-.388.3-.128 1.002-.563 1.207-.748l.338-.305c.333-.299.944-1.07 1.204-1.516.85-1.463 1.322-3.052 1.555-5.231.116-1.089.109-2.03-.026-3.275-.216-1.992-.562-3.246-1.277-4.64-.894-1.74-2.167-2.884-3.726-3.349-.3-.089-.586-.12-1.262-.134-.481-.01-.938-.007-1.016.009Zm94.971.019a6.062 6.062 0 0 0-1.932.726c-.533.315-.912.601-1.278.968-.269.27-.909 1.035-.909 1.088 0 .017-.086.153-.191.3-.506.709-1.09 2.122-1.378 3.335-.549 2.316-.55 5.223-.001 7.485.712 2.935 2.334 4.813 4.756 5.508.475.136.59.147 1.667.147 1.21 0 1.406-.029 2.313-.348.41-.145 1.296-.57 1.564-.75.136-.091.259-.166.273-.166.014 0 .152-.091.308-.203l.282-.202V68.652l-.587-.28c-.323-.153-.623-.278-.666-.278a.228.228 0 0 1-.133-.05c-.054-.05-.743-.252-1.464-.43-.451-.11-2.2-.166-2.624-.083Zm95.62-.001c-.383.08-.846.22-1.135.345-.93.404-2.037 1.398-2.687 2.414-1.062 1.663-1.649 3.87-1.717 6.458-.095 3.632.715 6.589 2.323 8.48.267.313 1.09 1.047 1.175 1.047.015 0 .163.089.328.197.165.108.326.197.357.197a.7.7 0 0 1 .203.076c.08.042.334.136.564.21.382.122.516.135 1.492.135.974 0 1.11-.013 1.488-.134.409-.131 1.036-.433 1.482-.714.509-.32 1.34-1.215 1.825-1.965.31-.48.869-1.695.997-2.167a2.58 2.58 0 0 1 .104-.31c.21-.464.496-2.178.57-3.403.06-1.002-.008-2.998-.116-3.435a5.063 5.063 0 0 1-.086-.507c-.063-.532-.327-1.532-.623-2.364-.179-.501-.7-1.508-1.043-2.014-.399-.588-1.132-1.347-1.636-1.691-.188-.13-.358-.235-.378-.235-.02 0-.076-.033-.125-.074-.099-.082-.657-.311-1.133-.465-.346-.112-1.821-.166-2.229-.081Zm-65.402 12.309c-.976.08-1.913.249-2.257.408l-.445.197a3.653 3.653 0 0 0-1.317 1.002c-.318.403-.46.686-.637 1.272-.111.37-.121.499-.096 1.266.022.67.053.925.145 1.18.256.715.633 1.25 1.172 1.662.256.196.902.517 1.04.517a.23.23 0 0 1 .141.053c.074.074 1.152.229 1.587.229.441 0 1.399-.14 1.788-.261.451-.14 1.036-.348 1.148-.408.055-.03.241-.122.412-.206.356-.176.873-.503 1.057-.67l.126-.116.001-2.99.001-2.991-.245-.037c-.688-.103-2.884-.168-3.621-.107Z"/>
  </g>
</svg>
