<svg xmlns="http://www.w3.org/2000/svg" width="346" height="247" fill="currentColor" viewBox="0 0 346 247"><path d="M250.4 198.7h3.3c.88 0 1.26.06 1.26 1.38v41.56c0 2.32-6.88 4.7-11.7 4.7-10.06 0-16.68-5.88-16.68-18 0-8.13 5.25-17.95 15.5-17.95 3.06 0 5.06.75 7.13 1.88v-12c0-1.2.06-1.57 1.18-1.57Zm-62.83 11.5c3.06 0 6.19.75 8.56 2.44 3.88 2.69 6.38 7.75 6.38 15.69 0 7.88-2.5 12.93-6.38 15.63-2.31 1.56-5.44 2.37-8.56 2.37-3 0-6.2-.75-8.5-2.37-3.82-2.7-6.32-7.75-6.32-15.63 0-7.94 2.5-13 6.31-15.69a16.21 16.21 0 0 1 8.5-2.44Zm-80.64 0c3.12 0 6.3.75 8.62 2.44 3.81 2.69 6.38 7.75 6.38 15.69 0 7.88-2.57 12.93-6.38 15.63a16.1 16.1 0 0 1-8.62 2.37c-3 0-6.26-.75-8.57-2.37-3.81-2.7-6.31-7.75-6.31-15.63 0-7.94 2.5-13 6.31-15.69a16.26 16.26 0 0 1 8.57-2.44Zm-60.14 0c3.12 0 6.12.75 8.56 2.44 3.81 2.69 6.38 7.75 6.38 15.69 0 7.88-2.56 12.93-6.38 15.63a15.9 15.9 0 0 1-8.56 2.37c-3.07 0-6.25-.75-8.56-2.37-3.88-2.7-6.38-7.75-6.38-15.63 0-7.94 2.5-13 6.38-15.69a16.1 16.1 0 0 1 8.56-2.44Zm217.1.94h3.44c1 0 1.25.19 1.25 1.19v31.81c0 1.13-.25 1.13-1.25 1.19h-3.56c-1 0-1-.25-1-1.19v-31.81c0-.81 0-1.2 1.12-1.2Zm58.02-.19h3.06c.87 0 1.19.19 1.19.75 0 .38-.07.7-.32 1.32a41.09 41.09 0 0 1-11.81 13.93l.12.13 12.5 16.63c.25.25.5.56.5.8 0 .76-.68.76-1 .82h-4.43c-1.07 0-1.32 0-2-1l-11.75-16.87c0-.13-.06-.31-.06-.38 0 0 .06-.19.25-.38 4.93-2.87 9.8-9 11.68-14.68.38-1.13.81-1.07 2.07-1.07Zm-258.3 0h4.06c1 0 1.12.13 1.5 1.06l8.81 25.13 8.63-25.25c.31-.63.38-.81.81-.94h3.26c.3 0 .87 0 .87.69 0 .19 0 .25-.19 1L79.8 244.27c-.31.93-.44 1.06-1.25 1.06h-2.57c-.56 0-.68-.25-1.06-1.06l-11.94-31.5a2.1 2.1 0 0 1-.25-.95c0-.87.62-.87.88-.87Zm222.72-.56c4.57 0 8.88 1.44 8.88 4 0 1.75-1.43 2.31-2.44 2.31-2 0-3-2.5-6.81-2.5-3.75 0-5.69 2.5-5.69 5 0 7.44 16.2 5.63 16.2 16.82 0 7.12-6.14 10.3-12.14 10.25-5.31 0-10.62-2.31-10.62-5.07 0-1.69 1.43-2.19 2.5-2.19 2.25 0 3.56 3.44 8.25 3.44 4.63 0 6.75-3.06 6.75-5.81 0-3.5-3.5-5-7.31-6.63-4.88-2.06-8.88-4.5-8.88-10.18 0-6.13 5.38-9.44 11.31-9.44Zm-68.88-.19c4.62 0 8.62 1 8.62 3.44 0 2-1.25 3-2.87 2.93-2.31 0-2.94-3.12-7.13-3.12-2 0-3.37 1.19-3.37 3v27.63c0 1-.38 1.06-1.19 1.06h-3.31c-1 0-1.38-.06-1.38-1.06v-30.2c0-1.06.81-2.12 3.13-2.68 1.75-.44 3.94-1 7.5-1Zm-29.88 3.88c-2.2 0-3.88.5-5.63 2.19-1.81 1.75-3.13 5.81-3.13 12.06 0 6.31 1.32 10.25 3.13 12 1.75 1.69 3.31 2.13 5.63 2.13 2.37 0 4.06-.44 5.8-2.13 1.88-1.75 3.07-5.81 3.07-12 0-6.38-1.19-10.31-3.06-12.06-1.75-1.7-3.44-2.2-5.81-2.2Zm-33.26-3.88c13.13 0 13.25 6.94 13.25 10.94v22.82c0 .62 0 1.24-.62 1.37h-3.63c-1.12 0-1.5-.13-1.5-1.38V221.9c0-3.13 0-8.13-7.69-8.13-4.56 0-7.06 1.56-7.06 3v27.2c0 1.24-.44 1.37-1.38 1.37h-3.25c-1.06 0-1.3-.13-1.3-1.25v-29.5c0-1.19.74-2 3-2.75 1.8-.57 5.18-1.63 10.18-1.63Zm-47.26 3.88c-2.31 0-4.06.5-5.81 2.19-1.81 1.75-3.06 5.81-3.06 12.06 0 6.31 1.25 10.25 3.06 12 1.87 1.69 3.5 2.13 5.81 2.13 2.25 0 3.94-.44 5.7-2.13 1.87-1.75 3.12-5.81 3.12-12 0-6.38-1.25-10.31-3.13-12.06-1.75-1.7-3.31-2.2-5.69-2.2Zm-60.26 0a7.4 7.4 0 0 0-5.7 2.19c-1.87 1.75-3.12 5.81-3.12 12.06 0 6.31 1.25 10.25 3.13 12 1.75 1.69 3.37 2.13 5.69 2.13 2.31 0 4-.44 5.75-2.13 1.88-1.75 3.06-5.81 3.06-12 0-6.38-1.24-10.31-3.06-12.06a7.52 7.52 0 0 0-5.75-2.2Zm-33.32-3.88c13.25 0 13.32 6.94 13.32 10.94v22.82c0 .62-.06 1.24-.69 1.37h-3.69c-1.12 0-1.5-.13-1.5-1.38V221.9c0-3.13 0-8.13-7.69-8.13-4.62 0-7.12 1.56-7.12 3v27.2c0 1.24-.44 1.37-1.38 1.37H1.41c-.94 0-1.19-.13-1.19-1.25v-29.5c0-1.19.75-2 2.94-2.75 1.94-.57 5.25-1.63 10.31-1.63Zm229.55 4.25c-6.07 0-10.44 5.38-10.44 13.44 0 9.19 4.5 14.5 10.87 14.5 2.94 0 5.76-.93 5.76-2.62h.06v-23.2c-1.32-1.05-2.88-2.12-6.25-2.12Zm59.32-15.87h3.5c.75 0 1.19 0 1.19 1v44.75c0 .94-.38.94-1.19.94h-3.5c-.87 0-1.06-.13-1.06-1V199.7c0-1 .38-1.12 1.06-1.12Zm-36.51-.38a3.44 3.44 0 0 1 3.44 3.31 3.55 3.55 0 0 1-3.56 3.7 3.33 3.33 0 0 1-3.5-3.45c0-2 1.5-3.56 3.62-3.56Zm68.95-16.2c5.76 0 10.5 4.82 10.5 10.63 0 5.82-4.62 10.63-10.5 10.63-5.8 0-10.5-4.69-10.5-10.63 0-5.87 4.7-10.62 10.5-10.62Zm0 1.89a8.65 8.65 0 0 0-8.75 8.75 8.86 8.86 0 0 0 8.75 8.94 8.91 8.91 0 0 0 8.82-8.94c0-4.88-4-8.75-8.82-8.75Zm-4.5 3.12h4.06c4.6 0 4.76 2.4 4.76 3.13a3.16 3.16 0 0 1-3.06 3.18c.86.45 1.74 1.7 2.43 2.82l1.38 2.25h-2.2l-.99-1.75c-1.32-2.5-1.88-3.06-3.38-3.06h-1.06v4.87h-1.94v-11.44Zm1.82 1.56v3.44h2.25c.8 0 2.62 0 2.62-1.69 0-1.75-1.75-1.75-2.82-1.75h-2.05ZM74.6 35.37c.57-.06 1.26.75 1.82 2.31 1.13 3.06 6.06 15.44 18.88 20 12.69 4.56 24.13.88 32.13-5.81 3-2.38 4-1 1.31 3.37-3.56 5.82-9.31 9.13-15.94 12.76-1.3.75-2.87 1.37.19 2.81 17.7 8.25 40.76 14.07 61.26 14.07 15.25 0 30-2.38 37.82-2.94 7.5-.56 21.82-.06 25.25 16.44 2.44 11.69 2.26 45.88 2.13 78.57 0 2.31.19 3.7-2.44 3.7-8.5-.07-8.81.3-9.56 2.43-1.25 3.5-1.56 5.25-2.5 8.87-.75 3-1.32 4.07-3.32 4.07h-10.5c-1.69 0-2.5-1.94-1.13-4.57 13.57-24.38 12.5-43.31 4.57-53.69-2.5 9.63-3.56 13.88-4.82 14.81-16.37 12.38-24.69 38.7-25.38 40.82-.75 1.94-1.75 2.69-4.3 2.69h-11.64c-3.37 0-3.18-2.38-1.18-4.69 18.19-19.44 22.81-26.69 28.13-43.2 5.37-16.56-7.2-21.8-16.82-13.18-25-11.38-31.63 3.5-30.13 11.81 2.31 13.2 11.19 35.57 11.75 46.14.19 2.68-2.12 3.25-3.56 3.25h-11.07c-3.44 0-2.06-3.32-1.81-4.82 5.63-27.2-5.88-42.7-17.44-49.94-6.88 5.06-16 34.75-17.13 50.94-.12 1.94-1.19 3.69-2.81 3.69H93.48c-2.06 0-2.43-2.31-.87-5.13 6.62-11.94 17-30.62 16.81-50.44 0-2.19 0-9.06-3.19-12.81-7.06-8.45-10.93-18.7-14.62-25.26-2.5-4.44-5.69-5.94-8.19-6.37-2.69-.5-4.69.25-6.94-.82-2.25-1-3.44-3.31-5.19-5.3-1.5-1.7-2.62-4.14-.87-6.38 3.19-3.94 5.25-6.26 5.81-7.88.57-1.63.44-2.31.57-3.75.06-1.31 2.75-4.63 5.31-7.57.94-1.12.13-3.12-1.62-5.06-1.75-1.93-6.82-8.87-6.82-20.44 0-2.32.44-3.38.94-3.5Zm46.95 45c-1.06-.06-1.5.44-2.3 1.5-11.45 15.7-13.82 24.2-12.82 30.57 1 6.37 6.43 12.75 14.56 17.57 8.13 4.69 13.13 7.37 18.63 13.37.69.69 1.44.88 1.69-.44 2.81-18.37 18.19-21.06 38.26-20.68 28.25.43 33.7 9.68 37.19 8.25 3.38-1.63 5.69-15.94 6.31-26 .69-10.26 1.32-18.5-11.31-17.5 3 6.12 3.56 12.87-1.94 16.68-5.56 3.88-9.56 2-9.56-1.62 0-3.19-.5-8.32-4.5-13-1.94.25-3.5.43-5.44.62 1.18 5.5 2.62 15.7-1.57 19.82-4.19 4.13-16.06 4.5-28.31 3.56-2.32-.18-5.2-1.13-6.44-4.06-.63-1.38-1.57-4.94-1.82-20.57a65.9 65.9 0 0 1-5.93-1.06c-2.2 15.07-7.25 20.63-12.57 21.94-5.31 1.31-11.38.06-10.25-5.38 1-5.25 3.62-11.19 4.12-21.62-3.25-1.2-4.93-1.88-6-1.95Zm86.02 7.13c-2.44.25-4.75.56-7 .94 2.56 3.68 4 7.75 4.12 13.18.75.32 4.26-1.12 5.07-3.62.75-2.56.56-5.44-2.19-10.5Zm-75.2-3.62c-.75 5.93-2 13.25-3.31 17.56-1.38 4.31 2.37 3.94 4.06 3.25 2.25-.94 6.44-4.75 8.63-18.32-3.15-.74-6.28-1.57-9.38-2.5Zm24.25 5.18c.31 4.69.38 11.75 1.13 15.57.69 3.3 1.94 3.5 3.19 3.68 4.56.69 20.5 1.38 24.06-2.18 2.2-2.26 2.38-10.07.82-16.07-9.63.57-19.5.32-29.2-1ZM89.61 65.31a4.7 4.7 0 0 0-2.25 1.19c-2.57 2.3-5.25 5.93-5.7 7.12-.55 1.19-.24 4.06-1.37 5.56-1 1.44-3.62 4.94-3.62 4.94-2.25 2.82-1.2 3 1.25 5.94 2.18 2.75 7.31-.87 13.25 3.81 3 2.38 6.63 11.2 9.25 14.7 2-12.57 9.88-22.76 12.2-26.63 3.8-6 .37-4.56-10.7-11.32-6.87-4.12-10-5.81-12.31-5.31Zm1.81 7.94c.94 0 1.63.12 1.75.43.44 1.13-4.87 7.7-7.63 3.7-2-2.88 3.07-4.2 5.88-4.13Zm138.4 39.94c-.3.06-.56.25-.56.63-.69 9-2.69 19.81-2 23.31.63 3.75 2.75 12.76 3.19 16.7.37 3.05 1.75 1.87 1.94.36.8-6.06 2.12-36.56-1.7-40.56a1.17 1.17 0 0 0-.87-.44ZM107.05.3a25.93 25.93 0 0 1 25.94 26 26.03 26.03 0 0 1-25.94 26.07A26.03 26.03 0 0 1 81.11 26.3a26 26 0 0 1 25.94-26Zm.75 6.12a17.2 17.2 0 1 0 0 34.38 17.15 17.15 0 0 0 15.89-23.76A17.18 17.18 0 0 0 107.8 6.42Z"/></svg>