<svg xmlns="http://www.w3.org/2000/svg" width="551" height="100" fill="currentColor" viewBox="0 0 551 100"><path fill-rule="evenodd" d="M43.37.22c-.22.35-2.16.78-4.36.96-1.38.1-2 .26-2 .5 0 .33-1.31.64-2.76.65-.53 0-.93.19-1.17.55-.27.4-.72.58-1.73.68-1.07.1-1.46.27-1.77.75-.29.44-.64.6-1.27.6-.64 0-.98.18-1.3.66-.3.47-.65.64-1.27.64-.61 0-.96.18-1.27.65-.25.39-.66.65-1.03.65-.39 0-.66.18-.74.5-.08.3-.45.58-.88.67-1.28.28-1.38.35-1.38.89 0 .39-.17.52-.65.52-.47 0-.65.14-.65.5 0 .33-.2.53-.58.59a.73.73 0 0 0-.66.66c-.06.42-.26.58-.69.58-.42 0-.65.2-.76.65-.1.4-.35.65-.65.65-.3 0-.54.24-.65.65-.1.4-.34.64-.64.64s-.55.25-.65.65c-.09.36-.34.65-.55.65-.22 0-.5.29-.64.64-.13.36-.42.65-.65.65-.22 0-.47.2-.57.45-.15.42-.39.7-1.88 2.3-.29.3-.6.92-.69 1.39-.1.5-.36.9-.64.97-.26.07-.55.37-.64.68-.1.3-.45.88-.79 1.28-.33.4-.6 1-.6 1.33 0 .37-.2.65-.5.73-.37.1-.55.45-.68 1.32-.1.66-.28 1.2-.4 1.2-.31 0-1.02 1.73-1.02 2.48 0 .33-.23.82-.51 1.08-.34.32-.6 1.03-.74 2.11-.12.9-.36 1.72-.54 1.82-.44.28-.78 1.93-.79 3.85A6.8 6.8 0 0 1 .5 43.4c-.5 1.11-.54 1.55-.46 7.37.07 4.95.16 6.24.45 6.42.24.14.43 1 .56 2.51.23 2.74.44 3.64.88 3.8.18.08.4.82.5 1.72.12.99.36 1.77.65 2.05.26.26.55.97.64 1.6.1.62.39 1.26.66 1.44.26.19.54.8.63 1.36.11.7.33 1.08.66 1.19.34.1.54.5.66 1.3.13.9.28 1.16.65 1.16.33 0 .52.27.64.9.09.5.37 1.05.61 1.23.25.18.59.65.76 1.04.18.4.44.72.6.72.15 0 .4.35.54.77.15.43.42.78.59.78.17 0 .48.42.68.93.2.52.63 1.04.95 1.16.33.13.6.4.6.61 0 .21.22.51.5.66.3.16.53.45.53.67 0 .2.29.5.64.63.36.13.65.42.65.64 0 .22.12.4.26.4.24 0 1.05.65 2.5 2.03.35.33.95.69 1.33.79.39.1.81.43.96.75.14.3.44.57.67.57.22 0 .54.29.7.64.17.36.5.65.76.65.25 0 .78.3 1.16.65.38.35.89.64 1.13.64.23 0 .77.3 1.2.65.41.36 1.05.65 1.41.65.42 0 .7.17.78.5.14.52.8.78 1.96.79.44 0 .93.25 1.28.65.45.52.8.65 1.77.65.82 0 1.43.16 1.86.5.39.3 1.43.64 2.56.81 1.04.16 2.02.45 2.16.65.37.48 9.37 1.02 9.89.6.29-.25.34-1.81.29-8.49l-.07-8.18-1.04-.07a6.15 6.15 0 0 1-1.68-.36c-1.45-.64-1.77-.71-3.88-.88a8.3 8.3 0 0 1-3.37-.8 5.36 5.36 0 0 0-1.97-.6c-.59 0-.85-.15-.95-.5-.09-.37-.45-.55-1.3-.68-.83-.12-1.2-.31-1.3-.66-.08-.33-.45-.54-1.13-.65-.7-.1-1.09-.33-1.26-.71-.13-.31-.5-.6-.8-.64a.88.88 0 0 1-.69-.58.7.7 0 0 0-.63-.5c-.28 0-.63-.29-.8-.65-.16-.36-.42-.65-.59-.65-.35 0-3.07-2.7-3.07-3.04 0-.13-.3-.49-.65-.8-.36-.3-.65-.72-.65-.92 0-.2-.23-.42-.52-.5a.68.68 0 0 1-.51-.62c0-.28-.28-.77-.63-1.09-.34-.32-.7-.89-.8-1.26-.09-.37-.33-.8-.53-.94-.2-.15-.47-.84-.6-1.52a4.35 4.35 0 0 0-.78-1.83c-.38-.41-.55-.92-.55-1.7a4 4 0 0 0-.58-2.06c-.55-.9-.58-1.22-.66-7.26-.07-5.54-.03-6.45.36-7.31.24-.54.54-.99.66-.99.13 0 .22-.63.22-1.41 0-1.16.12-1.53.65-2.06.47-.47.65-.92.65-1.68 0-.71.15-1.14.48-1.37.27-.19.57-.72.67-1.19.1-.47.47-1.03.81-1.26.35-.22.63-.6.63-.83 0-.24.23-.57.51-.75.29-.18.52-.5.52-.71 0-.21.12-.39.26-.39s.26-.23.26-.51c0-.3.17-.52.4-.52.22 0 .52-.34.66-.75.15-.42.5-.81.77-.88.3-.08.5-.36.5-.68 0-.4.16-.54.65-.54.47 0 .64-.14.64-.51 0-.33.23-.57.63-.67.34-.09.88-.44 1.2-.78.33-.35.82-.63 1.09-.63.27 0 .55-.22.62-.49.08-.28.44-.55.85-.63.41-.08.78-.36.85-.64.09-.33.45-.54 1.1-.65.53-.08 1.11-.35 1.29-.6.18-.24.95-.6 1.7-.8.77-.19 1.57-.5 1.8-.7a4.3 4.3 0 0 1 1.69-.52c.7-.1 1.8-.41 2.42-.68 1-.44 1.79-.5 6.9-.5 3.94 0 5.8.09 5.87.28.1.32 2.56 1.01 3.58 1.01.37 0 .91.23 1.2.5.3.28 1 .59 1.55.7.55.1 1.15.4 1.33.65.19.27.8.56 1.37.65.62.1 1.14.36 1.3.65.13.26.38.48.54.48.16 0 .67.29 1.14.65.46.35 1.03.64 1.26.64.22 0 .52.3.66.65.13.36.42.65.64.65.22 0 .51.29.65.64.14.36.43.65.65.65.22 0 .53.3.7.65.15.35.44.65.64.65s.48.28.64.62c.15.34.5.68.77.75a.7.7 0 0 1 .48.65c0 .3.23.6.51.69.33.1.57.49.68 1.07.12.63.36.98.79 1.15.38.14.61.44.61.79 0 .3.3.83.65 1.16.4.38.65.88.65 1.37 0 .44.27 1.1.64 1.53.43.52.65 1.09.65 1.72 0 .57.23 1.25.58 1.73.5.67.6 1.23.75 3.8.16 2.98.5 4.24 1.3 4.74.4.25 15.49.31 16.11.07.36-.13.41-.78.41-4.53 0-2.88-.09-4.37-.27-4.37-.48 0-1.02-1.76-1.02-3.34 0-1.27-.1-1.62-.53-1.93-.4-.27-.57-.75-.68-1.89-.1-1.07-.3-1.63-.65-1.92-.3-.23-.57-.86-.65-1.49-.09-.64-.28-1.08-.48-1.08-.35 0-.47-.28-.76-1.72-.1-.48-.36-.87-.63-.94-.33-.09-.52-.48-.65-1.32-.14-.92-.29-1.2-.65-1.2-.31 0-.52-.25-.62-.77a2.83 2.83 0 0 0-.62-1.23c-.25-.25-.6-.78-.78-1.17-.17-.4-.49-.71-.7-.71-.23 0-.4-.23-.4-.52 0-.31-.27-.65-.65-.82-.35-.16-.64-.51-.64-.77s-.35-.8-.78-1.22c-.43-.4-.78-.85-.78-1 0-.13-.29-.38-.64-.54-.36-.16-.65-.45-.65-.65s-.3-.48-.65-.65c-.36-.16-.65-.44-.65-.63 0-.18-.41-.55-.92-.83-.5-.27-1.04-.7-1.17-.96-.14-.26-.54-.47-.9-.47-.46 0-.63-.14-.63-.52 0-.34-.17-.52-.52-.52-.33 0-.62-.25-.77-.64-.14-.36-.46-.65-.71-.65-.25 0-.8-.3-1.21-.65-.42-.35-.97-.64-1.24-.64-.28 0-.59-.28-.73-.65-.2-.54-.41-.65-1.24-.65-.82 0-1.06-.12-1.3-.64-.24-.53-.48-.65-1.3-.65-.8 0-1.05-.12-1.27-.61-.23-.5-.53-.64-1.61-.74-.97-.1-1.44-.28-1.72-.69-.3-.43-.65-.55-1.6-.55-.74 0-1.53-.2-2.03-.5-.51-.31-1.76-.6-3.37-.8-1.4-.16-2.88-.46-3.3-.66C56 .08 54.47 0 49.67 0c-3.4 0-6.23.1-6.3.22Zm103.77 17.55c-.71.06-1.42.28-1.57.48-.15.2-1.01.48-1.91.62-.9.15-1.82.44-2.06.65-.23.2-.92.5-1.54.63-.62.14-1.37.48-1.68.76-.3.29-.82.6-1.14.7-.32.09-.58.33-.58.52 0 .2-.41.49-.92.65-.5.17-1.06.53-1.23.8-.17.27-.51.5-.77.5-.25 0-.57.28-.7.64-.15.39-.45.65-.76.65-.32 0-.53.2-.59.58a.73.73 0 0 1-.66.66c-.38.06-.58.27-.58.6 0 .27-.18.57-.4.66-.22.08-.56.45-.76.83-.2.37-.66 1-1.03 1.38-.36.38-.66.92-.66 1.2a.7.7 0 0 1-.5.63c-.34.09-.56.45-.68 1.13-.1.55-.4 1.18-.68 1.4-.37.3-.55.85-.66 2-.1 1.2-.25 1.63-.58 1.74-.39.12-.46.68-.58 4.34-.2 6.12.07 11.47.6 11.9.24.17.5.84.57 1.48.09.7.34 1.3.65 1.55.28.22.58.84.68 1.37.1.54.38 1.08.64 1.22.27.14.56.68.66 1.2.1.57.35.99.62 1.06.25.06.58.46.74.87.16.42.46.76.67.76.2 0 .46.3.54.65.1.4.35.65.65.65.3 0 .55.24.65.65.1.41.34.64.67.64.3 0 .52.18.52.42 0 .22.24.47.53.55.3.08.65.41.77.75.15.38.45.61.78.61.34 0 .6.2.69.52.13.49.44.64 1.76.83.3.05.55.32.6.66.06.41.25.58.7.58.94 0 1.93.46 1.93.9 0 .3.3.4 1.2.4a3 3 0 0 1 2.06.64c.7.54 1.14.65 2.5.65.92 0 2.56.07 3.65.17 1.7.14 1.98.23 1.98.64 0 .27.14.48.31.48.17 0 .84.56 1.49 1.25a7.92 7.92 0 0 0 1.63 1.42c.25.09.45.35.45.57 0 .22.3.51.65.65.36.13.65.36.65.5 0 .15.48.51 1.08.82.6.3 1.25.7 1.44.9.2.2.6.36.89.36.29 0 .87.3 1.3.65.52.45 1.07.65 1.77.65.61 0 1.08.15 1.21.38.36.64 2.72.91 7.68.9 4.68 0 6.66-.23 7.4-.87a4 4 0 0 1 1.54-.52c.68-.1 1.29-.37 1.49-.66.19-.26.8-.56 1.38-.65.58-.1 1.03-.33 1.03-.51 0-.19.24-.5.52-.7.31-.2.6-.82.74-1.55.12-.67.45-1.5.74-1.88.3-.36.6-1.2.7-1.83.11-.72.31-1.17.53-1.17.22 0 .41-.47.52-1.29.1-.7.4-1.57.68-1.92.27-.35.57-1.18.66-1.85.12-.85.3-1.26.62-1.34.45-.12.75-1.24.76-2.82 0-.59.14-.85.5-.95.36-.09.55-.45.67-1.29.17-1.1.23-1.17 1.12-1.32 1.25-.2 17.29-.15 18.29.06.73.16.79.27.97 1.72.12 1.04.35 1.69.68 1.96.3.24.56.91.67 1.72.1.8.38 1.5.68 1.77a2 2 0 0 1 .52 1.25c.04 1.14.29 1.85.9 2.55.3.33.6.8.7 1.05.16.41.63.45 5.03.38l4.86-.07.08-1.75c.06-1.44 0-1.74-.33-1.74-.5 0-.91-1.02-.91-2.21 0-.66-.17-1-.65-1.31-.52-.35-.64-.64-.64-1.55 0-.85-.16-1.28-.65-1.77-.52-.52-.65-.9-.65-1.93 0-1.04-.1-1.32-.49-1.45-.52-.16-.8-.85-.8-2 0-.37-.3-1.03-.65-1.45a2.61 2.61 0 0 1-.65-1.68c0-.62-.16-1-.53-1.25-.38-.26-.59-.78-.73-1.85-.12-.83-.38-1.64-.6-1.81-.23-.18-.49-.86-.58-1.52-.13-.9-.3-1.24-.68-1.34-.38-.1-.5-.36-.5-1.02 0-1.17-.48-2.52-.9-2.52-.2 0-.39-.52-.48-1.36-.1-.88-.34-1.49-.66-1.75-.33-.26-.55-.87-.67-1.87-.13-1.1-.3-1.5-.65-1.62-.34-.11-.51-.52-.64-1.54-.1-.85-.36-1.56-.66-1.82-.27-.25-.55-.98-.65-1.71-.1-.77-.3-1.28-.5-1.28s-.47-.65-.66-1.61a4.97 4.97 0 0 0-.77-2.02c-.24-.21-.52-.9-.62-1.53-.1-.62-.36-1.26-.57-1.42-.2-.15-.52-1-.68-1.9-.17-.88-.44-1.61-.6-1.61-.16 0-.46-.38-.66-.84l-.37-.84-3.53-.08-3.53-.07-.77.89c-.5.57-.84 1.3-.95 2.05-.1.65-.34 1.23-.53 1.3-.2.08-.43.64-.53 1.26-.2 1.18-.56 2.05-.97 2.31-.14.1-.31.72-.39 1.4-.1.9-.27 1.26-.6 1.35-.35.09-.51.48-.64 1.5-.1.85-.36 1.56-.66 1.83-.28.25-.56.97-.65 1.7-.1.8-.35 1.4-.65 1.6-.34.25-.53.8-.65 1.92-.13 1.2-.27 1.6-.63 1.7-.33.08-.51.48-.64 1.37a5.4 5.4 0 0 1-.8 2.09c-.4.54-.62 1.17-.62 1.84 0 .8-.1 1.05-.5 1.16-.39.1-.55.45-.68 1.47a4 4 0 0 1-.53 1.69 3.94 3.94 0 0 0-.87 2.45c0 .5-.16.77-.52.86-.41.1-.52.35-.52 1.21 0 1.14-.36 2.08-.94 2.42-.2.12-.35.64-.35 1.24 0 .88-.51 2.12-1.06 2.56-.09.07-.23.6-.32 1.17s-.4 1.23-.69 1.46c-.37.3-.52.74-.52 1.47s-.2 1.27-.65 1.8a2.6 2.6 0 0 0-.64 1.85c0 .9-.1 1.1-.65 1.31-.56.21-.65.41-.65 1.38a3 3 0 0 1-.48 1.76 4.3 4.3 0 0 0-.67 1.52c-.4 1.98.06 1.81-5.06 1.81-3.86 0-4.7-.06-5.03-.4-.23-.23-.4-.51-.4-.64 0-.12-.5-.26-1.1-.3-.92-.07-1.12-.18-1.2-.66-.04-.38-.25-.58-.57-.58-.33 0-.5-.18-.5-.52 0-.4.23-.55 1.04-.68.62-.1 1.15-.36 1.3-.64.14-.26.67-.55 1.17-.65.65-.12 1-.36 1.16-.78.14-.37.44-.62.76-.62.33 0 .63-.25.78-.64.15-.4.45-.65.77-.65.34 0 .52-.17.52-.5 0-.32.21-.53.59-.58.36-.06.6-.3.66-.65.05-.36.3-.6.65-.65.33-.05.6-.3.64-.6.04-.3.33-.64.64-.78.32-.14.61-.46.66-.72.05-.25.37-.74.71-1.08.35-.35.63-.93.63-1.29 0-.4.15-.66.38-.66.47 0 .91-.8.91-1.65 0-.4.21-.77.52-.94.4-.2.52-.54.52-1.34 0-.73.2-1.33.63-1.89.58-.76.63-1.11.79-4.94.22-5.48-.12-10.6-.74-11.05-.28-.21-.53-.9-.66-1.85-.13-.97-.35-1.6-.63-1.75a.96.96 0 0 1-.43-.76c0-.65-.47-1.58-.94-1.86-.2-.11-.35-.47-.35-.79 0-.32-.34-.98-.77-1.47-.42-.5-.77-1.1-.77-1.35 0-.27-.21-.45-.51-.45-.32 0-.53-.21-.58-.59a.73.73 0 0 0-.65-.66.73.73 0 0 1-.65-.65.73.73 0 0 0-.65-.64.73.73 0 0 1-.65-.65c-.05-.37-.29-.6-.69-.65-.34-.05-.67-.31-.74-.59-.07-.27-.28-.5-.45-.5-.18 0-.76-.34-1.3-.77a3.88 3.88 0 0 0-1.32-.78c-.18 0-.5-.22-.68-.5-.2-.26-.81-.57-1.38-.66a5.18 5.18 0 0 1-1.77-.7 4.98 4.98 0 0 0-1.94-.67 6.6 6.6 0 0 1-2.1-.65c-.8-.45-1.47-.52-5.7-.58-2.63-.03-5.37-.01-6.08.05Zm84.3 1.18c-.39.4-.45 53.37-.05 54.42l.25.66h4.77c4.1 0 4.79-.06 4.92-.41.09-.23.16-12.62.16-27.54 0-24.5-.04-27.14-.4-27.29-.82-.3-9.31-.17-9.64.16Zm154.03 1.15-.58.13v6.07c0 4.92-.07 6.23-.4 6.84l-.38.75-2.91.07-2.91.08-.08 2-.07 2.01h2.97c2.35 0 3.05.08 3.37.4.36.37.41 1.94.41 13.46 0 12.58.02 13.08.52 13.9.3.48.51 1.3.51 1.92 0 .93.09 1.1.59 1.17.4.06.62.3.7.81.18.96 2.25 3.03 3.04 3.03.4 0 .69.2.84.6.21.57.4.62 2.9.77 1.48.1 4.06.1 5.75 0 2.74-.15 3.14-.23 3.73-.77.36-.33.97-.6 1.37-.6.7 0 1.53-.57 1.53-1.04 0-.12.27-.26.59-.3.78-.12.94-1.13.21-1.32-.38-.1-.57-.44-.7-1.22-.2-1.29-.77-1.62-1.4-.83-.26.31-.85.64-1.33.73a2.5 2.5 0 0 0-1.3.7c-.41.52-.67.56-4.37.56-3.79 0-3.94-.02-4.31-.59-.22-.32-.54-.58-.73-.58-.44 0-1.93-1.5-1.93-1.95 0-.2-.29-.66-.65-1.05l-.64-.7v-13.4c0-11.97.04-13.4.4-13.54.23-.09 3.71-.16 7.74-.16h7.33l.42-.64a3.8 3.8 0 0 0 .41-1.75c0-1.7-.2-1.75-8.5-1.75-6.46 0-7.13-.04-7.44-.45-.27-.35-.35-1.92-.35-6.72-.01-4.28-.1-6.32-.3-6.44-.36-.22-3.28-.37-4.05-.2Zm-238.7 8.36c-.64.55-.9.65-2.44.91-.68.12-1.04.33-1.13.67-.08.31-.35.5-.72.5-.36 0-.63.2-.72.52-.07.28-.4.63-.74.77-.88.36-1.68 1.11-1.89 1.77-.1.31-.39.57-.65.57-.29 0-.53.25-.63.64-.1.36-.34.65-.55.65-.22 0-.38.24-.38.55 0 .3-.28.87-.62 1.27-.34.4-.7 1.26-.8 1.92-.1.76-.35 1.31-.67 1.5-.47.3-.5.66-.5 5.3 0 3.8.08 5.02.34 5.17.36.23.95 2.01.95 2.88 0 .3.23.67.51.82.29.15.58.67.68 1.2.12.6.35.99.66 1.07.3.08.48.36.48.72 0 .43.17.63.59.69.37.05.6.29.66.66.05.38.26.58.59.58.3 0 .6.26.74.62.16.43.51.66 1.16.79.52.1 1.08.4 1.25.68.17.27.51.5.75.5s.6.16.79.35c.7.7 1.55.96 3.63 1.1 1.18.08 2.39.27 2.7.41.3.15 1.05.2 1.67.13 4.97-.59 5.82-.76 6.33-1.23.3-.28.73-.5.98-.5.58 0 1.79-.63 2.22-1.15.19-.22.6-.4.94-.4.42 0 .62-.17.68-.59.05-.37.29-.6.66-.66.39-.06.58-.26.58-.6 0-.3.22-.59.5-.66a.98.98 0 0 0 .62-.64c.08-.28.38-.58.68-.66a.7.7 0 0 0 .53-.66c0-.3.29-.9.64-1.37.35-.46.72-1.3.8-1.88.12-.67.33-1.08.62-1.16.38-.1.48-.57.62-2.9.22-3.7-.06-8.6-.5-8.78-.19-.07-.49-.85-.67-1.73-.23-1.11-.47-1.64-.78-1.72-.24-.07-.51-.46-.6-.87-.1-.41-.33-.75-.52-.75-.2 0-.54-.38-.76-.84a6.88 6.88 0 0 0-1.46-1.75 95 95 0 0 1-1.83-1.61c-.42-.4-1-.72-1.27-.72-.32 0-.5-.18-.5-.49 0-.56-.48-.8-1.6-.8-.42 0-1.14-.3-1.61-.65-.84-.63-.93-.64-5.64-.64-4.4 0-4.84.04-5.38.5Zm387.73 4.02c-.18.22-.74.4-1.26.4-1.8 0-2.88.29-2.88.77 0 .3-.27.5-.76.6a3.9 3.9 0 0 0-1.56.94c-.44.44-.9.79-1.03.79s-.31.38-.4.84c-.1.46-.4 1.02-.67 1.23-.33.26-.6 1.06-.86 2.5-.49 2.82-.07 6.03.97 7.39.38.5.69 1.1.69 1.33 0 .26.2.43.52.43s.62.25.77.65c.14.36.45.64.73.64.26 0 .75.3 1.08.65.34.36.86.65 1.17.65.3 0 .83.29 1.16.64a2 2 0 0 0 1.3.65c.39 0 1 .23 1.35.51.36.28 1.13.59 1.73.68.64.1 1.18.36 1.33.64.15.3.68.53 1.4.64.79.12 1.2.32 1.3.64.1.3.52.53 1.18.65.6.1 1.14.37 1.29.65.14.26.48.55.76.63.27.1.58.42.68.73.1.31.37.7.6.87.63.47.6 4.42-.04 4.78-.25.14-.45.4-.45.58 0 .58-2.79 3.27-3.38 3.27-.33 0-.6.2-.68.5-.17.64-1.07.8-4.63.8-2.74 0-2.97-.04-3.7-.65-.41-.36-1-.65-1.29-.65-.3 0-.6-.22-.68-.5a1.13 1.13 0 0 0-.66-.66 1.13 1.13 0 0 1-.65-.66c-.09-.28-.3-.5-.47-.5-.18 0-.45-.36-.6-.78-.17-.43-.49-.78-.71-.78-.24 0-.41-.22-.41-.5 0-.93-1.47-.95-2.33-.03-.22.23-.72.56-1.13.74-.5.22-.69.45-.58.72.08.22.15.64.15.93 0 .3.22.57.52.65.3.08.52.36.52.63 0 .3.27.6.65.74.35.14.64.43.64.65 0 .22.3.51.65.65.36.13.65.42.65.64 0 .22.3.52.67.66.37.14.73.49.8.77.11.4.36.52 1.17.52.81 0 1.06.1 1.17.52.07.28.38.57.68.63 1.46.29 5.24.4 8.16.24 2.94-.17 3.29-.24 3.8-.79.3-.33.82-.6 1.13-.6.3 0 .85-.3 1.2-.65.36-.36.83-.65 1.04-.65.2 0 .5-.29.63-.65.13-.35.42-.64.64-.64.22 0 .51-.29.64-.63s.4-.72.6-.84c.54-.31.96-1.24.96-2.08 0-.4.2-1 .42-1.34.83-1.18.75-4.05-.14-5.47a4.86 4.86 0 0 1-.4-1.38c-.12-.68-.33-1.05-.66-1.13-.26-.07-.52-.38-.56-.68a.73.73 0 0 0-.65-.64.73.73 0 0 1-.64-.65.73.73 0 0 0-.67-.65c-.32-.04-.7-.3-.84-.56-.14-.27-.68-.54-1.26-.64-.68-.12-1.06-.33-1.14-.66-.1-.36-.42-.5-1.26-.56-.88-.07-1.18-.21-1.38-.67-.21-.47-.47-.58-1.37-.58-.83 0-1.3-.16-1.82-.64-.38-.36-.9-.65-1.16-.65-.62 0-2-.72-2-1.04 0-.14-.26-.26-.58-.26-1.03 0-1.73-.3-1.88-.78-.08-.26-.4-.51-.71-.56-.4-.06-.61-.32-.74-.93a3.3 3.3 0 0 0-.59-1.32c-.3-.32-.41-.96-.41-2.16 0-1.47.06-1.71.51-1.83a.7.7 0 0 0 .52-.66c0-.6 1.41-2.11 1.99-2.11.21 0 .45-.22.52-.5.17-.65 2.5-.92 6.14-.72 2.14.12 2.67.23 3 .64.22.28.75.61 1.17.75.47.15.9.55 1.12 1.04.66 1.47 2.88 2.13 2.88.86 0-.3.22-.51.59-.56.5-.07.6-.27.66-1.28.06-1.03-.01-1.25-.58-1.62-.37-.24-.67-.61-.67-.83 0-.62-1.2-1.66-1.92-1.66-.42 0-.66-.15-.66-.4 0-.5-1.04-.9-2.3-.9-.53 0-1.2-.17-1.47-.38-.73-.55-5.87-.55-6.33 0Zm-229.27.58c-.49.06-.95.31-1.1.6-.2.36-.55.5-1.2.5-.56 0-1.22.24-1.73.64a7.6 7.6 0 0 1-1.53.9c-.4.14-.72.44-.72.64 0 .21-.26.42-.58.46-.32.05-.7.35-.84.67-.14.32-.34.58-.46.58-.28 0-2 1.74-2 2.02 0 .12-.29.36-.65.52-.36.17-.64.51-.64.8 0 .3-.24.55-.65.65-.44.11-.65.34-.65.72 0 .31-.28.98-.63 1.49-.61.87-.65 1.17-.8 5.84-.2 5.94.14 10.68.8 11.17.26.19.54.9.66 1.7.13.81.41 1.52.7 1.76.27.22.56.71.66 1.1.1.39.35.7.56.7.2 0 .54.4.75.9.2.48.61 1.04.9 1.22.3.19.54.54.54.78 0 .3.35.55 1.03.76.6.17 1.1.5 1.19.78.08.27.39.48.68.48.3 0 .8.3 1.14.65a2 2 0 0 0 1.27.65c.8 0 1.68.42 2.11 1 .27.36 1.22.41 7.31.4 6.87 0 7.03-.02 7.8-.6a4.5 4.5 0 0 1 1.76-.71c1.78-.24 2.08-.35 2.25-.87.12-.38.39-.52 1.03-.52.83 0 1.68-.53 1.68-1.05 0-.14.3-.24.65-.24.46 0 .65-.14.65-.49 0-.27.17-.63.39-.8.48-.4.48-.65.02-1.1-.2-.2-.4-.6-.45-.87-.16-.83-2.1-.83-3.1 0-.43.37-.95.67-1.16.67-.2 0-.49.29-.62.65-.21.56-.4.64-1.48.64a4 4 0 0 0-2.14.57c-.81.51-1.34.59-4.87.68-4.96.13-6.8-.07-6.97-.75-.1-.4-.37-.5-1.38-.5-.95 0-1.42-.15-2-.64-.43-.36-.96-.65-1.18-.65-.23 0-.54-.23-.69-.52-.15-.28-.45-.52-.66-.52-.21 0-.52-.29-.68-.64-.16-.36-.45-.65-.64-.65-.18 0-.4-.28-.5-.62-.08-.35-.34-.68-.58-.74-.26-.07-.56-.6-.75-1.32-.2-.7-.48-1.2-.69-1.2-.24 0-.41-.48-.53-1.5a8.46 8.46 0 0 0-.61-2.34c-.84-1.65-1.32-1.6 16.44-1.6 14.9 0 15.89-.03 16.02-.45.08-.25.27-.7.42-1.02.25-.53.2-1.93-.22-7.44-.12-1.6-.27-2.15-.66-2.46-.3-.24-.57-.88-.65-1.5-.1-.75-.3-1.14-.62-1.24-.3-.1-.55-.51-.65-1.07-.12-.61-.36-.98-.77-1.13a1.14 1.14 0 0 1-.67-.82c-.06-.4-.3-.63-.67-.68-.37-.06-.58-.26-.58-.58 0-.3-.24-.55-.63-.65-.34-.09-.68-.37-.74-.63-.07-.26-.47-.54-.9-.63a2.9 2.9 0 0 1-1.32-.8c-.41-.48-.81-.64-1.57-.64-.77 0-1.06-.12-1.18-.48-.11-.38-.5-.52-1.73-.65a94.01 94.01 0 0 0-9.99.02Zm45.82-.02c-.32.07-.7.34-.84.6-.15.28-.66.51-1.31.6-.68.1-1.21.34-1.45.68-.21.3-.53.54-.72.54-.18 0-.77.4-1.3.9-.52.5-1.05.91-1.17.91-.12 0-.32.44-.44.97-.14.59-.4 1-.68 1.06-.4.07-.44-.2-.44-2.34 0-1.55-.12-2.54-.31-2.74-.18-.17-1-.31-1.89-.31-2.68 0-2.46-1.77-2.46 19.59 0 16.86.04 18.63.44 19.54l.44.99h1.58c.88 0 1.71-.14 1.89-.31.23-.23.3-3.43.3-12.8 0-10.52.07-12.52.38-12.7.2-.11.53-1.1.75-2.25.24-1.29.54-2.13.8-2.28.22-.13.4-.5.4-.82 0-.38.24-.7.66-.89.35-.16.64-.48.64-.7 0-.22.3-.5.65-.64.4-.15.65-.45.65-.77 0-.29.15-.53.34-.53.19 0 .6-.29.9-.64.31-.36.8-.65 1.08-.65.29 0 .52-.1.52-.23 0-.61 1.66-.86 5.03-.76 2.82.08 3.57.18 3.97.54.27.24.89.52 1.38.62.48.1 1.03.38 1.2.63.19.25.67.53 1.1.62.43.1.83.39.92.67.09.27.38.62.66.77.3.16.56.66.66 1.32.12.72.33 1.1.65 1.19.5.13.62.6.84 3.27.07.84.25 1.65.4 1.8.19.19.28 4.13.28 12.1 0 7.9.1 12.08.28 12.62l.29.82h3.83V58.77c0-14.95-.01-15.25-.51-15.41-.38-.12-.56-.48-.68-1.42-.12-.92-.3-1.3-.65-1.38-.32-.09-.53-.46-.64-1.17-.13-.81-.3-1.07-.79-1.2-.39-.1-.62-.34-.62-.66s-.23-.56-.64-.67c-.4-.1-.65-.34-.65-.65 0-.27-.18-.49-.4-.49-.23 0-.76-.35-1.2-.78-.42-.42-1.04-.77-1.36-.77-.33 0-.77-.26-.99-.59-.38-.57-.5-.58-5.79-.62-2.97-.02-5.66.02-5.98.09Zm116.74.13c-.68.16-1.1.4-1.1.62 0 .23-.26.38-.66.38-.44 0-.74.2-.95.64-.16.36-.45.65-.64.65-.2 0-.48.28-.64.63-.16.34-.5.68-.77.75a.69.69 0 0 0-.49.67c0 .37-.16.54-.52.54-.46 0-.51-.17-.52-1.62 0-.89-.1-1.77-.21-1.95-.33-.52-2.94-.7-3.9-.28l-.8.35v19.1c0 12.86.09 19.09.27 19.09.14 0 .37.29.5.64.24.6.37.65 2.04.65h1.78l.16-.97c.09-.54.16-6.7.17-13.72 0-12.31.01-12.77.5-13.26.3-.29.58-1.04.68-1.8.12-.86.38-1.47.79-1.86.34-.32.62-.78.62-1.02s.24-.5.53-.58c.3-.08.6-.37.68-.66.07-.28.4-.58.75-.67.38-.1.62-.34.62-.64 0-.37.27-.52 1.17-.66.64-.1 1.16-.27 1.16-.4 0-.52 1.98-.83 4.75-.74l2.87.1.59-.89c.39-.57.6-1.26.6-1.97 0-1.02-.06-1.1-.81-1.26a54.66 54.66 0 0 0-9.22.14Zm25.57-.01c-.63.12-1.25.38-1.36.58-.1.2-.72.45-1.36.54-.79.12-1.2.32-1.3.65-.1.3-.5.52-1.16.63-.7.11-1.06.32-1.18.68-.09.28-.38.52-.66.52-.3 0-.55.23-.65.63-.1.38-.38.66-.72.71a.73.73 0 0 0-.64.65.71.71 0 0 1-.64.64c-.36.05-.6.3-.65.65-.05.35-.3.6-.65.65-.35.05-.6.3-.64.63-.05.31-.3.62-.56.68-.27.08-.55.47-.65.92a4.5 4.5 0 0 1-.74 1.52c-.54.68-.56.99-.64 7.27-.08 6.6.14 9.16.83 9.57.19.1.4.66.5 1.22.09.57.38 1.21.65 1.43.28.22.58.84.67 1.4.12.67.34 1.03.68 1.12.28.07.5.34.5.59 0 .25.24.52.54.6.3.08.6.37.67.65a1 1 0 0 0 .65.65c.28.07.57.37.65.67.08.3.35.54.63.54.3 0 .6.27.74.64.16.4.45.65.79.65.29 0 .83.28 1.2.62.4.37 1.16.7 1.83.8.8.12 1.2.32 1.28.63.1.4.58.48 3.85.63 2.06.1 5.43.1 7.5 0 3.29-.15 3.82-.24 4.11-.66.2-.28.78-.55 1.35-.62 1.84-.25 2.13-.36 2.3-.87.11-.37.43-.52 1.24-.58.83-.06 1.14-.21 1.34-.66a.93.93 0 0 1 .85-.58c.33 0 .66-.2.75-.46.1-.25.4-.64.7-.88.44-.36.47-.49.18-.84-.18-.23-.5-.41-.7-.41-.2 0-.35-.27-.35-.62 0-.78-.53-1.25-1.05-.92-.2.13-.61.24-.9.24-.29 0-.63.26-.77.59a1.2 1.2 0 0 1-.97.66 2.1 2.1 0 0 0-1.2.71c-.38.49-.74.63-1.56.63-1.03 0-2.03.38-2.4.9-.23.32-8 .52-10.01.27-1.07-.14-1.42-.3-1.52-.67-.1-.4-.37-.5-1.38-.5-.94 0-1.42-.15-2-.64-.43-.36-.97-.65-1.22-.65-.24 0-.5-.22-.57-.5a.98.98 0 0 0-.64-.62 1 1 0 0 1-.64-.65.99.99 0 0 0-.63-.64.7.7 0 0 1-.5-.63c0-.28-.27-.63-.62-.79-.45-.2-.67-.57-.8-1.36-.13-.75-.34-1.13-.68-1.22-.35-.09-.48-.36-.48-.96 0-.47-.12-1.46-.26-2.21-.19-.98-.18-1.47.03-1.72.24-.29 3.13-.35 16.18-.35 13.61 0 15.88-.05 15.88-.37 0-.2.25-.45.55-.54.52-.17.54-.31.45-3.27-.06-2.19-.2-3.15-.43-3.3-.21-.13-.4-.98-.5-2.24-.12-1.68-.25-2.13-.76-2.59a1.9 1.9 0 0 1-.6-1.37c0-.57-.19-.92-.65-1.23-.36-.23-.65-.64-.65-.9 0-.3-.24-.55-.63-.65-.38-.1-.66-.37-.71-.71a.73.73 0 0 0-.65-.64.73.73 0 0 1-.64-.65.73.73 0 0 0-.67-.65c-.37-.05-.58-.26-.58-.58 0-.31-.18-.5-.48-.5-.27 0-.92-.35-1.46-.78a2.95 2.95 0 0 0-1.95-.77c-.72 0-1-.12-1.1-.48-.08-.35-.46-.52-1.35-.65-1.73-.23-8.82-.16-10.21.12ZM250.54 34.3c-.4.49.1 2.45.63 2.45.22 0 .41.48.52 1.32.13.97.3 1.35.65 1.44.33.09.52.45.62 1.2.08.6.36 1.22.65 1.46.35.27.56.87.68 1.88.13 1.1.3 1.51.65 1.62.32.1.53.51.64 1.3.12.78.32 1.19.65 1.29.33.1.5.5.6 1.34.08.66.3 1.3.5 1.4.21.12.54.72.73 1.33.2.61.5 1.2.69 1.31.17.11.46.9.63 1.76.2 1 .47 1.64.77 1.8.29.16.53.69.63 1.4.13.81.32 1.17.67 1.26.4.1.49.37.49 1.35 0 .97.1 1.24.5 1.34.5.13.78.79.79 1.81 0 .32.3.89.65 1.27.42.45.65 1 .65 1.55 0 .8.54 1.66 1.05 1.66.13 0 .24.4.24.89 0 1.13.22 1.7.67 1.7.19 0 .47.46.62 1.03.24.9.4 1.04 1.2 1.2.62.11 1 .06 1.13-.15.1-.17.46-.45.8-.61.35-.18.7-.67.83-1.21.13-.5.4-1.1.62-1.34.21-.24.45-.92.53-1.52.1-.76.3-1.13.62-1.21.32-.09.52-.48.64-1.27.1-.65.37-1.28.63-1.47.27-.19.54-.83.64-1.52.12-.77.4-1.42.8-1.79.43-.4.63-.87.63-1.47 0-.58.18-1.03.53-1.31.32-.26.6-.87.68-1.53.1-.74.3-1.13.62-1.24.32-.1.52-.51.64-1.3.1-.65.45-1.58.8-2.08.33-.5.6-1.12.6-1.4 0-.26.16-.64.36-.83.6-.6.94-1.43.94-2.28 0-.6.14-.86.52-.96.42-.1.52-.35.52-1.22 0-.92.1-1.15.65-1.4.5-.22.64-.48.64-1.18 0-.87.71-2.48 1.1-2.48.1 0 .2-.3.2-.67 0-.36.14-.83.32-1.02.78-.87.9-1.1 1.05-2.07.09-.57.4-1.22.69-1.46.6-.49.67-1 .21-1.46-.32-.32-3.7-.44-4.45-.15-.23.08-.41.42-.41.75 0 .37-.2.67-.5.76-.36.12-.54.5-.67 1.43a4.2 4.2 0 0 1-.77 1.97c-.33.38-.68 1.2-.77 1.8-.09.61-.32 1.17-.51 1.24-.2.07-.43.61-.53 1.19-.1.58-.4 1.2-.65 1.39-.26.18-.56.79-.66 1.35-.2 1.13-.57 1.97-.97 2.23-.14.1-.31.76-.38 1.49-.1 1.05-.23 1.32-.59 1.32s-.5.3-.64 1.3c-.1.7-.28 1.3-.4 1.3-.28 0-1.02 1.68-1.02 2.31 0 .25-.23.66-.51.91-.31.28-.58.96-.69 1.72-.11.9-.3 1.3-.64 1.4-.35.11-.53.51-.65 1.45-.1.8-.41 1.6-.78 2.03-.34.4-.61.9-.61 1.12 0 .22-.08.58-.16.81-.23.59-.88.02-.88-.76 0-.32-.23-.74-.52-.94-.32-.22-.6-.83-.74-1.6a4.33 4.33 0 0 0-.78-1.83 2.25 2.25 0 0 1-.55-1.37c0-.57-.19-.92-.64-1.22-.53-.35-.65-.64-.65-1.55 0-.86-.13-1.22-.54-1.49-.35-.23-.62-.81-.78-1.65-.13-.75-.45-1.47-.75-1.72a1.64 1.64 0 0 1-.52-1.22c0-.43-.22-1-.49-1.25-.26-.26-.56-1-.65-1.67-.13-.85-.32-1.24-.65-1.32-.33-.09-.52-.48-.65-1.3a4.6 4.6 0 0 0-.68-1.83 2.3 2.3 0 0 1-.5-1.01c0-.73-.58-2-.9-2-.2 0-.4-.51-.5-1.3-.12-.86-.33-1.37-.65-1.54-.3-.16-.54-.68-.65-1.4-.16-1.07-.23-1.15-1.13-1.3-1.79-.3-3.6-.19-3.95.24Zm162.89-.23-.58.12v13.9c0 12.6.04 13.97.43 14.53.24.34.53 1.2.64 1.93.13.87.38 1.44.73 1.67.29.2.53.55.53.78 0 .24.32.84.73 1.33.4.5.8 1.1.9 1.35.08.25.34.46.55.46.22 0 .47.29.56.64.1.4.34.65.63.65.3 0 .5.22.55.58.06.38.3.62.67.67a.9.9 0 0 1 .73.67c.14.55.35.61 2.65.81 3.05.27 6.9.27 10.01 0 1.85-.16 2.42-.3 2.74-.7.23-.3.85-.57 1.47-.66.68-.09 1.1-.29 1.15-.54.05-.22.49-.53.99-.7.5-.16 1.01-.54 1.15-.84.14-.3.52-.62.84-.7.37-.1.6-.35.6-.66 0-.27.34-.9.77-1.38.43-.49.78-1.1.78-1.36 0-.25.24-.72.53-1.03.39-.41.57-1.05.68-2.4.1-1.07.3-1.98.5-2.14.3-.24.36-2.69.36-13.4v-13.1l-.8-.36c-.96-.43-3.57-.24-3.9.28-.12.18-.21 6.41-.22 13.84 0 13-.02 13.53-.5 13.86-.3.21-.56.81-.67 1.56-.12.83-.32 1.26-.64 1.36-.26.08-.54.43-.63.79-.09.35-.32.63-.52.63s-.44.24-.53.52c-.1.29-.38.52-.63.52s-.59.29-.75.65c-.22.48-.5.64-1.08.64-.46 0-1.01.24-1.35.58-.52.52-.9.58-3.83.67-2.53.08-3.46.02-4.21-.3-.53-.22-.97-.53-.97-.68 0-.15-.29-.27-.65-.27-.35 0-.84-.23-1.09-.51a3.4 3.4 0 0 0-1.29-.8c-.47-.15-.85-.43-.85-.6 0-.19-.3-.67-.65-1.09a4.34 4.34 0 0 1-.82-1.4c-.1-.35-.33-.77-.54-.92-.65-.48-.81-3.78-.83-16.6 0-8.81-.1-12.52-.3-12.65-.36-.23-3.27-.37-4.04-.2Zm-211.28 1.1a4.77 4.77 0 0 0-.26 1.71c0 .97-.1 1.23-.5 1.34-.37.1-.56.5-.77 1.7-.18 1.05-.44 1.67-.8 1.92-.4.29-.52.66-.52 1.64 0 .85-.13 1.33-.39 1.48-.21.12-.51.9-.66 1.73a6.68 6.68 0 0 1-.8 2.22c-.37.5-.5 1-.43 1.84l.08 1.14 5.88.07c5.75.07 5.88.06 6.17-.48.35-.67.11-1.8-.4-1.8-.23 0-.42-.42-.54-1.22a4.4 4.4 0 0 0-.5-1.62 6.08 6.08 0 0 1-.9-2.65c0-.28-.24-.8-.52-1.16a2.8 2.8 0 0 1-.52-1.47c0-1.25-.27-1.94-.8-2.1-.39-.13-.5-.41-.5-1.3 0-1.39-.38-2.45-.88-2.45-.2 0-.45-.23-.54-.52-.2-.65-.55-.66-.9-.01Zm105.4 2c-.33.08-.66.3-.74.48-.08.22-.78.42-1.8.53-1.38.15-1.76.3-2.09.8-.22.34-.56.61-.75.61-.2 0-.48.24-.63.52-.15.29-.4.52-.53.52-.4 0-2.06 1.75-2.06 2.17 0 .21-.21.45-.48.54-.28.08-.56.49-.64.91a2.9 2.9 0 0 1-.66 1.27c-.31.3-.57 1.05-.68 1.93a3.86 3.86 0 0 1-.71 2c-.4.42-.47.67-.27.98.24.38 1.66.42 14.47.42h14.21l.08-1.14c.05-.62-.01-1.2-.13-1.3-.43-.3-.85-1.6-.85-2.6 0-.7-.16-1.12-.49-1.35a2.3 2.3 0 0 1-.67-1.21c-.12-.54-.38-.92-.69-1-.27-.07-.56-.4-.64-.75-.1-.37-.35-.61-.64-.61-.3 0-.55-.25-.65-.65-.09-.36-.34-.65-.55-.65-.21 0-.72-.28-1.13-.62a4.31 4.31 0 0 0-2.04-.8c-.78-.1-1.4-.35-1.54-.59-.18-.33-.8-.42-3.17-.47-1.61-.04-3.2 0-3.53.06Zm188 0a1.7 1.7 0 0 0-.79.47c-.14.18-.78.42-1.42.53-.66.11-1.3.4-1.5.68-.18.27-.8.56-1.36.65-.78.12-1.02.28-1.02.67a.7.7 0 0 1-.5.64.98.98 0 0 0-.62.64c-.07.28-.37.57-.66.65a.9.9 0 0 0-.6.69.73.73 0 0 1-.63.64c-.44.06-.6.31-.73 1.2-.11.77-.3 1.17-.6 1.23-.34.06-.5.57-.7 2.33a15.9 15.9 0 0 0-.18 2.52c.06.19 4.63.27 14.21.27h14.12l-.13-1.66c-.1-1.16-.3-1.89-.69-2.37a2.89 2.89 0 0 1-.55-1.5c0-1.31-.27-1.97-.8-1.97-.35 0-.49-.2-.49-.68 0-.45-.17-.71-.52-.8-.28-.08-.51-.34-.51-.58 0-.25-.3-.58-.65-.74-.36-.17-.65-.48-.65-.7 0-.24-.24-.39-.65-.39a.96.96 0 0 1-.94-.61c-.22-.5-.52-.64-1.55-.74a3.67 3.67 0 0 1-1.8-.6c-.43-.4-1.02-.49-3.55-.54-1.66-.04-3.26 0-3.54.07ZM47.14 41.83c-1.18.25-1.79.54-2.16 1-.28.36-.72.66-.98.66-.28 0-.53.25-.63.64-.09.36-.32.65-.5.65-.37 0-.95 1.06-.95 1.74 0 .23-.2.64-.45.92-.37.4-.45.98-.45 2.98 0 1.73.1 2.5.32 2.58.17.06.43.54.58 1.08.14.54.61 1.34 1.04 1.79.42.45.77.91.77 1.03s.47.36 1.04.53c.57.17 1.03.47 1.03.66 0 .68 4.72 1.14 7.08.7 1.62-.3 2.35-.05 3.31 1.13.23.29 1.56 1.63 2.95 2.98a126.31 126.31 0 0 1 3.43 3.44l2.72 2.74a85.47 85.47 0 0 0 3.14 3.1c.41.38.88.84 1.03 1.02.16.19.44.48.62.65.19.17.48.46.65.64.17.19.46.48.63.65.18.17 1.11 1.1 2.07 2.08a114.46 114.46 0 0 0 2.74 2.71c.17.19.46.48.65.65a150.6 150.6 0 0 0 3.87 3.88c2.13 2.09 2.13 2.1 2.13 3.43 0 .88-.13 1.46-.39 1.67-.25.21-.39.79-.39 1.68 0 .9.14 1.47.4 1.68.23.2.38.77.38 1.45 0 .8.14 1.21.5 1.46.27.2.68.76.92 1.26.27.55.76 1.04 1.26 1.25.45.2.96.53 1.13.75.2.23 1.18.52 2.46.72 1.81.27 2.49.26 4.4-.08 1.58-.28 2.27-.51 2.27-.76 0-.2.28-.47.61-.6.34-.12.68-.47.76-.77a.7.7 0 0 1 .68-.53c.4 0 .54-.17.54-.65 0-.4.15-.65.4-.65.66 0 .9-1.2.9-4.69 0-3.25-.03-3.38-.65-3.96-.36-.33-.65-.79-.65-1.03 0-.23-.28-.53-.61-.66a1.33 1.33 0 0 1-.75-.77.7.7 0 0 0-.67-.54.74.74 0 0 1-.68-.5c-.22-.68-2.19-.9-6.34-.72-3.57.15-3.9.1-3.9-.58 0-.28-.25-.53-.64-.63-.4-.1-.65-.35-.65-.65 0-.3-.24-.55-.64-.65-.42-.1-.65-.34-.65-.67 0-.29-.17-.51-.4-.51-.21 0-.5-.3-.64-.65-.13-.36-.42-.65-.64-.65-.22 0-.51-.29-.65-.65-.14-.35-.43-.64-.65-.64-.22 0-.5-.3-.64-.65-.15-.39-.45-.65-.76-.65-.32 0-.53-.2-.59-.58a.73.73 0 0 0-.64-.66.73.73 0 0 1-.65-.65.73.73 0 0 0-.66-.65c-.38-.05-.59-.26-.59-.59 0-.3-.26-.6-.64-.75-.36-.13-.65-.43-.65-.65 0-.22-.3-.5-.65-.64-.35-.14-.65-.43-.65-.65 0-.22-.29-.51-.64-.65-.36-.13-.65-.42-.65-.64 0-.23-.3-.52-.65-.65-.35-.14-.64-.43-.64-.64 0-.22-.23-.4-.52-.4-.33 0-.57-.23-.67-.64-.1-.4-.35-.65-.65-.65-.3 0-.54-.24-.64-.62-.09-.35-.39-.69-.67-.76a1 1 0 0 1-.65-.65 1 1 0 0 0-.65-.65 1 1 0 0 1-.65-.65c-.07-.28-.41-.58-.75-.67-.38-.1-.63-.34-.63-.64s-.24-.54-.64-.64c-.42-.11-.65-.35-.65-.68 0-.29-.17-.51-.4-.51-.21 0-.5-.3-.63-.65-.14-.36-.43-.65-.65-.65-.22 0-.51-.29-.65-.64-.13-.36-.43-.65-.65-.65-.22 0-.5-.29-.64-.63a1.97 1.97 0 0 0-.76-.91c-.6-.33-.46-.94.26-1.13.46-.12.5-.38.5-3.23 0-2.87-.04-3.11-.51-3.23-.37-.1-.56-.44-.68-1.2-.12-.71-.33-1.1-.67-1.2-.28-.1-.6-.44-.74-.79-.14-.37-.45-.62-.74-.62a.75.75 0 0 1-.67-.5c-.12-.38-.64-.58-2.4-.9-2.63-.48-3-.48-5.2 0Z" clip-rule="evenodd"/></svg>