<svg xmlns="http://www.w3.org/2000/svg" width="200" height="112" fill="currentColor" viewBox="0 0 200 112"><defs><clipPath id="a"><path fill="#fff" d="M0 .44h200v111.11H0z"/></clipPath></defs><g clip-path="url(#a)"><path fill="currentColor" fill-rule="evenodd" d="M45 108.78h110.28L200 54.6 155.28.44H45L0 54.61l45 54.17Zm107.78-5.56H47.22l-40-48.89L47.5 6h105.28l40.28 48.89-40.28 48.05v.28ZM47.22 53.5v19.17h-6.1V30.44h11.94c3.33 0 5.55.84 7.77 2.78a13.05 13.05 0 0 1 2.78 8.34c.05 2.15-.53 4.27-1.67 6.1a8.2 8.2 0 0 1-3.88 3.62c.83.28 1.66 1.1 2.5 1.94l1.1 4.17 1.67 15.28h-6.1l-1.4-14.73c-.27-1.38-.55-2.5-1.39-3.05a3.7 3.7 0 0 0-2.77-1.11h-4.45v-.28Zm0-17.78v12.22h5.56c1.39 0 2.78-.27 3.33-1.38 1.11-1.12 1.39-2.78 1.39-4.73 0-2.22-.56-3.6-1.39-4.72-.55-.83-1.94-1.39-3.33-1.39h-5.56Zm36.11 36.11a10.94 10.94 0 0 1-5.55 1.4 9.39 9.39 0 0 1-5.56-1.67 8.8 8.8 0 0 1-3.89-4.45c-1.1-1.67-1.39-4.17-1.39-6.67V54.9c0-2.78.28-5 1.4-6.95a10.28 10.28 0 0 1 9.44-5.83c2.22 0 3.89.56 5.55 1.67a10.1 10.1 0 0 1 3.9 4.44c1.1 1.95 1.38 4.17 1.38 6.67v5.83c0 2.78-.28 5-1.39 6.67a8.8 8.8 0 0 1-3.89 4.44ZM73.9 66a5.04 5.04 0 0 0 3.89 1.67c1.66 0 2.78-.56 3.89-1.67a10.22 10.22 0 0 0 1.39-5.56v-6.1a8.33 8.33 0 0 0-1.4-5.28 5.04 5.04 0 0 0-3.88-1.67c-1.67 0-2.78.55-3.9 1.67a8.33 8.33 0 0 0-1.38 5.27v6.4c0 2.21.56 3.88 1.39 5.27Zm37.5 4.72a9.87 9.87 0 0 1-6.95 2.78c-3.33 0-6.1-1.39-8.05-3.61a13.89 13.89 0 0 1-2.78-9.45V54.9c-.26-3.38.73-6.74 2.78-9.45 2.22-2.5 4.72-3.6 8.33-3.6 2.78 0 5.28.83 6.95 2.77 1.66 1.39 2.77 3.89 3.33 6.95l-5.56 1.38c-.55-3.88-2.22-5.55-5-5.55-1.66 0-2.77.55-3.88 1.67a9.88 9.88 0 0 0-1.4 5.27v6.4c0 2.21.56 3.88 1.4 5.27a5.04 5.04 0 0 0 3.88 1.67c1.4 0 2.5-.28 3.34-1.4.83-.83 1.39-2.21 1.66-4.16L115 63.5c-.56 3.06-1.67 5.56-3.61 7.22ZM125 52.67v20h-5.56V30.44H125V44.9c.56-.83 1.39-1.39 2.78-2.22a8.33 8.33 0 0 1 3.89-.84c2.77 0 4.72.84 6.1 2.78 1.4 1.39 2.23 3.89 2.23 6.95v21.1h-5.56v-20c0-1.66-.55-3.05-1.38-4.16a4.6 4.6 0 0 0-3.34-1.39c-1.39 0-2.78.56-3.33 1.39a5.55 5.55 0 0 0-1.39 4.72v-.55Zm37.78-7.5c1.66 2.22 2.78 5.55 2.78 9.16v4.45H150v2.5c0 2.22.56 3.89 1.39 5.28a4.89 4.89 0 0 0 3.61 1.66c1.39 0 2.5-.28 3.33-1.39a6.28 6.28 0 0 0 1.67-3.6l5 1.1a10.7 10.7 0 0 1-3.06 6.67 10.15 10.15 0 0 1-6.94 2.5c-3.33 0-5.56-1.11-7.78-3.61-1.94-2.22-2.78-5.56-2.78-9.45V54.9c0-2.78.28-4.72 1.4-6.95a14.15 14.15 0 0 1 3.6-4.44 12.65 12.65 0 0 1 5.56-1.39c3.33 0 5.56 1.11 7.78 3.33v-.27Zm-3.9 3.6a4.5 4.5 0 0 0-3.88-1.94c-1.39 0-2.78.56-3.33 1.95-1.11 1.1-1.4 2.78-1.4 5v.83H160V53.5c.1-1.65-.28-3.3-1.11-4.72Z" clip-rule="evenodd"/></g></svg>