<svg xmlns="http://www.w3.org/2000/svg" width="49" height="49" fill="currentColor" viewBox="0 0 49 49"><path fill-rule="evenodd" d="M8.46 2.44c3.29-.26 8.5-.54 15.9-.54 7.42 0 12.63.28 15.91.54A7.1 7.1 0 0 1 46.82 9c.27 3.28.55 7.48.55 14.9a2 2 0 1 1-4 0c0-7.3-.28-11.4-.54-14.57a3.1 3.1 0 0 0-2.88-2.89c-3.17-.26-8.27-.53-15.58-.53-7.32 0-12.41.27-15.58.53A3.1 3.1 0 0 0 5.9 9.32a194.1 194.1 0 0 0-.53 15.58c0 7.31.27 12.4.53 15.58a3.1 3.1 0 0 0 2.89 2.89c3.18.25 7.27.53 14.58.53a2 2 0 1 1 0 4c-7.43 0-11.63-.28-14.9-.55A7.1 7.1 0 0 1 1.9 40.8c-.26-3.28-.54-8.49-.54-15.9 0-7.42.28-12.62.54-15.9a7.1 7.1 0 0 1 6.55-6.56Zm34.95 25.91c-1.28-1.02-2.9-.69-3.95.27-.59.54-1.4 1.3-2.5 2.38a138 138 0 0 0-2.52-2.38c-1.04-.96-2.66-1.28-3.95-.27a15.37 15.37 0 0 0-2.5 2.5c-1.02 1.29-.7 2.92.26 3.96l2.38 2.5a133.6 133.6 0 0 0-2.37 2.51c-.96 1.04-1.29 2.67-.27 3.95a15.35 15.35 0 0 0 2.5 2.5c1.29 1.02 2.91.7 3.95-.26.6-.54 1.41-1.3 2.51-2.38 1.1 1.07 1.92 1.84 2.51 2.38 1.04.96 2.67 1.28 3.95.27a15.34 15.34 0 0 0 2.5-2.5c1.02-1.29.7-2.92-.26-3.96-.54-.59-1.31-1.4-2.38-2.5 1.07-1.1 1.84-1.93 2.38-2.51.96-1.04 1.28-2.67.27-3.95a15.34 15.34 0 0 0-2.5-2.5Z" clip-rule="evenodd"/></svg>