<svg xmlns="http://www.w3.org/2000/svg" width="56" height="56" fill="currentColor" viewBox="0 0 56 56"><path d="M49 4.87c0-.97-.74-1.76-1.68-1.86l-.2-.01H8.88C7.84 3 7 3.84 7 4.87v19.95l.01.2c.1.94.9 1.67 1.86 1.67h38.26c1.03 0 1.87-.84 1.87-1.87V4.87Zm2 19.95a3.87 3.87 0 0 1-3.87 3.87H8.87A3.87 3.87 0 0 1 5 25.02V4.87A3.87 3.87 0 0 1 8.87 1h38.46C49.37 1.1 51 2.8 51 4.87v19.95ZM19.17 39a4 4 0 0 0-8 0v.2a4 4 0 0 0 8-.2Zm2 0a6 6 0 0 1-12 .3V39a6 6 0 0 1 12 0ZM44.83 39a4 4 0 0 0-8 0v.2a4 4 0 0 0 8-.2Zm2 0a6 6 0 1 1-12 0 6 6 0 0 1 12 0ZM15.17 47a11 11 0 0 1 10.08 6.6 1 1 0 1 1-1.83.8 9 9 0 0 0-16.5 0 1 1 0 1 1-1.84-.8A11 11 0 0 1 15.17 47ZM40.83 47a11 11 0 0 1 10.09 6.6 1 1 0 1 1-1.84.8 9 9 0 0 0-16.5 0 1 1 0 1 1-1.83-.8A11 11 0 0 1 40.83 47Z"/><path d="M31.5 12.7a3.5 3.5 0 1 0-7 0 3.5 3.5 0 0 0 7 0Zm2 0a5.5 5.5 0 1 1-11-.01 5.5 5.5 0 0 1 11 0Z"/><path d="M36.17 27.69v-.4a9 9 0 0 0-16.34 0v.5a1 1 0 0 1-2 0v-.72a1 1 0 0 1 .09-.4 11 11 0 0 1 20.16 0 1 1 0 0 1 .09.4v.62a1 1 0 0 1-2 0Z"/></svg>