<svg xmlns="http://www.w3.org/2000/svg" width="56" height="56" fill="currentColor" viewBox="0 0 56 56"><path d="M53 28a25 25 0 1 0-50 0 25 25 0 0 0 50 0Zm2 0a27 27 0 1 1-54 0 27 27 0 0 1 54 0Z"/><path d="M54 27a1 1 0 1 1 0 2H2a1 1 0 1 1 0-2h52Z"/><path d="M28 1a1 1 0 0 1 .78.37A45.88 45.88 0 0 1 39 28.05a45.88 45.88 0 0 1-10.22 26.58 1 1 0 0 1-1.56 0A45.88 45.88 0 0 1 17 27.95 45.88 45.88 0 0 1 27.22 1.37l.08-.08A1 1 0 0 1 28 1Zm0 2.62A43.88 43.88 0 0 0 19 28a43.88 43.88 0 0 0 9 24.38A43.88 43.88 0 0 0 37 28a43.88 43.88 0 0 0-9-24.38Z"/></svg>