<svg xmlns="http://www.w3.org/2000/svg" width="56" height="56" fill="currentColor" viewBox="0 0 56 56"><path d="M1.16 34.31a1 1 0 0 1 1.38-.3l21.68 13.9a6.8 6.8 0 0 0 7.82-.3l12.52-9.27a1 1 0 0 1 1.2 1.6l-12.52 9.27a8.8 8.8 0 0 1-10.1.38L1.46 35.69a1 1 0 0 1-.3-1.38Z"/><path d="M53.5 5.13a1 1 0 0 1 1 1.74l-10.95 6.27a1 1 0 0 1-.45.13l-9.12.43a11 11 0 0 0-6.8 2.77l-6.22 5.55a3.9 3.9 0 0 0 4.97 6l4.8-3.7.08-.06a1 1 0 0 1 1.24.14l13.21 13.4 8.15-6a1 1 0 0 1 1.18 1.61l-8.84 6.5a1 1 0 0 1-1.3-.1l-13.2-13.37-4.1 3.16a5.9 5.9 0 0 1-7.52-9.08l6.21-5.54a13 13 0 0 1 8.04-3.28l8.88-.42L53.5 5.13Z"/><path d="M40.28 23.54a1 1 0 1 1 1.65 1.13A7.76 7.76 0 0 1 37 27.73a7.18 7.18 0 0 1-6.33-1.87 1 1 0 0 1 1.37-1.46 5.18 5.18 0 0 0 4.6 1.36 5.77 5.77 0 0 0 3.65-2.22ZM1.13 7.45a1 1 0 0 1 1.36-.38l8.57 4.88 7.55-1.38c2.9-.53 5.87.3 8.12 2.26l.21.2.05.05 1.13 1.2a1 1 0 1 1-1.46 1.36l-1.1-1.16a7.68 7.68 0 0 0-6.59-1.94l-7.91 1.45a1 1 0 0 1-.68-.12L1.5 8.81a1 1 0 0 1-.37-1.36Z"/></svg>