<svg xmlns="http://www.w3.org/2000/svg" width="49" height="49" fill="currentColor" viewBox="0 0 49 49"><path fill="currentColor" fill-rule="evenodd" d="M29.06 2.51c.83 0 1.5.67 1.5 1.5v1.5h1.5a1.5 1.5 0 0 1 0 3h-1.5v1.5a1.5 1.5 0 0 1-3 0v-1.5h-1.5a1.5 1.5 0 0 1 0-3h1.5v-1.5c0-.83.67-1.5 1.5-1.5ZM18.3 19.48a13.88 13.88 0 0 0 17.14 13.5c.8-.19 1.6.55 1.27 1.31a17.5 17.5 0 1 1-16.14-24.28c.57 0 .85.68.5 1.14a13.82 13.82 0 0 0-2.77 8.33Zm20.1 7.94a.87.87 0 0 1-1.65 0l-1.62-4.91a.87.87 0 0 0-.55-.56l-4.91-1.61a.87.87 0 0 1 0-1.65l4.91-1.62c.26-.08.47-.29.55-.55l1.62-4.91a.87.87 0 0 1 1.65 0L40 16.52c.09.26.3.47.55.55l4.92 1.62c.8.26.8 1.39 0 1.65l-4.92 1.61a.87.87 0 0 0-.55.56l-1.61 4.9Z" clip-rule="evenodd"/></svg>