<svg xmlns="http://www.w3.org/2000/svg" width="56" height="56" fill="currentColor" viewBox="0 0 56 56"><path d="M28 45c4.16 0 7.96 2.83 8.97 6.75a1 1 0 0 1-1.94.5A7.3 7.3 0 0 0 28 47a7.3 7.3 0 0 0-7.03 5.25 1 1 0 0 1-1.94-.5c1-3.92 4.81-6.75 8.97-6.75ZM31 8a3 3 0 0 0-2.7-2.99L28 5a3 3 0 0 0 0 6l.3-.01A3 3 0 0 0 31 8Zm2 0a5 5 0 0 1-4.75 5H28a5 5 0 0 1 0-10h.25A5 5 0 0 1 33 8ZM23 22a3 3 0 1 0-6 0 3 3 0 0 0 6 0Zm2 0a5 5 0 1 1-10 0 5 5 0 0 1 10 0ZM39 22a3 3 0 0 0-6 0l.01.3A3 3 0 0 0 39 22Zm2 0a5 5 0 0 1-10 .25V22a5 5 0 0 1 10 0Z"/><path d="M12 45c4.16 0 7.96 2.83 8.97 6.75a1 1 0 0 1-1.94.5A7.3 7.3 0 0 0 12 47a7.3 7.3 0 0 0-7.03 5.25 1 1 0 0 1-1.94-.5C4.03 47.83 7.84 45 12 45ZM44 45c4.16 0 7.96 2.83 8.97 6.75a1 1 0 0 1-1.94.5A7.3 7.3 0 0 0 44 47a7.3 7.3 0 0 0-7.03 5.25 1 1 0 0 1-1.94-.5c1-3.92 4.81-6.75 8.97-6.75ZM47 36a3 3 0 0 0-2.7-2.99L44 33a3 3 0 1 0 3 3Zm2 0a5 5 0 1 1-5-5h.25A5 5 0 0 1 49 36ZM31 36a3 3 0 0 0-2.7-2.99L28 33a3 3 0 1 0 3 3Zm2 0a5 5 0 1 1-5-5h.25A5 5 0 0 1 33 36ZM14.99 35.7a3 3 0 0 0-2.7-2.69L12 33a3 3 0 0 0-3 3l.01.3A3 3 0 0 0 15 36l-.01-.3Zm2 .55a5 5 0 0 1-9.98 0L7 36a5 5 0 0 1 5-5h.25A5 5 0 0 1 17 36v.25Z"/></svg>