<svg xmlns="http://www.w3.org/2000/svg" width="56" height="56" fill="currentColor" viewBox="0 0 56 56"><path fill="currentColor" d="M3 48V38a1 1 0 1 1 2 0v10a3 3 0 0 0 3 3h10a1 1 0 1 1 0 2H8a5 5 0 0 1-5-5Zm48 0V38a1 1 0 1 1 2 0v10a5 5 0 0 1-5 5H38a1 1 0 1 1 0-2h10a3 3 0 0 0 3-3ZM21.3 17.3a1 1 0 1 1 1.4 1.4L13.42 28l9.3 9.3a1 1 0 1 1-1.42 1.4l-10-10a1 1 0 0 1 0-1.4l10-10Zm12 0a1 1 0 0 1 1.4 0l10 10a1 1 0 0 1 0 1.4l-10 10a1 1 0 1 1-1.4-1.4l9.29-9.3-9.3-9.3a1 1 0 0 1 0-1.4ZM3 18V8a5 5 0 0 1 5-5h10a1 1 0 1 1 0 2H8a3 3 0 0 0-3 3v10a1 1 0 1 1-2 0Zm48 0V8a3 3 0 0 0-3-3H38a1 1 0 1 1 0-2h10a5 5 0 0 1 5 5v10a1 1 0 1 1-2 0Z"/></svg>