<svg xmlns="http://www.w3.org/2000/svg" width="48" height="48" fill="currentColor" viewBox="0 0 48 48"><path fill="currentColor" fill-rule="evenodd" d="M24 1h-.57c-2.05.05-3.37 1.67-3.42 3.57a39.4 39.4 0 0 0 0 1.86c.05 1.9 1.37 3.52 3.42 3.56a27.14 27.14 0 0 0 1.14 0c2.05-.04 3.37-1.66 3.42-3.56a39.4 39.4 0 0 0 0-1.86c-.05-1.9-1.37-3.52-3.42-3.56L24 1Zm0 15a8 8 0 1 0 0 16 8 8 0 0 0 0-16Zm-12 8a12 12 0 1 1 24 0 12 12 0 0 1-24 0ZM39.86 7.34c-1.48-1.42-3.57-1.21-4.94.1a39.32 39.32 0 0 0-1.32 1.32c-1.3 1.37-1.52 3.46-.1 4.94a27.73 27.73 0 0 0 .8.8c1.49 1.42 3.57 1.2 4.94-.1a39.63 39.63 0 0 0 1.32-1.32c1.31-1.37 1.52-3.46.1-4.94a27.15 27.15 0 0 0-.8-.8ZM42.5 20l-.93.01c-1.9.05-3.52 1.37-3.56 3.42a27.07 27.07 0 0 0 0 1.14c.04 2.05 1.66 3.37 3.56 3.42a39.4 39.4 0 0 0 1.86 0c1.9-.05 3.52-1.37 3.56-3.42a27.07 27.07 0 0 0 0-1.14c-.04-2.05-1.66-3.37-3.56-3.42L42.5 20Zm-3.26 13.6c-1.37-1.3-3.45-1.52-4.94-.1a26.72 26.72 0 0 0-.8.8c-1.42 1.49-1.2 3.57.1 4.94a39.25 39.25 0 0 0 1.32 1.32c1.37 1.31 3.46 1.52 4.94.1a27.25 27.25 0 0 0 .8-.8c1.42-1.48 1.21-3.57-.1-4.94a39.23 39.23 0 0 0-1.32-1.32ZM24 38h-.57c-2.05.05-3.37 1.67-3.42 3.57a39.4 39.4 0 0 0 0 1.86c.05 1.9 1.37 3.52 3.42 3.56a27.07 27.07 0 0 0 1.14 0c2.05-.04 3.37-1.66 3.42-3.56a39.4 39.4 0 0 0 0-1.86c-.05-1.9-1.37-3.52-3.42-3.56L24 38Zm-10.3-4.5c-1.48-1.42-3.57-1.2-4.94.1a39.21 39.21 0 0 0-1.32 1.32c-1.31 1.37-1.52 3.46-.1 4.94a27.14 27.14 0 0 0 .8.8c1.48 1.42 3.57 1.21 4.94-.1a39.24 39.24 0 0 0 1.32-1.32c1.3-1.37 1.52-3.45.1-4.94a27.24 27.24 0 0 0-.8-.8ZM5.5 20l-.93.01c-1.9.05-3.52 1.37-3.56 3.42a27.14 27.14 0 0 0 0 1.14c.04 2.05 1.66 3.37 3.56 3.42a39.4 39.4 0 0 0 1.86 0c1.9-.05 3.52-1.37 3.56-3.42a27.14 27.14 0 0 0 0-1.14c-.04-2.05-1.66-3.37-3.56-3.42L5.5 20Zm7.58-12.56c-1.37-1.31-3.46-1.52-4.94-.1a27.08 27.08 0 0 0-.8.8c-1.42 1.48-1.21 3.57.1 4.94a39.28 39.28 0 0 0 1.32 1.32c1.37 1.3 3.46 1.52 4.94.1a27.25 27.25 0 0 0 .8-.8c1.42-1.48 1.2-3.57-.1-4.94a39.6 39.6 0 0 0-1.32-1.32Z" clip-rule="evenodd"/></svg>