<svg xmlns="http://www.w3.org/2000/svg" width="56" height="56" fill="currentColor" viewBox="0 0 56 56"><path d="M27 22.1a9 9 0 0 1-4.9 4.9l-2.45 1 2.45 1a9 9 0 0 1 4.9 4.9l1 2.44 1-2.44a9 9 0 0 1 4.9-4.9l2.44-1-2.44-1a9 9 0 0 1-4.9-4.9l-1-2.45-1 2.45ZM39 28c0 .65-.4 1.23-.99 1.48l-3.35 1.38a7 7 0 0 0-3.8 3.8l-1.38 3.35a1.6 1.6 0 0 1-2.96 0l-1.38-3.35a7 7 0 0 0-3.8-3.8l-3.35-1.38a1.6 1.6 0 0 1 0-2.96l3.35-1.38a7 7 0 0 0 3.8-3.8l1.38-3.35.05-.11a1.6 1.6 0 0 1 2.9.1l1.39 3.36a7 7 0 0 0 3.8 3.8l3.35 1.38c.6.25.99.83.99 1.48ZM8.5 34.94a1 1 0 0 1 0 2H2a1 1 0 1 1 0-2h6.5ZM54 34.94a1 1 0 0 1 0 2h-6.5a1 1 0 1 1 0-2H54ZM8.5 19.06a1 1 0 1 1 0 2H2a1 1 0 0 1 0-2h6.5ZM54 19.06a1 1 0 1 1 0 2h-6.5a1 1 0 0 1 0-2H54ZM19.06 8.5V2a1 1 0 0 1 2 0v6.5a1 1 0 1 1-2 0ZM19.06 54v-6.5a1 1 0 0 1 2 0V54a1 1 0 1 1-2 0ZM34.94 8.5V2a1 1 0 1 1 2 0v6.5a1 1 0 0 1-2 0ZM34.94 54v-6.5a1 1 0 1 1 2 0V54a1 1 0 0 1-2 0Z"/><path d="M46.5 12.83C46.5 11 45 9.5 43.17 9.5H12.83a3.33 3.33 0 0 0-3.33 3.33v30.34c0 1.84 1.5 3.33 3.33 3.33h30.34c1.84 0 3.33-1.5 3.33-3.33V12.83Zm2 30.34a5.33 5.33 0 0 1-5.33 5.33H12.83a5.33 5.33 0 0 1-5.33-5.33V12.83a5.33 5.33 0 0 1 5.33-5.33h30.34a5.33 5.33 0 0 1 5.33 5.33v30.34Z"/></svg>