<svg xmlns="http://www.w3.org/2000/svg" width="56" height="56" fill="currentColor" viewBox="0 0 56 56"><path d="M15 28a5 5 0 0 0-10 0v.25A5 5 0 0 0 15 28Zm2 0a7 7 0 0 1-14 .35V28a7 7 0 1 1 14 0Z"/><path d="M9 22V4a1 1 0 0 1 2 0v18a1 1 0 1 1-2 0ZM9 52V34a1 1 0 1 1 2 0v18a1 1 0 1 1-2 0ZM51 22a3 3 0 0 0-3-3H35.66a3 3 0 0 0-2.12.88l-7.42 7.41a1 1 0 0 0 0 1.42l7.42 7.41a3 3 0 0 0 2.12.88H48a3 3 0 0 0 3-3V22Zm2 12a5 5 0 0 1-5 5H35.66a5 5 0 0 1-3.54-1.46l-7.41-7.42a3 3 0 0 1 0-4.24l7.41-7.42A5 5 0 0 1 35.66 17H48a5 5 0 0 1 5 5v12Z"/></svg>